<svg width="357" height="269" viewBox="0 0 357 269" fill="none" xmlns="http://www.w3.org/2000/svg">
<path fill-rule="evenodd" clip-rule="evenodd" d="M0.674682 21.6505C-0.168481 8.48415 11.7436 -1.87689 24.666 0.783011L297.247 56.8903C313.629 60.2623 326.183 73.4706 328.72 90.0024L330.507 101.65C332.254 113.036 329.081 123.723 322.813 131.934L324.153 132.195C342.94 135.857 356.5 152.315 356.5 171.456V186.056C356.5 211.51 333.039 230.49 308.146 225.174L246.76 212.064C248.214 216.216 249 220.667 249 225.279V228.229C249 252.794 227.063 271.555 202.795 267.745L40.7951 242.307C21.3377 239.251 7.00002 222.487 7.00002 202.791V176.838C7.00002 164.571 17.9408 155.195 30.0626 157.074L68.7199 163.064C64.1437 156.523 61.5 148.589 61.5 140.14V107.075L36.3334 102.547C18.2243 99.2892 4.67377 84.0978 3.49787 65.7356L0.674682 21.6505Z" fill="#8C0000"/>
<path fill-rule="evenodd" clip-rule="evenodd" d="M68.32 25.888V25.792V25.696V25.6V25.504C68.32 25.44 68.256 25.344 68.128 25.216L67.936 25.12L62.368 23.968H61.984C61.984 24.032 61.952 24.064 61.888 24.064L54.592 30.208L54.496 30.304V30.4L43.36 57.856L30.016 17.536V17.44C29.952 17.44 29.92 17.408 29.92 17.344C29.856 17.28 29.792 17.248 29.728 17.248L29.632 17.152L23.968 16C23.712 16 23.552 16.032 23.488 16.096L16.192 22.24L16.096 22.336V22.432H16V22.528V22.624V22.816L35.296 81.28L35.392 81.472C35.392 81.536 35.424 81.568 35.488 81.568L35.584 81.664H35.68H35.776L39.904 82.528H40H40.096H40.192H40.288V82.432H40.384L47.584 76.288H47.68C47.68 76.224 47.712 76.192 47.776 76.192V76.096L68.32 25.888ZM60.928 32.032L66.496 27.424L46.816 75.616L41.344 80.224L60.928 32.032ZM22.048 23.2L17.728 22.336L23.968 17.152L28.288 18.016L22.048 23.2ZM60.352 31.168L56.224 30.304L62.368 25.024L66.592 25.888L60.352 31.168ZM29.248 18.688L42.688 59.488L38.272 70.432L38.176 70.528C38.176 70.464 38.112 70.304 37.984 70.048L22.912 23.968L29.248 18.688ZM81.92 82.352V82.256V27.728V27.632V27.536C81.856 27.536 81.824 27.504 81.824 27.44V27.344H81.728V27.248H81.632C81.568 27.248 81.536 27.216 81.536 27.152H81.44L75.968 26.096V26H75.872H75.776C75.712 26.064 75.648 26.096 75.584 26.096L75.488 26.192L68.288 32.24C68.16 32.368 68.096 32.464 68.096 32.528V32.624C68.032 32.624 68 32.656 68 32.72V87.248L68.096 87.44V87.536H68.192V87.632H68.288V87.728H68.48L73.952 88.88H74.048H74.144H74.24C74.304 88.88 74.336 88.848 74.336 88.784H74.432L81.728 82.64C81.792 82.576 81.824 82.512 81.824 82.448C81.888 82.448 81.92 82.416 81.92 82.352ZM73.952 33.2L69.824 32.432L76.064 27.152L80.096 28.016L73.952 33.2ZM80.768 81.968L74.624 87.152V34.064L80.768 28.88V81.968ZM111.752 50.296C109.896 48.248 107.144 46.84 103.496 46.072L102.824 45.976V58.456L110.312 59.992C111.592 60.248 112.936 60.376 114.344 60.376C114.408 59.992 114.44 59.608 114.44 59.224C114.504 58.84 114.536 58.424 114.536 57.976C114.536 55.032 113.608 52.472 111.752 50.296ZM101.768 45.688L95.528 44.44V63.832L101.768 58.648V45.688ZM103.016 66.136C106.664 66.84 109.48 66.488 111.464 65.08C112.744 64.12 113.608 62.904 114.056 61.432H113.672C113.16 61.432 112.584 61.4 111.944 61.336C111.368 61.272 110.76 61.176 110.12 61.048L102.44 59.512L96.2 64.696L103.016 66.136ZM122.696 99.448C122.696 99.512 122.664 99.544 122.6 99.544H122.504H122.408H122.312L116.552 98.392V98.296H116.456H116.36V98.2H116.264V98.104C116.2 98.104 116.168 98.072 116.168 98.008L108.872 80.728C108.296 79.256 107.688 77.976 107.048 76.888C106.408 75.8 105.8 74.904 105.224 74.2C104.52 73.496 103.72 72.92 102.824 72.472V87.256V87.352V87.448L102.728 87.544C102.728 87.608 102.696 87.64 102.632 87.64L95.336 93.784H95.24V93.88H95.144H95.048H94.952L89.384 92.728C89.32 92.728 89.224 92.664 89.096 92.536C89.032 92.472 89 92.376 89 92.248V37.72V37.624V37.528V37.432H89.096V37.336L89.192 37.24L96.488 31.192V31.096H96.584C96.648 31.096 96.68 31.064 96.68 31H96.776H96.872H96.968L112.232 34.168C117.096 35.256 121.032 37.464 124.04 40.792C127.048 44.312 128.552 48.28 128.552 52.696C128.552 56.856 127.304 60.088 124.808 62.392C124.616 62.648 124.392 62.872 124.136 63.064L119.048 67.288C120.072 68.824 121.128 70.84 122.216 73.336L130.184 92.728C130.312 92.856 130.312 92.984 130.184 93.112V93.208L130.088 93.304L122.792 99.448H122.696ZM121.256 73.72C120.744 72.568 120.232 71.512 119.72 70.552C119.272 69.592 118.792 68.728 118.28 67.96L117.128 68.92C117.128 68.984 117.096 69.016 117.032 69.016C115.176 70.616 113.032 71.544 110.6 71.8C112.072 73.592 113.512 76.12 114.92 79.384L122.696 98.104L129.032 92.728L121.256 73.72ZM123.176 41.56C120.36 38.296 116.616 36.184 111.944 35.224L96.968 32.152L90.728 37.336L104.936 40.312C109.736 41.272 113.672 43.48 116.744 46.936C119.752 50.328 121.256 54.264 121.256 58.744C121.256 61.112 120.84 63.224 120.008 65.08L123.464 62.2C123.72 61.944 123.944 61.752 124.136 61.624C126.312 59.512 127.4 56.536 127.4 52.696C127.4 48.472 125.992 44.76 123.176 41.56ZM101.768 71.992L101 71.8C100.808 71.736 100.552 71.672 100.232 71.608L95.528 70.648V92.152L101.768 86.968V71.992ZM174.968 53.96V53.864V48.872V48.776V48.68L174.872 48.584C174.872 48.52 174.84 48.488 174.776 48.488L174.68 48.392H174.584H174.488L138.968 41H138.68H138.584V41.096H138.488L131.192 47.24V47.336H131.096V47.432C131.096 47.496 131.064 47.528 131 47.528V47.624V52.616C131 52.744 131.064 52.872 131.192 53H131.288V53.096H131.48L146.072 56.168V105.32C146.072 105.448 146.136 105.576 146.264 105.704H146.36C146.36 105.768 146.424 105.8 146.552 105.8L151.928 106.952H152.024H152.12H152.216L152.408 106.856L159.704 100.712C159.768 100.648 159.8 100.584 159.8 100.52C159.864 100.52 159.896 100.488 159.896 100.424V100.328V59.048L167 60.488H167.096H167.192H167.288C167.352 60.488 167.384 60.456 167.384 60.392H167.48L174.776 54.248C174.84 54.248 174.872 54.216 174.872 54.152V54.056C174.936 54.056 174.968 54.024 174.968 53.96ZM167 54.44L132.824 47.336L138.968 42.152L173.24 49.16L167 54.44ZM173.912 53.576L167.672 58.76V55.208L173.912 50.024V53.576ZM152.6 57.512L158.84 58.76V100.04L152.6 105.224V57.512ZM221.56 57.448V90.088C221.56 98.28 219.64 104.008 215.8 107.272L208.792 113.128C208.664 113.256 208.536 113.352 208.408 113.416C206.04 115.272 203.064 116.2 199.48 116.2C197.752 116.2 195.896 116.008 193.912 115.624C181.304 113 175 104.168 175 89.128V55.624V55.528C175 55.464 175.032 55.432 175.096 55.432V55.336L175.192 55.24L182.488 49.096C182.552 49.032 182.712 49 182.968 49L188.44 50.152H188.536C188.536 50.216 188.568 50.248 188.632 50.248C188.696 50.312 188.728 50.376 188.728 50.44C188.792 50.44 188.824 50.472 188.824 50.536V50.632V83.656C188.824 95.176 193.24 101.832 202.072 103.624C203.736 103.944 205.24 104.04 206.584 103.912C206.968 102.824 207.224 101.64 207.352 100.36C207.544 99.016 207.64 97.512 207.64 95.848V62.44V62.344C207.704 62.344 207.736 62.312 207.736 62.248V62.152L207.832 62.056V61.96L215.128 55.912L215.224 55.816C215.288 55.816 215.352 55.784 215.416 55.72H215.512H215.608L221.08 56.872H221.176V56.968H221.272L221.464 57.16V57.256C221.464 57.32 221.496 57.352 221.56 57.352V57.448ZM219.736 57.736L215.704 56.872L209.464 62.152L213.496 62.92L219.736 57.736ZM201.88 104.68C192.472 102.76 187.768 95.752 187.768 83.656V51.88L181.528 57.064V89.704C181.528 101.224 185.944 107.88 194.776 109.672C198.68 110.568 201.656 110.12 203.704 108.328C204.664 107.624 205.464 106.536 206.104 105.064H205.528C204.952 105.064 204.344 105.032 203.704 104.968C203.128 104.904 202.52 104.808 201.88 104.68ZM176.728 55.336L180.856 56.2L187.096 51.016L182.968 50.152L176.728 55.336ZM215.032 106.408C218.616 103.528 220.408 98.088 220.408 90.088V58.6L214.264 63.784V96.232C214.264 101.544 213.432 105.864 211.768 109.192L215.032 106.408ZM273.704 122.576H273.8V122.48H273.896V122.384V122.288V122.192V122.096V122L254.12 63.44V63.344C254.12 63.28 254.088 63.248 254.024 63.248V63.152H253.928L253.832 63.056H253.736L248.936 62.096C248.872 62.096 248.808 62.064 248.744 62V62.096C248.552 62.096 248.424 62.128 248.36 62.192L241.16 68.24C241.096 68.304 241.064 68.368 241.064 68.432L240.968 68.528L221.096 118.928H221V119.024V119.12V119.216V119.312H221.096V119.408V119.504H221.192C221.256 119.568 221.32 119.6 221.384 119.6H221.48L227.048 120.848H227.144H227.24H227.336V120.752H227.432H227.528V120.656L234.824 114.608L234.92 114.512V114.416C234.984 114.416 235.016 114.384 235.016 114.32L237.992 106.736L254.024 110.096L259.88 127.28V127.376C259.88 127.44 259.912 127.472 259.976 127.472V127.568C260.04 127.568 260.104 127.6 260.168 127.664H260.264L265.928 128.816H266.024H266.12H266.216H266.312H266.408V128.72L273.704 122.576ZM246.248 69.104L242.696 68.432L248.936 63.152L252.392 63.92L246.248 69.104ZM272.744 122L266.312 127.376L247.016 69.872L253.352 64.496L272.744 122ZM233.48 105.872L236.84 106.544L234.056 113.84L228.488 118.448L233.48 105.872ZM241.448 94.16L235.976 98.768L243.656 79.088L245.384 84.176L241.448 94.16ZM242.696 94.064L245.96 85.712L249.32 95.408L242.696 94.064ZM252.104 103.664L235.88 100.304L242.12 95.024L249.704 96.656L252.104 103.664ZM312.848 126.512V126.608C312.784 126.608 312.752 126.64 312.752 126.704V126.8L312.656 126.896L312.56 126.992L305.36 133.04H305.264V133.136H305.168H305.072C305.072 133.2 305.04 133.232 304.976 133.232H304.88V133.136L278.384 127.76C278.384 127.696 278.352 127.664 278.288 127.664H278.192V127.568C278.064 127.44 278 127.312 278 127.184V72.656V72.56V72.464L278.096 72.368V72.272H278.192V72.176L285.392 66.128C285.648 66 285.84 65.968 285.968 66.032L291.44 67.184H291.536C291.6 67.184 291.632 67.216 291.632 67.28H291.728V67.376H291.824V67.472V67.568V67.664V116.816L312.368 121.04H312.464L312.56 121.136C312.624 121.136 312.656 121.168 312.656 121.232L312.752 121.328V121.424V121.52C312.816 121.52 312.848 121.552 312.848 121.616V126.512ZM279.728 72.368L283.856 73.232L290.096 67.952L285.968 67.088L279.728 72.368ZM290.768 68.816L284.528 74V122.192L290.768 117.008V68.816ZM305.552 131.504L311.696 126.32V122.768L305.552 127.952V131.504ZM291.44 117.872L285.2 123.056L304.784 127.088L311.024 121.904L291.44 117.872ZM138.04 169.664C138.104 169.664 138.136 169.632 138.136 169.568V115.04V114.944H138.04V114.848V114.752L137.944 114.656L137.848 114.56H137.752L137.656 114.464L132.76 113.504C132.568 113.44 132.408 113.472 132.28 113.6L124.984 119.648L124.792 119.84L110.488 148.832L92.44 105.344H92.344V105.248L92.248 105.152H92.152L92.056 105.056L86.968 104H86.68L86.584 104.096H86.488L79.192 110.24C79.192 110.304 79.16 110.336 79.096 110.336V110.432C79.032 110.432 79 110.464 79 110.528V110.72V165.152C79 165.344 79.032 165.472 79.096 165.536H79.192V165.632C79.256 165.632 79.288 165.664 79.288 165.728H79.48L84.856 166.88H84.952H85.048H85.144L85.24 166.784H85.336V166.688L92.632 160.64L92.728 160.544C92.792 160.48 92.824 160.352 92.824 160.16V145.568L103.192 170.432H103.288C103.288 170.56 103.352 170.624 103.48 170.624V170.72H103.576L106.168 171.2C106.168 171.264 106.2 171.296 106.264 171.296C106.264 171.232 106.296 171.2 106.36 171.2H106.456H106.552V171.104L113.848 165.056V164.96H113.944L114.04 164.864L124.408 144.128V174.56C124.408 174.816 124.536 175.008 124.792 175.136L130.168 176.192H130.264H130.36H130.456H130.552V176.096H130.648L137.944 169.952V169.856H138.04V169.76V169.664ZM85.24 111.872L91.672 106.496L109.816 150.176L105.592 158.624C105.464 158.816 105.304 159.2 105.112 159.776C104.984 159.456 104.888 159.2 104.824 159.008L104.632 158.432L85.24 111.872ZM84.472 111.104L80.728 110.336L86.968 105.152L90.712 105.92L84.472 111.104ZM85.528 128.096L91.768 142.88V159.968L85.528 165.152V128.096ZM107.896 168.608L124.408 135.584V136.16V136.256V141.632L113.08 164.288L107.896 168.608ZM132.76 114.56L136.312 115.328L130.072 120.512L126.52 119.84L132.76 114.56ZM130.84 121.376L136.984 116.192V169.28L130.84 174.464V121.376ZM197.8 180.576H197.704L190.408 186.72V186.816H190.312H190.216H190.12H190.024H189.928L184.264 185.664H184.168C184.104 185.6 184.04 185.568 183.976 185.568V185.472C183.912 185.472 183.88 185.44 183.88 185.376V185.28L178.024 168.096L161.992 164.736L159.016 172.32C159.016 172.384 158.984 172.416 158.92 172.416V172.512L158.824 172.608L151.528 178.656V178.752H151.432H151.336V178.848H151.24H151.144H151.048L145.48 177.6H145.384C145.32 177.6 145.256 177.568 145.192 177.504H145.096V177.408V177.312H145V177.216V177.12V177.024V176.928H145.096L164.968 126.528L165.064 126.432C165.064 126.368 165.096 126.304 165.16 126.24L172.36 120.192C172.424 120.128 172.552 120.096 172.744 120.096V120C172.808 120.064 172.872 120.096 172.936 120.096L177.736 121.056H177.832L177.928 121.152H178.024V121.248C178.088 121.248 178.12 121.28 178.12 121.344V121.44L197.896 180V180.096V180.192V180.288V180.384V180.48H197.8V180.576ZM166.696 126.432L170.248 127.104L176.392 121.92L172.936 121.152L166.696 126.432ZM190.312 185.376L196.744 180L177.352 122.496L171.016 127.872L190.312 185.376ZM160.84 164.544L157.48 163.872L152.488 176.448L158.056 171.84L160.84 164.544ZM159.976 156.768L165.448 152.16L169.384 142.176L167.656 137.088L159.976 156.768ZM169.96 143.712L166.696 152.064L173.32 153.408L169.96 143.712ZM159.88 158.304L176.104 161.664L173.704 154.656L166.12 153.024L159.88 158.304ZM241.968 142.96V142.864V137.872V137.776V137.68L241.872 137.584C241.872 137.52 241.84 137.488 241.776 137.488L241.68 137.392H241.584H241.488L205.968 130H205.68H205.584V130.096H205.488L198.192 136.24V136.336H198.096V136.432C198.096 136.496 198.064 136.528 198 136.528V136.624V141.616C198 141.744 198.064 141.872 198.192 142H198.288V142.096H198.48L213.072 145.168V194.32C213.072 194.448 213.136 194.576 213.264 194.704H213.36C213.36 194.768 213.424 194.8 213.552 194.8L218.928 195.952H219.024H219.12H219.216L219.408 195.856L226.704 189.712C226.768 189.648 226.8 189.584 226.8 189.52C226.864 189.52 226.896 189.488 226.896 189.424V189.328V148.048L234 149.488H234.096H234.192H234.288C234.352 149.488 234.384 149.456 234.384 149.392H234.48L241.776 143.248C241.84 143.248 241.872 143.216 241.872 143.152V143.056C241.936 143.056 241.968 143.024 241.968 142.96ZM234 143.44L199.824 136.336L205.968 131.152L240.24 138.16L234 143.44ZM240.912 142.576L234.672 147.76V144.208L240.912 139.024V142.576ZM219.6 146.512L225.84 147.76V189.04L219.6 194.224V146.512ZM296.232 203.072V203.168V203.264V203.36L296.04 203.552L288.84 209.6H288.744V209.696H288.648H288.552H288.456H288.36L282.888 208.64C282.632 208.512 282.504 208.32 282.504 208.064V183.392L262.824 179.36V196.16V196.256V196.352V196.448L262.728 196.544L262.632 196.64L255.432 202.688H255.336V202.784H255.24H255.144H255.048H254.952L249.384 201.728C249.384 201.664 249.352 201.632 249.288 201.632H249.192V201.536C249.064 201.408 249 201.28 249 201.152V146.624V146.528V146.432L249.096 146.336V146.24H249.192L256.488 140.096L256.584 140H256.68H256.776H256.968L262.44 141.152H262.536C262.6 141.152 262.632 141.184 262.632 141.248H262.728V141.344H262.824V141.44V141.536V141.632V165.632L282.504 169.664V153.536V153.44V153.344V153.248H282.6V153.152H282.696L289.992 147.008L290.088 146.912H290.184H290.28H290.376L295.848 148.064H295.944H296.04V148.16H296.136C296.136 148.224 296.168 148.256 296.232 148.256V148.352V148.448V148.544V203.072ZM256.2 171.872L282.504 177.344V170.816L262.44 166.688L256.2 171.872ZM261.768 142.784L255.528 147.968V171.008L261.768 165.824V142.784ZM250.728 146.336L254.856 147.2L261.096 141.92L256.968 141.056L250.728 146.336ZM261.768 179.072L255.528 177.824V201.152L261.768 195.872V179.072ZM294.504 148.832L290.472 148.064L284.232 153.248L288.264 154.112L294.504 148.832ZM295.176 149.696L289.032 154.88V208.064L295.176 202.784V149.696ZM343.824 194.385C343.824 192.081 343.44 190.065 342.672 188.337C341.776 186.545 340.432 184.625 338.64 182.577C336.784 180.657 334.192 178.353 330.864 175.665C329.136 174.321 327.664 173.137 326.448 172.113C325.296 171.089 324.368 170.225 323.664 169.521C322.32 168.049 321.424 166.833 320.976 165.873C320.464 164.657 320.208 163.217 320.208 161.553V161.169C320.656 161.233 321.072 161.297 321.456 161.361C321.904 161.361 322.352 161.425 322.8 161.553C326.256 162.257 329.84 163.697 333.552 165.873L333.648 165.969H333.84H333.936H334.032H334.128V165.873H334.224L341.52 159.729V159.633H341.616V159.537V159.441C341.68 159.441 341.712 159.409 341.712 159.345V154.161V154.065C341.712 154.001 341.68 153.969 341.616 153.969C341.616 153.905 341.552 153.809 341.424 153.681C339.632 152.593 337.84 151.729 336.048 151.089C334.256 150.385 332.496 149.841 330.768 149.457C327.696 148.817 324.784 148.849 322.032 149.553C320.176 150.065 318.608 150.865 317.328 151.953L310.416 157.713C310.416 157.777 310.384 157.809 310.32 157.809C309.616 158.449 309.008 159.089 308.496 159.729C307.024 161.777 306.288 164.177 306.288 166.929C306.288 169.233 306.704 171.313 307.536 173.169C308.304 175.025 309.456 176.817 310.992 178.545C312.336 180.081 314.992 182.481 318.96 185.745C321.008 187.345 322.672 188.721 323.952 189.873C325.232 190.961 326.16 191.825 326.736 192.465C327.248 193.105 327.696 193.713 328.08 194.289C328.528 194.865 328.88 195.441 329.136 196.017C329.648 197.169 329.904 198.385 329.904 199.665V200.337C329.328 200.337 328.72 200.305 328.08 200.241C327.44 200.113 326.768 199.985 326.064 199.857C322.352 199.089 318.384 197.041 314.16 193.713H314.064H313.968V193.617H313.872H313.776H313.68L313.584 193.713H313.488V193.809H313.392L306.192 199.857H306.096V199.953L306 200.049V200.145V200.241V200.337V205.809V206.001L306.096 206.097C306.096 206.161 306.128 206.193 306.192 206.193C307.536 207.345 309.52 208.529 312.144 209.745C314.64 210.897 316.848 211.665 318.768 212.049C320.56 212.433 322.288 212.625 323.952 212.625C326.96 212.625 329.52 211.953 331.632 210.609C332.08 210.353 332.464 210.065 332.784 209.745L339.984 203.793C342.544 201.553 343.824 198.417 343.824 194.385ZM340.56 159.057L334.416 164.241V160.497L340.56 155.313V159.057ZM314.736 155.697H314.544L318 152.721H318.096C319.248 151.761 320.656 151.057 322.32 150.609C324.688 149.969 327.44 149.937 330.576 150.513C333.712 151.153 336.912 152.401 340.176 154.257L333.744 159.633C330.288 157.649 326.864 156.305 323.472 155.601C320.208 154.897 317.296 154.929 314.736 155.697ZM327.888 201.297C328.528 201.361 329.136 201.393 329.712 201.393C329.392 203.441 328.56 204.817 327.216 205.521C325.36 206.609 322.576 206.769 318.864 206.001C315.408 205.233 311.568 203.313 307.344 200.241L313.776 194.865C318.192 198.129 322.224 200.145 325.872 200.913C326.576 201.041 327.248 201.169 327.888 201.297ZM342.768 194.385C342.768 198.161 341.584 201.009 339.216 202.929L335.568 206.001C336.208 204.529 336.528 202.705 336.528 200.529C336.528 198.289 336.144 196.241 335.376 194.385C334.48 192.593 333.136 190.705 331.344 188.721C330.448 187.761 329.328 186.705 327.984 185.553C326.704 184.337 325.232 183.089 323.568 181.809C321.84 180.401 320.368 179.217 319.152 178.257C318 177.233 317.072 176.369 316.368 175.665C315.216 174.449 314.32 173.233 313.68 172.017C313.168 170.801 312.912 169.361 312.912 167.697C312.912 165.137 313.808 163.345 315.6 162.321C316.624 161.617 317.808 161.265 319.152 161.265V161.553C319.152 163.537 319.44 165.137 320.016 166.353C320.656 167.569 321.616 168.881 322.896 170.289C323.6 170.993 324.56 171.857 325.776 172.881C326.992 173.905 328.464 175.121 330.192 176.529C333.456 179.153 336.016 181.425 337.872 183.345C339.6 185.201 340.848 186.993 341.616 188.721C342.384 190.449 342.768 192.337 342.768 194.385ZM32.992 181.207C32.864 181.335 32.768 181.463 32.704 181.591C32.704 181.719 32.64 181.847 32.512 181.975C30.848 185.175 30.016 189.079 30.016 193.687C30.016 198.231 30.816 202.295 32.416 205.879C34.08 209.655 36.352 212.695 39.232 214.999C42.048 217.367 45.376 218.935 49.216 219.703C53.76 220.663 58.336 220.695 62.9439 219.799H63.0399H63.1359H63.2319C63.2959 219.799 63.3279 219.831 63.3279 219.895H63.4239L63.5199 219.991V220.087C63.5839 220.087 63.6159 220.119 63.6159 220.183V220.279V225.079C63.6159 225.207 63.5839 225.303 63.5199 225.367C63.5199 225.431 63.4879 225.463 63.4239 225.463L56.128 231.607C56.064 231.671 56 231.703 55.936 231.703C53.504 232.279 51.04 232.567 48.544 232.567C46.304 232.567 43.904 232.311 41.344 231.799C38.912 231.287 36.576 230.519 34.336 229.495C32.096 228.471 30.016 227.159 28.096 225.559C24.32 222.551 21.344 218.679 19.168 213.943C17.056 209.335 16 204.375 16 199.063C16 193.367 17.152 188.503 19.456 184.471C20.736 182.103 22.304 180.183 24.16 178.711V178.615L31.168 172.759C32.64 171.479 34.4 170.423 36.448 169.591C40.608 167.863 45.344 167.543 50.656 168.631C54.944 169.591 59.168 171.255 63.3279 173.623L63.4239 173.719H63.5199V173.815L63.6159 173.911V174.007V174.103V179.287C63.6159 179.415 63.5519 179.543 63.4239 179.671L56.128 185.719C56 185.847 55.872 185.911 55.744 185.911H55.648C55.584 185.911 55.552 185.879 55.552 185.815C53.312 184.535 51.136 183.479 49.024 182.647C46.976 181.815 44.992 181.207 43.072 180.823C39.232 180.055 35.872 180.183 32.992 181.207ZM62.5599 175.255L56.32 180.439V184.183L62.5599 178.999V175.255ZM36.832 170.647C35.936 170.967 35.072 171.383 34.24 171.895C33.408 172.407 32.608 172.983 31.84 173.623L29.536 175.543C33.696 174.007 38.304 173.751 43.36 174.775C47.392 175.607 51.52 177.207 55.744 179.575L62.08 174.199C60.16 173.111 58.208 172.215 56.224 171.511C54.304 170.743 52.352 170.167 50.368 169.783C45.376 168.759 40.864 169.047 36.832 170.647ZM62.5599 221.527L56.32 226.711V229.975L62.5599 224.791V221.527ZM31.456 206.359C29.728 202.519 28.864 198.295 28.864 193.687C28.864 189.143 29.696 185.207 31.36 181.879C28.8 183.223 26.752 185.271 25.216 188.023C23.552 191.351 22.72 195.287 22.72 199.831C22.72 204.375 23.52 208.439 25.12 212.023C26.72 215.607 28.992 218.647 31.936 221.143C34.944 223.511 38.272 225.079 41.92 225.847C46.4 226.807 50.944 226.839 55.552 225.943L61.216 221.239C57.248 221.815 53.152 221.655 48.928 220.759C44.96 219.991 41.504 218.359 38.56 215.863C35.424 213.303 33.056 210.135 31.456 206.359ZM119.704 236.576H119.8V236.48H119.896V236.384V236.288V236.192V236.096V236L100.12 177.44V177.344C100.12 177.28 100.088 177.248 100.024 177.248V177.152H99.928L99.832 177.056H99.736L94.936 176.096C94.872 176.096 94.808 176.064 94.744 176V176.096C94.552 176.096 94.424 176.128 94.36 176.192L87.16 182.24C87.096 182.304 87.064 182.368 87.064 182.432L86.968 182.528L67.096 232.928H67V233.024V233.12V233.216V233.312H67.096V233.408V233.504H67.192C67.256 233.568 67.32 233.6 67.384 233.6H67.48L73.048 234.848H73.144H73.24H73.336V234.752H73.432H73.528V234.656L80.824 228.608L80.92 228.512V228.416C80.984 228.416 81.016 228.384 81.016 228.32L83.992 220.736L100.024 224.096L105.88 241.28V241.376C105.88 241.44 105.912 241.472 105.976 241.472V241.568C106.04 241.568 106.104 241.6 106.168 241.664H106.264L111.928 242.816H112.024H112.12H112.216H112.312H112.408V242.72L119.704 236.576ZM92.248 183.104L88.696 182.432L94.936 177.152L98.392 177.92L92.248 183.104ZM118.744 236L112.312 241.376L93.016 183.872L99.352 178.496L118.744 236ZM79.48 219.872L82.84 220.544L80.056 227.84L74.488 232.448L79.48 219.872ZM87.448 208.16L81.976 212.768L89.656 193.088L91.384 198.176L87.448 208.16ZM88.696 208.064L91.96 199.712L95.32 209.408L88.696 208.064ZM98.104 217.664L81.88 214.304L88.12 209.024L95.704 210.656L98.104 217.664ZM185.136 247.568C185.136 247.632 185.104 247.664 185.04 247.664V247.76V247.856H184.944V247.952L177.648 254.096H177.552V254.192H177.456H177.36H177.264H177.168L171.792 253.136C171.536 253.008 171.408 252.816 171.408 252.56V222.128L161.04 242.864L160.944 242.96H160.848V243.056L153.552 249.104V249.2H153.456H153.36C153.296 249.2 153.264 249.232 153.264 249.296C153.2 249.296 153.168 249.264 153.168 249.2L150.576 248.72H150.48V248.624C150.352 248.624 150.288 248.56 150.288 248.432H150.192L139.824 223.568V238.16C139.824 238.352 139.792 238.48 139.728 238.544L139.632 238.64L132.336 244.688V244.784H132.24L132.144 244.88H132.048H131.952H131.856L126.48 243.728H126.288C126.288 243.664 126.256 243.632 126.192 243.632V243.536H126.096C126.032 243.472 126 243.344 126 243.152V188.72V188.528C126 188.464 126.032 188.432 126.096 188.432V188.336C126.16 188.336 126.192 188.304 126.192 188.24L133.488 182.096H133.584L133.68 182H133.968L139.056 183.056L139.152 183.152H139.248L139.344 183.248V183.344H139.44L157.488 226.832L171.792 197.84L171.984 197.648L179.28 191.6C179.408 191.472 179.568 191.44 179.76 191.504L184.656 192.464L184.752 192.56H184.848L184.944 192.656L185.04 192.752V192.848V192.944H185.136V193.04V247.568ZM138.672 184.496L132.24 189.872L151.632 236.432L151.824 237.008C151.888 237.2 151.984 237.456 152.112 237.776C152.304 237.2 152.464 236.816 152.592 236.624L156.816 228.176L138.672 184.496ZM127.728 188.336L131.472 189.104L137.712 183.92L133.968 183.152L127.728 188.336ZM138.768 220.88L132.528 206.096V243.152L138.768 237.968V220.88ZM171.408 213.584L154.896 246.608L160.08 242.288L171.408 219.632V214.256V214.16V213.584ZM183.312 193.328L179.76 192.56L173.52 197.84L177.072 198.512L183.312 193.328ZM183.984 194.192L177.84 199.376V252.464L183.984 247.28V194.192ZM237.552 216.696C237.552 212.28 236.048 208.312 233.04 204.792C230.032 201.464 226.096 199.256 221.232 198.168L205.968 195C205.776 195 205.648 195.032 205.584 195.096H205.488L198.192 201.24C198.192 201.304 198.16 201.336 198.096 201.336V201.432L198 201.528V201.624V201.72V256.152V256.44C198.064 256.44 198.096 256.472 198.096 256.536H198.192C198.192 256.664 198.288 256.728 198.48 256.728L203.952 257.88H204.048H204.144H204.24L204.336 257.784H204.432L211.728 251.64V251.544C211.792 251.544 211.824 251.512 211.824 251.448V251.352C211.888 251.352 211.92 251.32 211.92 251.256V236.28C213.328 236.472 214.672 236.568 215.952 236.568C220.112 236.568 223.504 235.352 226.128 232.92L233.232 227.064L233.52 226.776L233.904 226.392C236.336 224.088 237.552 220.856 237.552 216.696ZM204.624 256.152V234.648L210.768 236.088V250.968L204.624 256.152ZM236.496 216.696C236.496 220.536 235.376 223.512 233.136 225.624C233.008 225.752 232.88 225.848 232.752 225.912L232.464 226.2L229.008 229.08C229.84 227.352 230.256 225.24 230.256 222.744C230.256 218.264 228.752 214.328 225.744 210.936C222.8 207.48 218.864 205.272 213.936 204.312L199.824 201.336L205.968 196.152L221.04 199.224C225.776 200.184 229.52 202.296 232.272 205.56C235.088 208.76 236.496 212.472 236.496 216.696ZM212.592 210.072C216.176 210.84 218.896 212.248 220.752 214.296C222.608 216.344 223.536 218.904 223.536 221.976V223.224C223.536 223.608 223.472 223.992 223.344 224.376C222.768 224.376 222.128 224.344 221.424 224.28C220.784 224.216 220.112 224.12 219.408 223.992L211.92 222.456V209.976L212.592 210.072ZM204.624 208.44L210.768 209.688V222.648L204.624 227.832V208.44ZM223.056 225.432C222.608 226.904 221.776 228.088 220.56 228.984C218.576 230.456 215.76 230.84 212.112 230.136L205.296 228.696L211.44 223.512L219.12 225.048C219.76 225.176 220.368 225.272 220.944 225.336C221.584 225.4 222.16 225.432 222.672 225.432H223.056Z" fill="white"/>
</svg>
