<svg width="561" height="500" viewBox="0 0 561 500" fill="none" xmlns="http://www.w3.org/2000/svg">
<path d="M151.02 470.733V383.736C151.021 382.517 151.506 381.348 152.367 380.487C153.229 379.625 154.398 379.14 155.616 379.139H166.055C167.273 379.14 168.442 379.625 169.304 380.487C170.165 381.348 170.65 382.517 170.652 383.736V470.733C170.65 471.952 170.165 473.12 169.304 473.982C168.442 474.844 167.273 475.329 166.055 475.33H155.616C154.398 475.329 153.229 474.844 152.367 473.982C151.506 473.12 151.021 471.952 151.02 470.733V470.733Z" fill="#FF9800"/>
<path d="M130.374 470.733V383.736C130.375 382.517 130.86 381.348 131.722 380.487C132.584 379.625 133.752 379.14 134.971 379.139H145.409C146.628 379.14 147.796 379.625 148.658 380.487C149.52 381.348 150.005 382.517 150.006 383.736V470.733C150.005 471.952 149.52 473.12 148.658 473.982C147.796 474.844 146.628 475.329 145.409 475.33H134.971C133.752 475.329 132.584 474.844 131.722 473.982C130.86 473.12 130.375 471.952 130.374 470.733V470.733Z" fill="#FF9800"/>
<path d="M171.644 355.014H129.381C127.038 355.014 125.138 356.914 125.138 359.257V406.998C125.138 409.342 127.038 411.241 129.381 411.241H171.644C173.988 411.241 175.887 409.342 175.887 406.998V359.257C175.887 356.914 173.988 355.014 171.644 355.014Z" fill="#FF9800"/>
<path d="M79.4629 218.332C79.4629 218.332 58.1343 228.24 40.0854 234.811C28.8852 209.527 12.7495 210.473 12.7495 210.473L2.96703 217.209L4.73109 227.312L4.24998 243.83L1.68408 252.49L5.36613 253.156L7.44612 253.533L7.75967 253.249C7.24065 255.306 7.03065 257.428 7.13661 259.546L99.6694 245.113C99.6694 245.113 96.462 230.199 79.4629 218.332Z" fill="#E6E6E6"/>
<path d="M52.1388 348.374L58.3427 356.769C59.7356 358.653 62.3926 359.052 64.2772 357.659L134.241 305.952C136.126 304.559 136.524 301.902 135.131 300.017L128.927 291.623C127.535 289.738 124.878 289.34 122.993 290.733L53.0292 342.44C51.1446 343.832 50.7459 346.489 52.1388 348.374Z" fill="#6C63FF"/>
<path d="M171.354 288.771L162.133 293.665C160.063 294.763 159.276 297.332 160.374 299.402L201.156 376.249C202.254 378.319 204.823 379.106 206.893 378.008L216.113 373.115C218.183 372.016 218.971 369.447 217.872 367.377L177.091 290.531C175.992 288.46 173.424 287.673 171.354 288.771Z" fill="#6C63FF"/>
<path d="M197.202 322.877L182.143 332.86C179.842 334.081 177.086 333.393 175.988 331.323L159.357 299.985C158.259 297.915 159.234 295.247 161.535 294.026L171.784 288.587C174.085 287.365 176.841 288.053 177.94 290.124L199.379 316.918C200.478 318.988 199.503 321.656 197.202 322.877Z" fill="#008081"/>
<path d="M94.5849 313.697L104.372 326.695C105.143 327.515 106.207 327.996 107.332 328.032C108.457 328.068 109.55 327.655 110.37 326.885L136.238 302.605C137.058 301.835 137.539 300.771 137.575 299.646C137.61 298.521 137.198 297.428 136.427 296.607L129.284 288.997C128.514 288.176 127.449 287.695 126.324 287.66C125.199 287.624 124.107 288.037 123.286 288.807L94.7748 307.699C93.9542 308.469 93.4733 309.534 93.4377 310.659C93.4021 311.784 93.8147 312.876 94.5849 313.697V313.697Z" fill="#CCCCCC"/>
<path d="M174.226 287.521H126.799C124.455 287.521 122.556 289.421 122.556 291.764V392.525C122.556 394.869 124.455 396.768 126.799 396.768H174.226C176.57 396.768 178.47 394.869 178.47 392.525V291.764C178.47 289.421 176.57 287.521 174.226 287.521Z" fill="#008081"/>
<path d="M150.236 280.945C171.14 280.945 188.086 264 188.086 243.096C188.086 222.192 171.14 205.246 150.236 205.246C129.332 205.246 112.387 222.192 112.387 243.096C112.387 264 129.332 280.945 150.236 280.945Z" fill="#6C63FF"/>
<path d="M154.647 255.733C152.309 255.667 149.399 255.586 147.159 253.949C146.491 253.442 145.943 252.794 145.552 252.052C145.161 251.31 144.937 250.492 144.896 249.654C144.855 249.059 144.953 248.463 145.181 247.911C145.409 247.36 145.762 246.869 146.211 246.477C147.381 245.488 149.091 245.255 150.934 245.798L149.025 231.847L150.427 231.655L152.67 248.055L151.5 247.519C150.145 246.896 148.282 246.579 147.124 247.557C146.84 247.813 146.619 248.131 146.478 248.486C146.336 248.841 146.279 249.223 146.309 249.604C146.344 250.228 146.512 250.837 146.802 251.389C147.093 251.942 147.499 252.425 147.993 252.807C149.736 254.08 152.056 254.245 154.688 254.319L154.647 255.733Z" fill="#FF9800"/>
<path d="M142.095 233.05H134.477V234.464H142.095V233.05Z" fill="#FF9800"/>
<path d="M166.14 233.05H158.522V234.464H166.14V233.05Z" fill="#FF9800"/>
<path d="M125.232 213.518C119.097 212.819 114.346 206.941 113.824 200.977C113.204 193.882 117.335 187.144 123.004 183.163C128.932 178.999 136.318 177.26 143.464 176.878C157.404 176.184 171.104 180.699 181.899 189.546C187.254 193.994 192.255 199.659 194.15 206.501C195.796 212.444 194.457 219.176 189.677 223.338C188.495 224.358 187.114 225.122 185.622 225.581C184.129 226.041 182.558 226.186 181.007 226.008C177.298 225.623 173.877 223.673 170.915 221.519C165.153 217.33 160.423 211.494 153.404 209.305C148.257 207.7 141.578 209.113 138.432 213.767C137.719 214.833 137.256 216.046 137.08 217.316C137.015 217.587 137.055 217.873 137.193 218.115C137.33 218.357 137.555 218.538 137.821 218.621C138.092 218.694 138.381 218.658 138.625 218.519C138.87 218.38 139.049 218.151 139.126 217.88C139.951 212.018 147.16 209.831 152.218 211.169C159.593 213.121 164.544 219.703 170.595 223.884C173.777 226.082 177.395 227.84 181.297 228.156C184.661 228.42 187.999 227.394 190.635 225.287C195.804 221.205 197.781 214.184 196.638 207.863C195.314 200.543 190.387 194.27 184.982 189.412C174.023 179.67 159.795 174.414 145.134 174.692C137.657 174.864 129.854 176.408 123.412 180.36C117.163 184.194 112.334 190.608 111.702 198.063C111.147 204.625 114.667 211.489 120.711 214.364C122.136 215.039 123.664 215.47 125.232 215.64C126.586 215.794 126.575 213.671 125.232 213.518H125.232Z" fill="#FF9800"/>
<path d="M7.37684 252.25L11.8672 250.806C12.3483 249.884 11.4679 250.476 11.888 249.579C23.2486 225.343 12.7492 210.473 12.7492 210.473L4.62702 216.066C4.60705 216.02 4.59068 215.972 4.57039 215.926C4.57043 215.926 3.12709 212.719 0.881952 215.124C0.881952 215.124 7.93816 232.284 0.0800781 253.613L9.22111 257.783L12.7492 253.613L12.8294 253.212L6.51527 252.638L7.37684 252.25Z" fill="#CCCCCC"/>
<path d="M135.431 342.297C99.3484 334.278 65.7512 350.877 65.7512 350.877L65.6598 350.795L52.2802 338.849L0 253.533L12.7493 253.613C48.1908 232.444 98.0654 235.331 98.0654 235.331C119.555 259.707 135.431 342.297 135.431 342.297Z" fill="#3F3D56"/>
<path opacity="0.1" d="M65.6598 350.795L52.2802 338.849L0 253.533L12.7493 253.613C12.7493 253.613 63.5637 320.726 65.6598 350.795Z" fill="black"/>
<path d="M71.5319 284.227C82.4551 280.876 89.5836 272.531 87.4539 265.588C85.3242 258.645 74.7428 255.732 63.8196 259.082C52.8965 262.433 45.768 270.777 47.8976 277.721C50.0273 284.664 60.6087 287.577 71.5319 284.227Z" fill="#6C63FF"/>
<path d="M273.665 437.058H109.592V438.472H273.665V437.058Z" fill="#3F3D56"/>
<g clip-path="url(#clip0)">
<path d="M344.18 270.543C343.833 270.089 343.61 269.553 343.532 268.988L328.571 161.863C328.45 160.991 328.68 160.108 329.21 159.405C329.74 158.703 330.527 158.24 331.398 158.117L480.637 137.274C481.069 137.213 481.508 137.239 481.93 137.348C482.352 137.458 482.748 137.649 483.096 137.912C483.444 138.174 483.736 138.503 483.957 138.878C484.178 139.254 484.323 139.67 484.383 140.101L499.344 247.226C499.465 248.097 499.235 248.981 498.705 249.683C498.175 250.386 497.388 250.849 496.517 250.972L347.278 271.815C346.846 271.876 346.407 271.852 345.985 271.742C345.563 271.633 345.167 271.441 344.819 271.177C344.578 270.996 344.363 270.782 344.18 270.543Z" fill="#E6E6E6"/>
<path d="M474.96 138.312L474.199 138.419L490.011 251.634L490.772 251.528L474.96 138.312Z" fill="white"/>
<path d="M461.255 140.226L460.493 140.333L476.305 253.549L477.067 253.442L461.255 140.226Z" fill="white"/>
<path d="M447.549 142.141L446.788 142.247L462.6 255.463L463.361 255.356L447.549 142.141Z" fill="white"/>
<path d="M433.843 144.055L433.082 144.161L448.894 257.377L449.656 257.271L433.843 144.055Z" fill="white"/>
<path d="M420.138 145.969L419.376 146.075L435.189 259.291L435.95 259.185L420.138 145.969Z" fill="white"/>
<path d="M406.432 147.883L405.671 147.99L421.483 261.205L422.245 261.099L406.432 147.883Z" fill="white"/>
<path d="M392.727 149.797L391.965 149.904L407.778 263.12L408.539 263.013L392.727 149.797Z" fill="white"/>
<path d="M379.021 151.712L378.26 151.818L394.072 265.034L394.833 264.927L379.021 151.712Z" fill="white"/>
<path d="M365.316 153.626L364.554 153.732L380.366 266.948L381.128 266.842L365.316 153.626Z" fill="white"/>
<path d="M351.61 155.54L350.849 155.646L366.661 268.862L367.422 268.756L351.61 155.54Z" fill="white"/>
<path d="M337.904 157.454L337.143 157.56L352.955 270.776L353.716 270.67L337.904 157.454Z" fill="white"/>
<path d="M354.698 251.46C354.352 251.007 354.129 250.471 354.051 249.905L339.089 142.781C338.969 141.909 339.199 141.025 339.729 140.323C340.259 139.621 341.046 139.158 341.917 139.035L491.156 118.192C491.588 118.131 492.027 118.156 492.449 118.266C492.871 118.375 493.267 118.567 493.615 118.829C493.962 119.092 494.255 119.42 494.476 119.796C494.697 120.172 494.841 120.587 494.901 121.019L509.863 228.144C509.984 229.015 509.754 229.899 509.224 230.601C508.694 231.303 507.907 231.767 507.036 231.889L357.797 252.733C357.365 252.794 356.925 252.769 356.503 252.66C356.081 252.551 355.685 252.358 355.338 252.095C355.097 251.913 354.882 251.7 354.698 251.46Z" fill="#F2F2F2"/>
<path d="M485.479 119.23L484.717 119.336L500.53 232.552L501.291 232.446L485.479 119.23Z" fill="white"/>
<path d="M471.773 121.144L471.012 121.25L486.824 234.466L487.585 234.36L471.773 121.144Z" fill="white"/>
<path d="M458.068 123.058L457.306 123.165L473.118 236.381L473.88 236.274L458.068 123.058Z" fill="white"/>
<path d="M444.362 124.972L443.601 125.079L459.413 238.295L460.174 238.188L444.362 124.972Z" fill="white"/>
<path d="M430.656 126.887L429.895 126.993L445.707 240.209L446.469 240.103L430.656 126.887Z" fill="white"/>
<path d="M416.951 128.801L416.189 128.907L432.002 242.123L432.763 242.017L416.951 128.801Z" fill="white"/>
<path d="M403.245 130.715L402.484 130.821L418.296 244.037L419.058 243.931L403.245 130.715Z" fill="white"/>
<path d="M389.54 132.629L388.778 132.736L404.591 245.952L405.352 245.845L389.54 132.629Z" fill="white"/>
<path d="M375.834 134.543L375.072 134.65L390.885 247.866L391.646 247.759L375.834 134.543Z" fill="white"/>
<path d="M362.128 136.458L361.367 136.564L377.179 249.78L377.94 249.674L362.128 136.458Z" fill="white"/>
<path d="M348.423 138.372L347.661 138.478L363.473 251.694L364.235 251.588L348.423 138.372Z" fill="white"/>
<path d="M501.328 127.403L409.862 7.91296L243.708 135.099L335.175 254.589C335.503 255.018 335.989 255.299 336.525 255.371C337.06 255.442 337.603 255.297 338.032 254.969L500.949 130.26C501.378 129.932 501.659 129.446 501.73 128.91C501.801 128.375 501.657 127.833 501.328 127.403V127.403ZM253.455 138.332C253.006 137.745 252.741 137.038 252.694 136.301C252.646 135.563 252.818 134.828 253.189 134.189C253.559 133.549 254.111 133.034 254.774 132.708C255.437 132.382 256.182 132.259 256.914 132.357C257.647 132.454 258.334 132.766 258.889 133.254C259.444 133.742 259.842 134.384 260.033 135.098C260.223 135.812 260.198 136.566 259.959 137.266C259.721 137.965 259.28 138.579 258.694 139.028C258.304 139.326 257.859 139.545 257.385 139.671C256.911 139.798 256.417 139.829 255.93 139.765C255.444 139.7 254.975 139.54 254.55 139.294C254.126 139.049 253.754 138.722 253.455 138.332V138.332ZM268.56 126.77C268.111 126.183 267.846 125.476 267.798 124.738C267.751 124.001 267.923 123.266 268.294 122.626C268.664 121.987 269.215 121.471 269.879 121.145C270.542 120.819 271.287 120.697 272.019 120.794C272.752 120.892 273.439 121.204 273.994 121.692C274.549 122.18 274.947 122.821 275.138 123.536C275.328 124.25 275.302 125.004 275.064 125.704C274.826 126.403 274.385 127.016 273.798 127.465C273.409 127.764 272.964 127.982 272.49 128.109C272.016 128.235 271.522 128.267 271.035 128.202C270.549 128.138 270.08 127.978 269.655 127.732C269.231 127.486 268.858 127.159 268.56 126.77V126.77ZM283.665 115.207C283.216 114.62 282.951 113.914 282.903 113.176C282.856 112.439 283.028 111.704 283.398 111.064C283.769 110.424 284.32 109.909 284.983 109.583C285.647 109.257 286.392 109.135 287.124 109.232C287.857 109.329 288.544 109.642 289.099 110.13C289.654 110.618 290.052 111.259 290.242 111.973C290.433 112.687 290.407 113.442 290.169 114.141C289.931 114.841 289.49 115.454 288.903 115.903C288.514 116.201 288.069 116.42 287.595 116.546C287.121 116.673 286.627 116.705 286.14 116.64C285.654 116.575 285.185 116.416 284.76 116.17C284.335 115.924 283.963 115.597 283.665 115.207V115.207ZM298.77 103.645C298.321 103.058 298.056 102.351 298.008 101.614C297.961 100.876 298.133 100.141 298.503 99.5017C298.874 98.8621 299.425 98.3467 300.088 98.0206C300.751 97.6946 301.496 97.5724 302.229 97.6698C302.962 97.7671 303.649 98.0794 304.204 98.5674C304.759 99.0553 305.157 99.6968 305.347 100.411C305.538 101.125 305.512 101.879 305.274 102.579C305.035 103.278 304.595 103.892 304.008 104.341C303.619 104.639 303.174 104.858 302.7 104.984C302.226 105.11 301.731 105.142 301.245 105.078C300.759 105.013 300.29 104.853 299.865 104.607C299.44 104.362 299.068 104.035 298.77 103.645V103.645ZM313.875 92.0826C313.426 91.4957 313.161 90.7889 313.113 90.0514C313.066 89.3139 313.238 88.5789 313.608 87.9394C313.978 87.2998 314.53 86.7844 315.193 86.4583C315.856 86.1322 316.601 86.0101 317.334 86.1074C318.067 86.2047 318.754 86.5171 319.309 87.005C319.864 87.4929 320.262 88.1345 320.452 88.8485C320.643 89.5626 320.617 90.3171 320.379 91.0166C320.14 91.7161 319.7 92.3292 319.113 92.7784C318.723 93.0767 318.279 93.2953 317.805 93.4217C317.331 93.5482 316.836 93.58 316.35 93.5154C315.863 93.4508 315.395 93.291 314.97 93.0451C314.545 92.7993 314.173 92.4722 313.875 92.0826V92.0826ZM328.98 80.5202C328.531 79.9334 328.265 79.2266 328.218 78.4891C328.171 77.7516 328.343 77.0166 328.713 76.377C329.083 75.7375 329.635 75.222 330.298 74.896C330.961 74.5699 331.706 74.4478 332.439 74.5451C333.171 74.6424 333.859 74.9548 334.414 75.4427C334.969 75.9306 335.367 76.5721 335.557 77.2862C335.748 78.0003 335.722 78.7547 335.484 79.4543C335.245 80.1538 334.805 80.7669 334.218 81.2161C333.828 81.5143 333.384 81.7329 332.91 81.8594C332.436 81.9858 331.941 82.0177 331.455 81.953C330.968 81.8884 330.499 81.7286 330.075 81.4828C329.65 81.2369 329.278 80.9099 328.98 80.5202V80.5202ZM344.085 68.9579C343.635 68.3711 343.37 67.6642 343.323 66.9267C343.275 66.1893 343.448 65.4543 343.818 64.8147C344.188 64.1751 344.74 63.6597 345.403 63.3336C346.066 63.0075 346.811 62.8854 347.544 62.9828C348.276 63.0801 348.964 63.3924 349.519 63.8804C350.074 64.3683 350.472 65.0098 350.662 65.7239C350.852 66.4379 350.827 67.1924 350.588 67.8919C350.35 68.5914 349.91 69.2046 349.323 69.6537C348.933 69.952 348.489 70.1706 348.014 70.297C347.54 70.4235 347.046 70.4553 346.56 70.3907C346.073 70.3261 345.604 70.1663 345.18 69.9204C344.755 69.6746 344.383 69.3475 344.085 68.9579V68.9579ZM359.189 57.3956C358.74 56.8087 358.475 56.1019 358.428 55.3644C358.38 54.6269 358.553 53.8919 358.923 53.2523C359.293 52.6128 359.845 52.0974 360.508 51.7713C361.171 51.4452 361.916 51.3231 362.649 51.4204C363.381 51.5177 364.068 51.8301 364.623 52.318C365.178 52.8059 365.576 53.4475 365.767 54.1615C365.957 54.8756 365.932 55.6301 365.693 56.3296C365.455 57.0291 365.015 57.6422 364.428 58.0914C364.038 58.3897 363.593 58.6083 363.119 58.7347C362.645 58.8612 362.151 58.893 361.664 58.8284C361.178 58.7637 360.709 58.604 360.284 58.3581C359.86 58.1123 359.488 57.7852 359.189 57.3956V57.3956ZM374.294 45.8332C373.845 45.2464 373.58 44.5396 373.533 43.8021C373.485 43.0646 373.657 42.3296 374.028 41.69C374.398 41.0504 374.95 40.535 375.613 40.2089C376.276 39.8829 377.021 39.7608 377.753 39.8581C378.486 39.9554 379.173 40.2678 379.728 40.7557C380.283 41.2436 380.681 41.8851 380.872 42.5992C381.062 43.3132 381.037 44.0677 380.798 44.7673C380.56 45.4668 380.119 46.0799 379.533 46.5291C379.143 46.8273 378.698 47.0459 378.224 47.1724C377.75 47.2988 377.256 47.3306 376.769 47.266C376.283 47.2014 375.814 47.0416 375.389 46.7958C374.965 46.5499 374.593 46.2229 374.294 45.8332V45.8332ZM389.399 34.2709C388.95 33.6841 388.685 32.9772 388.637 32.2397C388.59 31.5022 388.762 30.7672 389.133 30.1277C389.503 29.4881 390.054 28.9727 390.718 28.6466C391.381 28.3205 392.126 28.1984 392.858 28.2957C393.591 28.3931 394.278 28.7054 394.833 29.1933C395.388 29.6812 395.786 30.3228 395.977 31.0368C396.167 31.7509 396.141 32.5054 395.903 33.2049C395.665 33.9044 395.224 34.5175 394.637 34.9667C394.248 35.265 393.803 35.4836 393.329 35.61C392.855 35.7365 392.361 35.7683 391.874 35.7037C391.388 35.6391 390.919 35.4793 390.494 35.2334C390.07 34.9876 389.697 34.6605 389.399 34.2709V34.2709ZM404.504 22.7085C404.055 22.1217 403.79 21.4149 403.742 20.6774C403.695 19.9399 403.867 19.2049 404.237 18.5653C404.608 17.9258 405.159 17.4103 405.822 17.0843C406.486 16.7582 407.231 16.6361 407.963 16.7334C408.696 16.8307 409.383 17.1431 409.938 17.631C410.493 18.1189 410.891 18.7605 411.081 19.4745C411.272 20.1886 411.246 20.9431 411.008 21.6426C410.77 22.3421 410.329 22.9552 409.742 23.4044C409.353 23.7027 408.908 23.9212 408.434 24.0477C407.96 24.1741 407.465 24.206 406.979 24.1413C406.493 24.0767 406.024 23.9169 405.599 23.6711C405.174 23.4253 404.802 23.0982 404.504 22.7085V22.7085Z" fill="#3F3D56"/>
<path d="M400.691 14.933C400.078 14.1324 394.741 7.08188 396.052 6.07847C397.363 5.07505 402.775 12.0676 403.388 12.8683L402.849 13.2812C399.683 9.14561 397.167 6.81838 396.49 6.65157C396.475 7.34847 398.065 10.3844 401.23 14.52C404.389 18.6464 406.9 20.9724 407.584 21.1485C407.571 20.8253 407.226 19.7305 405.665 17.2794L406.238 16.9145C408.883 21.0677 408.261 21.5437 408.027 21.7228C406.716 22.7262 401.304 15.7336 400.691 14.933Z" fill="#FF9800"/>
<path d="M385.856 26.2888C385.243 25.4882 379.906 18.4377 381.217 17.4343C382.528 16.4309 387.94 23.4235 388.553 24.2241L388.014 24.6371C384.848 20.5015 382.332 18.1743 381.655 18.0074C381.64 18.7043 383.23 21.7403 386.395 25.8759C389.554 30.0023 392.065 32.3283 392.749 32.5044C392.736 32.1812 392.391 31.0864 390.83 28.6353L391.403 28.2704C394.048 32.4236 393.426 32.8995 393.192 33.0787C391.881 34.0821 386.469 27.0895 385.856 26.2888Z" fill="#FF9800"/>
<path d="M370.751 37.8512C370.138 37.0505 364.801 30.0001 366.112 28.9967C367.423 27.9932 372.835 34.9858 373.448 35.7865L372.909 36.1994C369.743 32.0638 367.227 29.7366 366.551 29.5698C366.535 30.2667 368.125 33.3026 371.29 37.4382C374.449 41.5646 376.96 43.8906 377.644 44.0667C377.631 43.7435 377.286 42.6487 375.725 40.1976L376.298 39.8327C378.943 43.9859 378.321 44.4619 378.087 44.641C376.776 45.6444 371.364 38.6518 370.751 37.8512Z" fill="#FF9800"/>
<path d="M355.646 49.4135C355.033 48.6129 349.696 41.5624 351.007 40.559C352.318 39.5556 357.73 46.5482 358.343 47.3488L357.804 47.7618C354.638 43.6261 352.122 41.2989 351.446 41.1321C351.43 41.829 353.02 44.865 356.185 49.0006C359.344 53.127 361.855 55.4529 362.539 55.6291C362.526 55.3058 362.181 54.211 360.62 51.76L361.193 51.3951C363.838 55.5482 363.216 56.0242 362.982 56.2033C361.671 57.2068 356.259 50.2141 355.646 49.4135Z" fill="#FF9800"/>
<path d="M340.541 60.9758C339.928 60.1752 334.591 53.1247 335.902 52.1213C337.213 51.1179 342.625 58.1105 343.238 58.9111L342.699 59.3241C339.533 55.1885 337.017 52.8612 336.341 52.6944C336.325 53.3913 337.915 56.4273 341.08 60.5629C344.239 64.6893 346.75 67.0153 347.434 67.1914C347.421 66.8682 347.076 65.7734 345.515 63.3223L346.088 62.9574C348.733 67.1106 348.111 67.5865 347.877 67.7657C346.566 68.7691 341.154 61.7765 340.541 60.9758Z" fill="#FF9800"/>
<path d="M325.436 72.5382C324.823 71.7375 319.487 64.6871 320.797 63.6837C322.108 62.6803 327.521 69.6729 328.134 70.4735L327.594 70.8864C324.428 66.7508 321.913 64.4236 321.236 64.2568C321.22 64.9537 322.81 67.9896 325.976 72.1252C329.134 76.2516 331.646 78.5776 332.329 78.7537C332.317 78.4305 331.971 77.3357 330.41 74.8846L330.983 74.5197C333.628 78.6729 333.007 79.1489 332.773 79.328C331.462 80.3314 326.049 73.3388 325.436 72.5382Z" fill="#FF9800"/>
<path d="M310.331 84.1005C309.718 83.2999 304.382 76.2494 305.692 75.246C307.003 74.2426 312.416 81.2352 313.029 82.0358L312.489 82.4488C309.324 78.3132 306.808 75.9859 306.131 75.8191C306.115 76.516 307.705 79.552 310.871 83.6876C314.029 87.814 316.541 90.1399 317.224 90.3161C317.212 89.9929 316.866 88.898 315.305 86.447L315.878 86.0821C318.523 90.2352 317.902 90.7112 317.668 90.8903C316.357 91.8938 310.944 84.9011 310.331 84.1005Z" fill="#FF9800"/>
<path d="M295.226 95.6628C294.614 94.8622 289.277 87.8118 290.587 86.8083C291.898 85.8049 297.311 92.7975 297.924 93.5981L297.384 94.0111C294.219 89.8755 291.703 87.5483 291.026 87.3814C291.01 88.0783 292.6 91.1143 295.766 95.2499C298.924 99.3763 301.436 101.702 302.119 101.878C302.107 101.555 301.761 100.46 300.2 98.0093L300.773 97.6444C303.418 101.798 302.797 102.274 302.563 102.453C301.252 103.456 295.839 96.4635 295.226 95.6628Z" fill="#FF9800"/>
<path d="M280.122 107.225C279.509 106.425 274.172 99.3741 275.483 98.3707C276.794 97.3673 282.206 104.36 282.819 105.16L282.28 105.573C279.114 101.438 276.598 99.1106 275.922 98.9438C275.906 99.6407 277.496 102.677 280.661 106.812C283.82 110.939 286.332 113.265 287.015 113.441C287.002 113.118 286.657 112.023 285.096 109.572L285.669 109.207C288.314 113.36 287.692 113.836 287.458 114.015C286.147 115.018 280.735 108.026 280.122 107.225Z" fill="#FF9800"/>
<path d="M265.016 118.788C264.404 117.987 259.067 110.936 260.377 109.933C261.688 108.93 267.101 115.922 267.714 116.723L267.174 117.136C264.009 113 261.493 110.673 260.816 110.506C260.8 111.203 262.39 114.239 265.556 118.375C268.715 122.501 271.226 124.827 271.909 125.003C271.897 124.68 271.551 123.585 269.99 121.134L270.563 120.769C273.209 124.922 272.587 125.398 272.353 125.577C271.042 126.581 265.629 119.588 265.016 118.788Z" fill="#FF9800"/>
<path d="M249.912 130.35C249.299 129.549 243.962 122.499 245.273 121.495C246.584 120.492 251.996 127.485 252.609 128.285L252.07 128.698C248.904 124.563 246.388 122.235 245.712 122.068C245.696 122.765 247.286 125.801 250.451 129.937C253.61 134.063 256.122 136.389 256.805 136.565C256.792 136.242 256.447 135.147 254.886 132.696L255.459 132.331C258.104 136.485 257.482 136.961 257.248 137.14C255.937 138.143 250.525 131.151 249.912 130.35Z" fill="#FF9800"/>
<path d="M419.121 151.616L373.697 92.2759C373.342 91.8107 373.186 91.2235 373.263 90.6432C373.34 90.0629 373.644 89.5369 374.109 89.1806L397.305 71.4242C397.771 71.0689 398.358 70.9126 398.938 70.9897C399.518 71.0668 400.044 71.3709 400.401 71.8353L445.824 131.176C446.179 131.641 446.336 132.228 446.259 132.809C446.181 133.389 445.877 133.915 445.413 134.271L422.216 152.028C421.751 152.383 421.164 152.539 420.583 152.462C420.003 152.385 419.477 152.081 419.121 151.616V151.616Z" fill="white"/>
<path d="M420.937 115.149L409.375 100.044C409.101 99.6864 408.98 99.2346 409.04 98.7881C409.099 98.3416 409.333 97.9369 409.691 97.6631C410.049 97.3893 410.5 97.2688 410.947 97.3281C411.393 97.3875 411.798 97.6217 412.072 97.9794L423.634 113.084C423.908 113.442 424.029 113.894 423.969 114.34C423.91 114.787 423.676 115.191 423.318 115.465C422.96 115.739 422.508 115.86 422.062 115.8C421.615 115.741 421.211 115.507 420.937 115.149L420.937 115.149Z" fill="#6C63FF"/>
<path d="M420.594 128.672L396.231 96.8443C395.957 96.4866 395.836 96.0348 395.896 95.5883C395.955 95.1417 396.189 94.7371 396.547 94.4633C396.905 94.1895 397.356 94.069 397.803 94.1283C398.249 94.1876 398.654 94.4219 398.928 94.7796L423.291 126.608C423.565 126.965 423.686 127.417 423.626 127.864C423.567 128.31 423.333 128.715 422.975 128.989C422.617 129.262 422.166 129.383 421.719 129.324C421.273 129.264 420.868 129.03 420.594 128.672Z" fill="#6C63FF"/>
<path d="M413.851 133.834L389.487 102.006C389.214 101.648 389.093 101.197 389.152 100.75C389.212 100.303 389.446 99.8988 389.804 99.625C390.161 99.3512 390.613 99.2307 391.06 99.29C391.506 99.3494 391.911 99.5836 392.185 99.9413L416.548 131.769C416.822 132.127 416.942 132.579 416.883 133.025C416.824 133.472 416.59 133.877 416.232 134.15C415.874 134.424 415.422 134.545 414.976 134.485C414.529 134.426 414.125 134.192 413.851 133.834Z" fill="#6C63FF"/>
</g>
<g clip-path="url(#clip1)">
<path d="M355.388 447.753L312.163 392.04L292.575 407.238L297.378 413.428L287.584 421.027L321.204 464.359L330.998 456.76L335.801 462.951L355.388 447.753Z" fill="url(#paint0_linear)"/>
<path d="M472.884 314.968L405.794 367.021C408.968 375.243 409.188 379.752 406.101 384.776C403.3 389.252 399.235 392.797 394.42 394.963C389.099 397.406 385.195 397.337 379.712 393.153C376.591 390.798 374.055 387.756 372.299 384.262C368.129 375.839 370.119 368.166 378.343 361.786C386.212 355.68 392.485 355.142 400.736 360.647L413.335 350.872L467.971 307.966L344.338 316.371C344.338 316.371 342.77 359.476 308.004 401.772L342.488 446.218C342.488 446.218 401.846 421.601 431.228 434.579L472.884 314.968Z" fill="url(#paint1_linear)"/>
<path d="M470.375 318.492L408.118 366.795C410.692 371.598 411.427 377.174 410.184 382.48C408.942 387.786 405.808 392.456 401.369 395.617C396.931 398.778 391.492 400.213 386.072 399.652C380.652 399.091 375.622 396.574 371.924 392.571C368.227 388.568 366.116 383.355 365.986 377.907C365.856 372.459 367.717 367.151 371.219 362.977C374.722 358.803 379.626 356.049 385.014 355.23C390.401 354.412 395.902 355.586 400.486 358.532L463.505 309.637L347.812 318.994C347.812 318.994 344.808 363.883 310.353 404.806L340.133 443.189C340.133 443.189 401.775 419.006 429.607 430.517L470.375 318.492Z" fill="#ECEFF1"/>
<path d="M336.52 450.718L304.455 409.39L289.697 420.841L321.762 462.169L336.52 450.718Z" fill="#6C63FF"/>
<path d="M352.912 447.46L311.686 394.325L293.974 408.067L335.2 461.203L352.912 447.46Z" fill="#6C63FF"/>
<path opacity="0.2" d="M352.912 447.46L311.686 394.325L293.974 408.067L335.2 461.203L352.912 447.46Z" fill="black"/>
</g>
<defs>
<linearGradient id="paint0_linear" x1="304.394" y1="442.693" x2="333.775" y2="419.897" gradientUnits="userSpaceOnUse">
<stop stop-color="#808080" stop-opacity="0.25"/>
<stop offset="0.54" stop-color="#808080" stop-opacity="0.12"/>
<stop offset="1" stop-color="#808080" stop-opacity="0.1"/>
</linearGradient>
<linearGradient id="paint1_linear" x1="-48909" y1="147337" x2="16697.6" y2="96435.2" gradientUnits="userSpaceOnUse">
<stop stop-color="#008081"/>
<stop offset="0.54" stop-color="#808080" stop-opacity="0.12"/>
<stop offset="1" stop-color="#808080" stop-opacity="0.1"/>
</linearGradient>
<clipPath id="clip0">
<rect width="255.959" height="212.164" fill="white" transform="translate(403.874 0.0908203) rotate(52.567)"/>
</clipPath>
<clipPath id="clip1">
<rect width="147.008" height="212.164" fill="white" transform="translate(425.76 253.182) rotate(52.1933)"/>
</clipPath>
</defs>
</svg>
