<svg width="582" height="450" viewBox="0 0 582 450" fill="none" xmlns="http://www.w3.org/2000/svg">
<g clip-path="url(#clip0)">
<path d="M512.144 255.403L524.854 242.686C523.696 234.256 522.063 225.898 519.964 217.651L512.72 221.318L519.228 214.807C516.531 204.635 514.101 198.07 514.101 198.07C514.101 198.07 488.485 224.157 475.246 254.747L483.449 276.312L472.226 262.449C470.946 266.069 469.895 269.765 469.079 273.517C460.979 311.368 466.775 344.697 482.024 347.961C497.273 351.224 516.202 323.185 524.302 285.334C526.813 273.6 526.786 260.755 525.554 248.615L512.144 255.403Z" fill="#008081"/>
<path d="M549.915 281.818L567.369 277.501C570.736 269.686 573.658 261.687 576.124 253.542L568.028 252.937L576.964 250.727C579.913 240.625 581.226 233.749 581.226 233.749C581.226 233.749 545.814 242.84 518.668 262.183L514.544 284.884L512.102 267.215C509.135 269.652 506.325 272.273 503.687 275.063C477.188 303.278 464.921 334.806 476.288 345.482C487.655 356.158 518.352 341.94 544.852 313.724C553.067 304.977 559.683 293.967 564.903 282.938L549.915 281.818Z" fill="#008081"/>
<path d="M383.334 125.02L387.622 91.3663C376.161 80.121 364.074 69.5311 351.42 59.647L344.842 73.4822L347.038 56.2515C331.27 44.1849 320.064 37.1926 320.064 37.1926C320.064 37.1926 311.95 105.699 327.507 166.638L364.646 189.353L331.891 181.62C334.16 188.5 336.858 195.23 339.972 201.771C371.581 267.615 418.71 310.668 445.237 297.934C471.764 285.199 467.644 221.499 436.034 155.655C426.235 135.243 411.365 116.104 395.511 99.4075L383.334 125.02Z" fill="#008081"/>
<path d="M470.201 120.837L491.267 94.2441C487.269 78.6932 482.396 63.3803 476.673 48.3782L463.891 56.8216L474.677 43.2062C467.415 24.726 461.437 12.9478 461.437 12.9478C461.437 12.9478 419.081 67.3982 400.898 127.607L420.95 166.249L396.907 142.698C395.293 149.76 394.124 156.917 393.408 164.125C386.433 236.83 404.523 298.046 433.814 300.856C463.104 303.667 492.504 247.007 499.48 174.302C501.642 151.763 498.806 127.694 493.865 105.206L470.201 120.837Z" fill="#008081"/>
<path d="M81.851 129.966L79.72 94.6546C65.7972 85.355 51.361 76.8481 36.48 69.1744L32.4227 84.6246L31.3317 66.545C12.8369 57.239 0 52.2474 0 52.2474C0 52.2474 4.96804 124.009 32.7213 183.429L75.176 199.502L40.1174 197.929C43.7753 204.538 47.8452 210.911 52.3031 217.009C97.4535 278.342 154.086 313.316 178.796 295.126C203.506 276.936 186.935 212.47 141.785 151.137C127.788 132.123 108.842 115.397 89.362 101.364L81.851 129.966Z" fill="#008081"/>
<path d="M170.041 108.84L186.469 77.5099C179.358 62.3523 171.397 47.6078 162.625 33.3468L151.165 44.4757L159.577 28.4349C148.555 10.9084 140.146 0 140.146 0C140.146 0 107.305 63.999 100.348 129.211L128.383 164.915L99.1849 145.447C98.8999 152.995 99.09 160.554 99.7541 168.079C106.702 243.921 137.104 303.134 167.659 300.335C198.214 297.536 217.351 233.784 210.404 157.942C208.25 134.431 200.677 110.319 191.255 88.2372L170.041 108.84Z" fill="#008081"/>
<path d="M261.949 425.86C273.914 425.86 283.613 423.088 283.613 419.67C283.613 416.251 273.914 413.48 261.949 413.48C249.984 413.48 240.285 416.251 240.285 419.67C240.285 423.088 249.984 425.86 261.949 425.86Z" fill="#008081"/>
<path d="M497.782 450C509.747 450 519.446 447.229 519.446 443.81C519.446 440.392 509.747 437.62 497.782 437.62C485.817 437.62 476.117 440.392 476.117 443.81C476.117 447.229 485.817 450 497.782 450Z" fill="#008081"/>
<path d="M542.968 399.243C554.933 399.243 564.632 396.472 564.632 393.054C564.632 389.635 554.933 386.864 542.968 386.864C531.003 386.864 521.303 389.635 521.303 393.054C521.303 396.472 531.003 399.243 542.968 399.243Z" fill="#008081"/>
<path d="M454.143 381.293C463.202 381.293 470.546 379.195 470.546 376.606C470.546 374.018 463.202 371.92 454.143 371.92C445.084 371.92 437.74 374.018 437.74 376.606C437.74 379.195 445.084 381.293 454.143 381.293Z" fill="#008081"/>
<path d="M98.8473 376.872C104.83 376.872 109.68 375.367 109.68 373.512C109.68 371.656 104.83 370.151 98.8473 370.151C92.8649 370.151 88.0151 371.656 88.0151 373.512C88.0151 375.367 92.8649 376.872 98.8473 376.872Z" fill="#008081"/>
<path d="M56.1376 414.63C62.1201 414.63 66.9698 413.125 66.9698 411.269C66.9698 409.414 62.1201 407.909 56.1376 407.909C50.1552 407.909 45.3054 409.414 45.3054 411.269C45.3054 413.125 50.1552 414.63 56.1376 414.63Z" fill="#008081"/>
<path d="M56.1376 355.207C62.1201 355.207 66.9698 353.703 66.9698 351.847C66.9698 349.991 62.1201 348.487 56.1376 348.487C50.1552 348.487 45.3054 349.991 45.3054 351.847C45.3054 353.703 50.1552 355.207 56.1376 355.207Z" fill="#008081"/>
<path d="M519.986 362.695L415.031 358.982L359.682 364.261L265.12 373.28L229.535 376.672L147.123 404.155C146.792 404.265 146.437 404.279 146.099 404.196C145.76 404.112 145.452 403.935 145.21 403.683C144.969 403.432 144.803 403.117 144.733 402.775C144.663 402.434 144.691 402.079 144.814 401.753L144.821 401.747L159.113 363.946L157.609 362.838L118.279 333.937L118.068 333.783L67.0703 326.008C66.3523 325.898 65.6743 325.607 65.1 325.162C64.5258 324.717 64.0743 324.133 63.7882 323.466C63.502 322.798 63.3907 322.069 63.4646 321.346C63.5385 320.623 63.7952 319.932 64.2106 319.336L141.88 207.882L182.696 149.326L187.122 142.969L356.909 140.623L522.678 357.484C523.052 357.972 523.278 358.556 523.332 359.169C523.386 359.781 523.265 360.396 522.983 360.942C522.701 361.489 522.269 361.943 521.739 362.254C521.208 362.564 520.6 362.717 519.986 362.695Z" fill="#FF9800"/>
<path opacity="0.2" d="M226.894 152.014L157.607 362.838L118.281 333.938L141.882 207.883L182.579 149.186L182.695 149.323L226.894 152.014Z" fill="black"/>
<path d="M165.046 232.777C157.185 251.677 154.401 267.463 145.076 264.613C132.309 260.71 145.714 246.906 153.576 228.006C161.438 209.106 166.992 194.608 173.546 196.17C185.764 199.083 172.908 213.878 165.046 232.777Z" fill="#3F3D56"/>
<path d="M182.86 194.946C182.858 193.696 182.609 192.457 182.129 191.303C181.648 190.148 180.945 189.099 180.059 188.216C179.173 187.333 178.122 186.633 176.966 186.156C175.809 185.679 174.57 185.435 173.32 185.437C173.105 185.437 172.892 185.447 172.681 185.462L163.693 184.353C162.661 183.985 161.574 183.798 160.479 183.801C160.177 183.802 159.878 183.818 159.583 183.846L159.237 183.803L159.228 183.888C157.118 184.171 155.164 185.152 153.678 186.675C152.191 188.199 151.258 190.176 151.026 192.291C150.795 194.407 151.278 196.539 152.4 198.348C153.522 200.157 155.217 201.538 157.215 202.27L157.196 202.442L158.08 202.541C158.874 202.748 159.69 202.852 160.51 202.851C160.601 202.85 160.691 202.846 160.781 202.843L169.969 203.873C171.049 204.281 172.195 204.489 173.35 204.486C173.781 204.485 174.211 204.455 174.637 204.395L175.421 204.483L175.425 204.254C177.538 203.778 179.425 202.597 180.777 200.905C182.128 199.213 182.863 197.112 182.86 194.946Z" fill="#FF9800"/>
<path opacity="0.2" d="M182.86 194.946C182.858 193.696 182.609 192.457 182.129 191.303C181.648 190.148 180.945 189.099 180.059 188.216C179.173 187.333 178.122 186.633 176.966 186.156C175.809 185.679 174.57 185.435 173.32 185.437C173.105 185.437 172.892 185.447 172.681 185.462L163.693 184.353C162.661 183.985 161.574 183.798 160.479 183.801C160.177 183.802 159.878 183.818 159.583 183.846L159.237 183.803L159.228 183.888C157.118 184.171 155.164 185.152 153.678 186.675C152.191 188.199 151.258 190.176 151.026 192.291C150.795 194.407 151.278 196.539 152.4 198.348C153.522 200.157 155.217 201.538 157.215 202.27L157.196 202.442L158.08 202.541C158.874 202.748 159.69 202.852 160.51 202.851C160.601 202.85 160.691 202.846 160.781 202.843L169.969 203.873C171.049 204.281 172.195 204.489 173.35 204.486C173.781 204.485 174.211 204.455 174.637 204.395L175.421 204.483L175.425 204.254C177.538 203.778 179.425 202.597 180.777 200.905C182.128 199.213 182.863 197.112 182.86 194.946Z" fill="white"/>
<path d="M55.6549 325.06L54.5548 324.483C82.7337 270.774 162.434 156.02 163.236 154.867L164.256 155.576C163.455 156.728 83.798 271.42 55.6549 325.06Z" fill="#3F3D56"/>
<path d="M141.971 405.549L140.772 405.223C141.353 403.089 199.071 191.371 219.111 155.656L220.195 156.264C200.229 191.846 142.551 403.416 141.971 405.549Z" fill="#3F3D56"/>
<path d="M527.563 364.503C496.792 313.813 380.587 156.823 379.417 155.243L380.415 154.504C381.586 156.084 497.824 313.12 528.625 363.858L527.563 364.503Z" fill="#3F3D56"/>
<path d="M139.734 411.185C142.136 411.181 144.078 408.675 144.073 405.587C144.068 402.499 142.118 400 139.716 400.003C137.315 400.007 135.372 402.513 135.377 405.601C135.382 408.689 137.333 411.188 139.734 411.185Z" fill="#3F3D56"/>
<path d="M55.9376 327.462C58.3391 327.458 60.2819 324.952 60.2769 321.864C60.2719 318.777 58.3211 316.277 55.9197 316.281C53.5182 316.285 51.5754 318.791 51.5804 321.878C51.5854 324.966 53.5362 327.466 55.9376 327.462Z" fill="#3F3D56"/>
<path d="M528.715 367.292C531.117 367.289 533.059 364.782 533.054 361.695C533.049 358.607 531.099 356.107 528.697 356.111C526.296 356.115 524.353 358.621 524.358 361.709C524.363 364.796 526.314 367.296 528.715 367.292Z" fill="#3F3D56"/>
<path d="M158.406 161.033L392.766 163.545C392.603 144.404 384.883 126.103 371.287 112.629C357.692 99.1552 339.322 91.6 320.181 91.6095L230.74 91.7534C193.33 91.8136 161.652 121.07 158.624 158.357L158.406 161.033Z" fill="#3F3D56"/>
<path opacity="0.2" d="M364.324 238.503H278.669C277.626 238.502 276.594 238.708 275.631 239.109C274.669 239.511 273.795 240.1 273.062 240.841C272.329 241.583 271.751 242.463 271.361 243.43C270.97 244.397 270.776 245.432 270.789 246.475L270.864 252.739L271.625 319.8L271.637 321.094L271.662 323.229L271.687 325.315L271.829 337.887C271.853 339.932 272.67 341.889 274.109 343.343C275.549 344.797 277.496 345.635 279.542 345.68C279.752 345.68 279.969 345.673 280.186 345.661L300.525 344.423L329.952 342.628L340.338 341.997L342.653 341.854L358.84 340.87H358.846L364.8 340.505C366.803 340.381 368.684 339.498 370.059 338.036C371.434 336.575 372.201 334.644 372.203 332.638V246.382C372.201 244.293 371.37 242.29 369.893 240.813C368.416 239.336 366.413 238.505 364.324 238.503Z" fill="black"/>
<path d="M381.963 227.55C381.653 227.575 381.352 227.667 381.083 227.822C380.813 227.977 380.581 228.189 380.403 228.444L370.966 228.459V225.956C370.963 223.867 370.133 221.864 368.655 220.387C367.178 218.909 365.175 218.079 363.086 218.076H277.431C276.388 218.075 275.356 218.282 274.393 218.683C273.431 219.084 272.558 219.673 271.824 220.415C271.091 221.157 270.513 222.037 270.123 223.004C269.733 223.971 269.538 225.006 269.552 226.049L269.582 228.622L263.495 228.632C263.162 228.277 262.704 228.064 262.217 228.04C260.084 228.043 258.362 232.702 258.371 238.446C258.38 244.189 260.117 248.843 262.251 248.839C262.622 248.799 262.979 248.669 263.29 248.462C263.601 248.254 263.858 247.975 264.038 247.648L380.434 247.46C380.613 247.715 380.845 247.926 381.115 248.08C381.386 248.234 381.686 248.326 381.996 248.349C384.13 248.346 385.851 243.687 385.842 237.943C385.833 232.2 384.096 227.546 381.963 227.55Z" fill="#FF9800"/>
<path opacity="0.2" d="M381.962 227.55C381.652 227.575 381.352 227.667 381.082 227.822C380.813 227.977 380.581 228.189 380.403 228.444L370.965 228.459V225.956C370.963 223.867 370.132 221.864 368.655 220.387C367.177 218.909 365.174 218.079 363.085 218.076H277.431C276.388 218.075 275.355 218.282 274.393 218.683C273.43 219.085 272.557 219.673 271.824 220.415C271.091 221.157 270.512 222.037 270.122 223.004C269.732 223.971 269.538 225.006 269.551 226.049L269.581 228.622L263.495 228.632C263.161 228.277 262.703 228.064 262.216 228.04C260.083 228.043 258.361 232.702 258.37 238.446C258.38 244.189 260.117 248.843 262.25 248.839C262.622 248.799 262.978 248.669 263.289 248.462C263.6 248.254 263.857 247.975 264.038 247.648L380.433 247.46C380.612 247.715 380.845 247.926 381.115 248.08C381.385 248.234 381.686 248.326 381.995 248.349C384.129 248.346 385.851 243.687 385.842 237.943C385.832 232.2 384.095 227.546 381.962 227.55Z" fill="white"/>
<path d="M372.374 359.045C371.807 359.576 371.125 359.968 370.381 360.191C369.637 360.414 368.852 360.462 368.087 360.331C367.321 360.201 366.596 359.895 365.969 359.437C365.341 358.98 364.828 358.383 364.47 357.695L359.813 348.754L361.665 344.74L371.648 351.129C372.294 351.542 372.837 352.098 373.236 352.753C373.635 353.408 373.878 354.146 373.948 354.91C374.018 355.673 373.913 356.443 373.64 357.16C373.367 357.877 372.934 358.522 372.374 359.045Z" fill="#FFB8B8"/>
<path d="M392.489 411.211C392.379 410.178 391.887 409.224 391.109 408.535C390.332 407.846 389.325 407.472 388.286 407.486C387.34 407.48 386.419 407.791 385.671 408.371C384.923 408.951 384.391 409.765 384.162 410.683L380.038 430.71C379.902 431.295 379.831 431.894 379.827 432.495C379.827 437.011 383.607 440.15 388.286 440.15C392.965 440.15 396.747 437.011 396.747 432.495C396.745 431.772 396.646 431.052 396.455 430.354L392.489 411.211Z" fill="#3F3D56"/>
<path d="M423.685 420.169C423.266 419.801 422.814 419.471 422.337 419.183L406.582 408.173C405.048 407.21 403.409 407.237 402.22 408.399C401.7 408.893 401.371 409.554 401.288 410.266C401.205 410.978 401.374 411.697 401.766 412.297L413.663 427.932C413.934 428.311 414.238 428.666 414.569 428.994C416.631 431.299 421.204 431.426 423.717 428.994C426.196 426.522 426.166 422.117 423.685 420.169Z" fill="#3F3D56"/>
<path d="M435.524 403.858H419.568C419.056 403.839 418.558 404.022 418.181 404.369C417.804 404.715 417.579 405.196 417.555 405.707C417.547 406.179 417.697 406.639 417.981 407.016C418.266 407.392 418.668 407.662 419.124 407.783L434.176 412.44C436.363 412.949 439.309 411.001 439.309 408.567C439.309 405.472 437.586 403.858 435.524 403.858Z" fill="#3F3D56"/>
<path d="M359.597 405.698C359.581 405.435 359.512 405.178 359.394 404.942C359.277 404.706 359.114 404.496 358.915 404.324C358.715 404.152 358.484 404.021 358.233 403.94C357.983 403.858 357.718 403.827 357.456 403.849H341.499C339.489 403.849 337.794 406.02 337.794 408.453C337.794 410.887 340.654 412.949 342.847 412.439L358.127 407.783C358.585 407.676 358.988 407.405 359.259 407.021C359.53 406.636 359.651 406.166 359.597 405.698Z" fill="#3F3D56"/>
<path d="M370.548 408.191L354.788 419.153C354.299 419.429 353.843 419.76 353.429 420.139C352.27 421.217 351.587 422.711 351.53 424.292C351.472 425.873 352.045 427.413 353.123 428.571C353.221 428.677 353.323 428.778 353.429 428.877C354.665 430.044 356.301 430.695 358.001 430.695C359.702 430.695 361.338 430.044 362.574 428.877C362.911 428.554 363.214 428.199 363.48 427.816L375.386 412.269C375.784 411.677 375.958 410.962 375.875 410.253C375.792 409.544 375.457 408.888 374.932 408.404C374.345 407.856 373.582 407.533 372.779 407.494C371.976 407.455 371.186 407.702 370.548 408.191Z" fill="#3F3D56"/>
<path d="M395.062 386.766C395.245 386.498 395.347 386.182 395.355 385.856C395.355 383.937 391.573 382.603 386.893 382.603C382.214 382.603 378.435 383.937 378.435 385.856C378.441 386.123 378.514 386.384 378.645 386.615L382.769 395.126C383.242 395.929 384.946 396.491 386.893 396.485C389.089 396.485 390.913 395.791 391.097 394.902L395.062 386.766Z" fill="#3F3D56"/>
<path d="M422.324 387.344C419.811 386.311 415.238 386.365 413.176 387.344C412.864 387.474 412.561 387.625 412.27 387.796L400.373 394.441C399.565 394.967 399.755 395.664 400.827 396.097C402.235 396.585 403.76 396.619 405.189 396.193L420.944 391.514C421.4 391.398 421.85 391.258 422.292 391.095C424.773 390.267 424.803 388.395 422.324 387.344Z" fill="#3F3D56"/>
<path d="M437.916 396.026C437.916 394.991 434.97 394.163 432.783 394.38L417.731 396.359C416.831 396.485 416.163 396.778 416.163 397.241C416.163 397.704 417.144 398.027 418.175 398.027H434.132C436.194 398.027 437.916 397.341 437.916 396.026Z" fill="#3F3D56"/>
<path d="M356.734 396.359L341.454 394.38C339.261 394.163 336.401 395.04 336.401 396.074C336.401 397.108 338.096 398.031 340.106 398.031H356.063C357.173 398.031 358.204 397.726 358.204 397.245C358.204 396.763 357.729 396.485 356.734 396.359Z" fill="#3F3D56"/>
<path d="M373.54 396.095C374.655 395.655 374.787 394.99 373.994 394.452L362.088 387.845C361.799 387.67 361.496 387.52 361.182 387.394C358.221 386.364 354.998 386.364 352.037 387.394C351.931 387.436 351.829 387.479 351.731 387.524C349.487 388.55 349.624 390.154 352.037 391.108C352.48 391.278 352.934 391.418 353.396 391.527L369.156 396.186C370.591 396.612 372.124 396.58 373.54 396.095Z" fill="#3F3D56"/>
<path d="M419.348 385.389C419.348 410.001 405.631 410.456 388.709 410.456C371.788 410.456 344.008 405.587 358.071 385.389C372.904 364.085 398.351 323.478 388.709 321.327C388.709 321.327 419.348 360.776 419.348 385.389Z" fill="#FF6584"/>
<path opacity="0.5" d="M399.5 400.534C399.5 410.276 394.07 410.456 387.372 410.456C380.674 410.456 369.677 408.529 375.244 400.534C381.116 392.101 391.188 376.027 387.372 375.176C387.372 375.176 399.5 390.791 399.5 400.534Z" fill="#FF6584"/>
<path d="M372.203 328.237V332.638C372.201 334.644 371.434 336.575 370.059 338.036C368.683 339.498 366.803 340.381 364.8 340.505L280.185 345.661C279.12 345.726 278.052 345.574 277.047 345.214C276.042 344.854 275.121 344.294 274.339 343.566C273.558 342.839 272.932 341.961 272.501 340.984C272.069 340.008 271.841 338.954 271.829 337.887L271.625 319.8L322.808 318.97L372.203 328.237Z" fill="#3F3D56"/>
<path d="M358.406 350.036L320.232 330.209C320.056 330.118 319.901 329.99 319.779 329.834C319.656 329.678 319.568 329.498 319.52 329.306L311.239 295.932C310.758 293.995 311.018 291.949 311.967 290.194C312.915 288.438 314.485 287.1 316.368 286.441L318.363 285.743C318.807 285.587 319.279 285.525 319.749 285.559C320.219 285.593 320.677 285.723 321.095 285.941C321.512 286.159 321.881 286.461 322.177 286.827C322.473 287.194 322.691 287.617 322.817 288.071L330.979 317.454C331.056 317.729 331.214 317.974 331.434 318.156L362.537 343.926C362.805 344.149 362.981 344.463 363.029 344.808C363.077 345.153 362.995 345.504 362.799 345.792L360.203 349.585C360.01 349.866 359.721 350.068 359.39 350.151C359.059 350.234 358.709 350.193 358.406 350.036Z" fill="#008081"/>
<path d="M333.258 298.114C314.744 288.367 295.363 283.472 274.591 286.381C280.852 275.769 285.503 265.957 285.192 258.612C285.058 256.252 285.505 253.895 286.494 251.747C287.483 249.6 288.984 247.728 290.864 246.295C293.89 244.052 297.557 242.842 301.324 242.843C304.688 241.343 308.498 241.192 311.97 242.42C313.444 242.975 314.784 243.834 315.903 244.942C317.022 246.05 317.895 247.382 318.464 248.85C319.174 250.571 320.703 252.078 322.921 253.406C324.975 254.594 326.649 256.343 327.746 258.447C329.207 261.355 329.308 264.281 327.393 267.237C334.562 274.768 334.582 286.085 333.258 298.114Z" fill="#2F2E41"/>
<path d="M307.012 273.721C314.175 273.721 319.981 267.915 319.981 260.752C319.981 253.59 314.175 247.784 307.012 247.784C299.85 247.784 294.044 253.59 294.044 260.752C294.044 267.915 299.85 273.721 307.012 273.721Z" fill="#FFB8B8"/>
<path d="M313.187 288.851L298.057 290.395C298.869 281.549 299.189 273.386 298.057 267.237H313.187C310.314 277.027 310.566 284.005 313.187 288.851Z" fill="#FFB8B8"/>
<path d="M321.292 288.516C321.279 289.872 321.25 291.213 321.205 292.54C320.889 302.035 319.695 310.583 316.439 316.878C315.778 318.182 314.988 319.415 314.081 320.561C314.074 320.573 314.066 320.583 314.056 320.592C313.993 320.679 313.925 320.762 313.851 320.84C313.186 321.666 312.446 322.431 311.642 323.124L305.446 329.623L305.161 329.92L303.354 331.127L294.044 337.329L271.686 325.315L271.662 323.229L271.637 321.094C276.607 314.049 279.708 304.889 281.677 294.459C282.215 291.605 282.673 288.653 283.063 285.62C283.33 283.521 283.565 281.38 283.769 279.207C283.801 278.54 284.027 277.897 284.419 277.356C284.419 277.355 284.419 277.355 284.419 277.354C284.42 277.353 284.42 277.352 284.421 277.352C284.421 277.351 284.422 277.351 284.423 277.35C284.423 277.35 284.424 277.35 284.425 277.35C285.378 276.137 287.272 276.162 289.563 276.038C292.775 275.864 295.938 274.199 298.779 275.772C298.85 275.804 298.918 275.841 298.984 275.883L307.321 285.143L311.153 281.014L311.332 280.822L319.224 284.202C320.031 284.551 320.685 285.18 321.065 285.972C321.445 286.765 321.526 287.669 321.292 288.516Z" fill="#008081"/>
<path d="M303.694 334.03C303.695 335.609 303.397 337.174 302.815 338.642L300.525 344.423L280.185 345.661C279.969 345.673 279.752 345.68 279.542 345.68C277.496 345.635 275.548 344.797 274.109 343.343C272.67 341.889 271.853 339.932 271.829 337.887L271.687 325.315L271.662 323.229L279.065 326.367L286.282 322.492C286.676 322.324 287.079 322.18 287.489 322.059C288.024 321.89 288.57 321.76 289.124 321.669H289.13C289.396 321.626 289.662 321.589 289.928 321.564C292.988 321.257 296.053 322.088 298.538 323.897C299.991 324.95 301.197 326.306 302.073 327.871C302.14 327.979 302.2 328.09 302.252 328.206C302.744 329.128 303.115 330.11 303.354 331.127C303.579 332.078 303.693 333.053 303.694 334.03Z" fill="#2F2E41"/>
<path opacity="0.2" d="M297.903 297.033L300.609 309.447L317.047 323.588L302.535 308.767L297.903 297.033Z" fill="black"/>
<path opacity="0.2" d="M282.774 302.9L287.714 322.971L302.227 328.22L288.64 321.427L282.774 302.9Z" fill="black"/>
<path d="M322.605 261.525C313.047 257.127 302.241 255.873 292.654 260.598L293.889 249.482L314.886 246.086L322.605 261.525Z" fill="#2F2E41"/>
<path d="M399.438 359.204L329.155 347.13L330.016 342.884L399.438 359.204Z" fill="#3F3D56"/>
<path d="M340.879 349.782C340.312 350.313 339.63 350.705 338.886 350.928C338.142 351.151 337.357 351.199 336.591 351.068C335.826 350.938 335.101 350.631 334.474 350.174C333.846 349.717 333.333 349.12 332.974 348.431L328.318 339.49L330.17 335.476L340.153 341.865C340.799 342.279 341.342 342.834 341.741 343.49C342.139 344.145 342.383 344.883 342.453 345.646C342.523 346.41 342.417 347.18 342.145 347.897C341.872 348.613 341.439 349.258 340.879 349.782Z" fill="#FFB8B8"/>
<path d="M326.91 340.773L288.737 320.946C288.561 320.855 288.406 320.727 288.283 320.571C288.161 320.415 288.072 320.235 288.025 320.042L279.744 286.668C279.263 284.732 279.523 282.686 280.471 280.93C281.42 279.175 282.989 277.837 284.873 277.178L286.868 276.48C287.312 276.324 287.784 276.261 288.254 276.295C288.724 276.33 289.182 276.46 289.6 276.678C290.017 276.896 290.386 277.198 290.682 277.564C290.978 277.931 291.196 278.354 291.322 278.808L299.484 308.19C299.56 308.465 299.719 308.71 299.939 308.893L331.042 334.663C331.31 334.886 331.485 335.2 331.534 335.545C331.582 335.89 331.5 336.241 331.303 336.528L328.708 340.322C328.515 340.603 328.226 340.805 327.895 340.888C327.564 340.971 327.213 340.93 326.91 340.773Z" fill="#008081"/>
<path d="M391.863 361.402C392.2 361.468 392.55 361.398 392.836 361.207C393.122 361.017 393.321 360.721 393.39 360.384L394.094 356.859C394.162 356.521 394.092 356.171 393.901 355.885C393.711 355.598 393.414 355.4 393.076 355.332L382.874 353.293C382.537 353.226 382.187 353.296 381.901 353.486C381.615 353.677 381.416 353.974 381.348 354.311L380.643 357.836C380.61 358.003 380.61 358.175 380.643 358.342C380.676 358.509 380.742 358.668 380.836 358.81C380.931 358.952 381.052 359.074 381.194 359.168C381.335 359.263 381.494 359.329 381.661 359.363L391.863 361.402Z" fill="#008081"/>
</g>
<defs>
<clipPath id="clip0">
<rect width="581.225" height="450" fill="white"/>
</clipPath>
</defs>
</svg>
