<svg width="511" height="400" viewBox="0 0 511 400" fill="none" xmlns="http://www.w3.org/2000/svg">
<g clip-path="url(#clip0)">
<path opacity="0.1" d="M428.898 17.0578C446.48 22.8931 453.249 26.2377 470.651 32.5919C477.779 35.1958 485.105 37.9743 490.591 43.2153C496.351 48.7204 499.493 56.4002 501.715 64.0517C506.479 80.4773 507.465 99.007 499.158 113.956C491.558 127.636 476.755 137.439 473.43 152.723C470.977 163.993 475.439 175.446 477.628 186.768C480.46 201.527 479.428 216.768 474.633 231.012C470.062 244.522 461.146 257.631 447.669 262.287C431.993 267.698 414.916 260.466 398.34 260.985C379.739 261.57 362.846 271.901 348.492 283.742C334.137 295.582 321.183 309.328 305.257 318.909C289.016 328.669 270.43 333.656 252.117 338.533C241.932 341.246 231.639 343.972 221.105 344.321C209.458 344.708 197.835 342.147 186.966 337.934C166.818 330.132 149.039 316.626 135.387 299.88C127.443 290.138 120.57 277.562 124.042 265.486C126.566 256.711 133.948 250.39 139.609 243.234C154.676 224.285 157.973 196.703 147.798 174.734C142.642 163.601 134.51 154.176 127.297 144.251C120.084 134.326 113.555 123.292 112.437 111.074C111.319 98.856 116.985 85.2937 128.311 80.5811C142.203 74.8071 161.922 82.3926 170.889 70.3068C174.286 65.7263 174.72 59.6929 175.758 54.0887C181.282 24.379 209.496 0.528298 239.687 0.00939334C263.236 -0.396296 285.445 11.6659 308.961 12.7792C332.59 13.8972 356.587 3.94363 379.466 9.89217C387.858 12.1046 395.585 16.3502 403.897 18.8551C412.208 21.36 421.822 21.8317 428.983 16.9351" fill="#eb7b05bf"/>
<path opacity="0.1" d="M438.908 86.2278H232.531V100.507H438.908V86.2278Z" fill="#eb7b05bf"/>
<path opacity="0.1" d="M438.908 147.883H232.531V162.162H438.908V147.883Z" fill="#eb7b05bf"/>
<path opacity="0.1" d="M438.908 212.133H232.531V226.412H438.908V212.133Z" fill="#eb7b05bf"/>
<path opacity="0.1" d="M322.089 49.2394H309.111V86.2326H322.089V49.2394Z" fill="#eb7b05bf"/>
<path opacity="0.1" d="M322.089 55.0793H309.111V57.6739H322.089V55.0793Z" fill="#eb7b05bf"/>
<path opacity="0.1" d="M322.089 75.1987H309.111V77.7933H322.089V75.1987Z" fill="#eb7b05bf"/>
<path opacity="0.1" d="M341.562 49.2394H328.585V86.2326H341.562V49.2394Z" fill="#eb7b05bf"/>
<path opacity="0.1" d="M341.562 55.0793H328.585V57.6739H341.562V55.0793Z" fill="#eb7b05bf"/>
<path opacity="0.1" d="M341.562 75.1987H328.585V77.7933H341.562V75.1987Z" fill="#eb7b05bf"/>
<path opacity="0.1" d="M361.03 49.2394H348.053V86.2326H361.03V49.2394Z" fill="#eb7b05bf"/>
<path opacity="0.1" d="M361.03 55.0793H348.053V57.6739H361.03V55.0793Z" fill="#eb7b05bf"/>
<path opacity="0.1" d="M361.03 75.1987H348.053V77.7933H361.03V75.1987Z" fill="#eb7b05bf"/>
<path opacity="0.1" d="M380.499 49.2394H367.521V86.2326H380.499V49.2394Z" fill="#eb7b05bf"/>
<path opacity="0.1" d="M380.499 55.0793H367.521V57.6739H380.499V55.0793Z" fill="#eb7b05bf"/>
<path opacity="0.1" d="M380.499 75.1987H367.521V77.7933H380.499V75.1987Z" fill="#eb7b05bf"/>
<path opacity="0.1" d="M372.817 174.173L361.216 179.99L377.798 213.059L389.398 207.242L372.817 174.173Z" fill="#eb7b05bf"/>
<path opacity="0.1" d="M375.436 179.396L363.835 185.213L364.998 187.532L376.599 181.715L375.436 179.396Z" fill="#eb7b05bf"/>
<path opacity="0.1" d="M384.454 197.377L372.854 203.193L374.017 205.513L385.617 199.696L384.454 197.377Z" fill="#eb7b05bf"/>
<path opacity="0.1" d="M383.744 111.541H370.767V148.534H383.744V111.541Z" fill="#eb7b05bf"/>
<path opacity="0.1" d="M383.744 117.381H370.767V119.976H383.744V117.381Z" fill="#eb7b05bf"/>
<path opacity="0.1" d="M383.744 137.5H370.767V140.095H383.744V137.5Z" fill="#eb7b05bf"/>
<path opacity="0.1" d="M403.212 111.541H390.235V148.534H403.212V111.541Z" fill="#eb7b05bf"/>
<path opacity="0.1" d="M403.212 117.381H390.235V119.976H403.212V117.381Z" fill="#eb7b05bf"/>
<path opacity="0.1" d="M403.212 137.5H390.235V140.095H403.212V137.5Z" fill="#eb7b05bf"/>
<path opacity="0.1" d="M422.681 111.541H409.703V148.534H422.681V111.541Z" fill="#eb7b05bf"/>
<path opacity="0.1" d="M422.681 117.381H409.703V119.976H422.681V117.381Z" fill="#eb7b05bf"/>
<path opacity="0.1" d="M422.681 137.5H409.703V140.095H422.681V137.5Z" fill="#eb7b05bf"/>
<path opacity="0.1" d="M263.684 175.14H250.706V212.133H263.684V175.14Z" fill="#eb7b05bf"/>
<path opacity="0.1" d="M263.684 180.98H250.706V183.574H263.684V180.98Z" fill="#eb7b05bf"/>
<path opacity="0.1" d="M263.684 201.099H250.706V203.694H263.684V201.099Z" fill="#eb7b05bf"/>
<path opacity="0.1" d="M283.152 175.14H270.175V212.133H283.152V175.14Z" fill="#eb7b05bf"/>
<path opacity="0.1" d="M283.152 180.98H270.175V183.574H283.152V180.98Z" fill="#eb7b05bf"/>
<path opacity="0.1" d="M283.152 201.099H270.175V203.694H283.152V201.099Z" fill="#eb7b05bf"/>
<path opacity="0.1" d="M302.62 175.14H289.643V212.133H302.62V175.14Z" fill="#eb7b05bf"/>
<path opacity="0.1" d="M302.62 180.98H289.643V183.574H302.62V180.98Z" fill="#eb7b05bf"/>
<path opacity="0.1" d="M302.62 201.099H289.643V203.694H302.62V201.099Z" fill="#eb7b05bf"/>
<path opacity="0.1" d="M322.089 175.14H309.111V212.133H322.089V175.14Z" fill="#eb7b05bf"/>
<path opacity="0.1" d="M322.089 180.98H309.111V183.574H322.089V180.98Z" fill="#eb7b05bf"/>
<path opacity="0.1" d="M322.089 201.099H309.111V203.694H322.089V201.099Z" fill="#eb7b05bf"/>
<path opacity="0.1" d="M341.562 175.14H328.585V212.133H341.562V175.14Z" fill="#eb7b05bf"/>
<path opacity="0.1" d="M341.562 180.98H328.585V183.574H341.562V180.98Z" fill="#eb7b05bf"/>
<path opacity="0.1" d="M341.562 201.099H328.585V203.694H341.562V201.099Z" fill="#eb7b05bf"/>
<path opacity="0.1" d="M361.03 175.14H348.053V212.133H361.03V175.14Z" fill="#eb7b05bf"/>
<path opacity="0.1" d="M361.03 180.98H348.053V183.574H361.03V180.98Z" fill="#eb7b05bf"/>
<path opacity="0.1" d="M361.03 201.099H348.053V203.694H361.03V201.099Z" fill="#eb7b05bf"/>
<g opacity="0.1">
<path opacity="0.1" d="M328.844 135.085C328.844 135.085 324.91 133.75 323.013 137.217C322.514 138.157 322.26 139.208 322.275 140.273C322.29 141.338 322.573 142.381 323.098 143.307C324.344 145.557 326.905 148.496 331.764 148.218C335.882 147.996 337.255 144.854 337.628 141.93C337.769 140.833 337.627 139.718 337.215 138.692C336.803 137.666 336.135 136.763 335.274 136.069C334.413 135.375 333.388 134.914 332.298 134.729C331.208 134.545 330.088 134.643 329.047 135.014L328.844 135.085Z" fill="#eb7b05bf"/>
<path opacity="0.1" d="M323.919 143.619C323.394 142.693 323.11 141.649 323.096 140.584C323.081 139.52 323.335 138.469 323.834 137.529C325.721 134.061 329.665 135.396 329.665 135.396L329.868 135.326C331.368 134.783 333.016 134.82 334.491 135.429C333.676 134.944 332.764 134.646 331.82 134.556C330.876 134.467 329.924 134.588 329.033 134.91L328.83 134.981C328.83 134.981 324.896 133.646 322.999 137.113C322.5 138.054 322.246 139.105 322.261 140.169C322.275 141.234 322.559 142.277 323.084 143.203C324.057 145.063 325.622 146.546 327.533 147.416C326.004 146.504 324.755 145.19 323.919 143.619Z" fill="#eb7b05bf"/>
<path opacity="0.2" d="M326.801 136.75C326.801 136.75 328.259 137.897 331.807 136.75H326.801Z" fill="#eb7b05bf"/>
<path opacity="0.1" d="M326.485 128.415C326.485 128.415 328.986 135.189 328.778 136.962L330.759 136.755C330.759 136.755 327.424 130.816 328.259 128.415H326.485Z" fill="#eb7b05bf"/>
<path opacity="0.2" d="M326.485 128.415C326.485 128.415 328.986 135.189 328.778 136.962L330.759 136.755C330.759 136.755 327.424 130.816 328.259 128.415H326.485Z" fill="#eb7b05bf"/>
<path opacity="0.1" d="M336.698 128.981C336.698 128.981 332.759 126.966 331 128.632C329.24 130.297 328.967 134.547 328.967 134.547C328.967 134.547 335.387 135.429 336.698 128.981Z" fill="#eb7b05bf"/>
<path opacity="0.1" d="M336.698 128.981C336.698 128.981 332.759 126.966 331 128.632C329.24 130.297 328.967 134.547 328.967 134.547C328.967 134.547 335.387 135.429 336.698 128.981Z" fill="#eb7b05bf"/>
<path opacity="0.1" d="M328.967 134.547C328.967 134.547 330 129.613 336.698 128.981L328.967 134.547Z" fill="#eb7b05bf"/>
</g>
<g opacity="0.1">
<path opacity="0.1" d="M411.902 199.335C411.902 199.335 407.968 198 406.071 201.467C405.572 202.407 405.318 203.458 405.332 204.523C405.347 205.588 405.631 206.631 406.156 207.557C407.401 209.807 409.963 212.746 414.822 212.468C418.94 212.246 420.313 209.104 420.685 206.18C420.827 205.083 420.685 203.968 420.273 202.942C419.861 201.916 419.192 201.013 418.331 200.319C417.47 199.625 416.446 199.164 415.356 198.979C414.265 198.795 413.146 198.893 412.105 199.264L411.902 199.335Z" fill="#eb7b05bf"/>
<path opacity="0.1" d="M406.991 207.868C406.466 206.942 406.182 205.899 406.167 204.834C406.153 203.77 406.407 202.719 406.906 201.778C408.793 198.311 412.737 199.646 412.737 199.646L412.94 199.575C414.44 199.033 416.088 199.07 417.563 199.679C416.748 199.194 415.836 198.896 414.892 198.806C413.948 198.717 412.996 198.837 412.105 199.16L411.902 199.231C411.902 199.231 407.968 197.896 406.071 201.363C405.572 202.304 405.318 203.355 405.332 204.419C405.347 205.484 405.631 206.527 406.156 207.453C407.129 209.313 408.694 210.796 410.605 211.666C409.076 210.753 407.826 209.44 406.991 207.868Z" fill="#eb7b05bf"/>
<path opacity="0.2" d="M409.869 201C409.869 201 411.326 202.146 414.874 201H409.869Z" fill="#eb7b05bf"/>
<path opacity="0.1" d="M409.557 192.665C409.557 192.665 412.057 199.439 411.85 201.212L413.831 201.005C413.831 201.005 410.496 195.066 411.331 192.665H409.557Z" fill="#eb7b05bf"/>
<path opacity="0.2" d="M409.557 192.665C409.557 192.665 412.057 199.439 411.85 201.212L413.831 201.005C413.831 201.005 410.496 195.066 411.331 192.665H409.557Z" fill="#eb7b05bf"/>
<path opacity="0.1" d="M419.766 193.231C419.766 193.231 415.827 191.216 414.067 192.882C412.307 194.547 412.034 198.797 412.034 198.797C412.034 198.797 418.473 199.679 419.766 193.231Z" fill="#eb7b05bf"/>
<path opacity="0.1" d="M419.766 193.231C419.766 193.231 415.827 191.216 414.067 192.882C412.307 194.547 412.034 198.797 412.034 198.797C412.034 198.797 418.473 199.679 419.766 193.231Z" fill="#eb7b05bf"/>
<path opacity="0.1" d="M412.039 198.792C412.039 198.792 413.072 193.858 419.77 193.226L412.039 198.792Z" fill="#eb7b05bf"/>
</g>
<path d="M15.8785 353.313C15.8785 353.313 78.4018 413.312 251.056 397.273C423.709 381.235 492.582 391.613 492.582 391.613C492.582 391.613 523.716 361.422 481.732 347.742C439.748 334.061 334.08 339.722 301.059 339.722C268.038 339.722 199.637 323.212 199.637 323.212L15.8785 353.313Z" fill="#eb7b05bf"/>
<path d="M462.561 368.521C462.561 368.521 452.315 316.598 473.411 281.01C482.265 266.075 486.341 248.768 484.473 231.507C483.57 223.317 481.918 215.228 479.539 207.34" stroke="#535461" stroke-width="2" stroke-miterlimit="10"/>
<path d="M492.705 184.834C492.134 191.028 479.265 207.949 479.265 207.949C479.265 207.949 469.698 188.952 470.264 182.753C470.4 181.28 470.824 179.848 471.513 178.539C472.202 177.23 473.141 176.069 474.279 175.123C475.416 174.177 476.729 173.465 478.142 173.026C479.554 172.587 481.04 172.431 482.513 172.566C483.986 172.702 485.418 173.126 486.727 173.815C488.036 174.504 489.197 175.443 490.143 176.581C491.089 177.718 491.802 179.031 492.24 180.444C492.679 181.856 492.835 183.342 492.7 184.815L492.705 184.834Z" fill="#eb7b05bf"/>
<path d="M508.102 220.86C504.257 225.752 484.247 232.974 484.247 232.974C484.247 232.974 486.539 211.826 490.379 206.934C491.293 205.771 492.428 204.798 493.718 204.073C495.008 203.348 496.429 202.884 497.898 202.708C499.367 202.531 500.857 202.646 502.282 203.046C503.707 203.445 505.04 204.121 506.203 205.036C507.367 205.95 508.339 207.085 509.064 208.375C509.79 209.665 510.254 211.085 510.43 212.555C510.606 214.024 510.491 215.514 510.092 216.939C509.693 218.364 509.016 219.696 508.102 220.86Z" fill="#eb7b05bf"/>
<path d="M501.899 279.435C496.11 281.718 475.194 277.85 475.194 277.85C475.194 277.85 487.85 260.754 493.639 258.471C495.015 257.929 496.485 257.663 497.964 257.688C499.444 257.714 500.903 258.031 502.26 258.621C503.617 259.211 504.844 260.062 505.872 261.126C506.9 262.19 507.708 263.446 508.25 264.823C508.793 266.199 509.059 267.669 509.033 269.149C509.007 270.628 508.691 272.088 508.101 273.444C507.511 274.801 506.66 276.029 505.595 277.056C504.531 278.084 503.275 278.892 501.899 279.435Z" fill="#eb7b05bf"/>
<path d="M487.228 322.697C481.907 325.924 460.636 325.65 460.636 325.65C460.636 325.65 470.222 306.659 475.538 303.432C478.093 301.882 481.159 301.411 484.061 302.122C486.963 302.833 489.464 304.667 491.014 307.222C492.563 309.777 493.034 312.843 492.323 315.745C491.612 318.647 489.778 321.148 487.223 322.697H487.228Z" fill="#eb7b05bf"/>
<path d="M460.575 232.012C464.622 236.729 484.916 243.112 484.916 243.112C484.916 243.112 481.737 222.077 477.689 217.355C475.746 215.086 472.98 213.681 470.001 213.451C467.022 213.22 464.073 214.183 461.804 216.126C459.534 218.07 458.13 220.835 457.899 223.814C457.669 226.794 458.631 229.742 460.575 232.012Z" fill="#eb7b05bf"/>
<path d="M444.064 282.827C449.338 286.129 470.613 286.129 470.613 286.129C470.613 286.129 461.283 267.009 455.99 263.712C453.456 262.128 450.397 261.616 447.486 262.287C444.574 262.958 442.049 264.759 440.465 267.292C438.881 269.826 438.369 272.885 439.04 275.796C439.712 278.708 441.512 281.233 444.046 282.817L444.064 282.827Z" fill="#eb7b05bf"/>
<path d="M434.79 334.42C439.432 338.562 460.396 342.166 460.396 342.166C460.396 342.166 454.433 321.749 449.787 317.603C448.683 316.618 447.396 315.86 445.999 315.372C444.602 314.885 443.123 314.677 441.646 314.761C440.169 314.845 438.722 315.219 437.39 315.862C436.058 316.505 434.865 317.404 433.88 318.508C432.895 319.612 432.137 320.899 431.649 322.296C431.162 323.693 430.954 325.172 431.038 326.649C431.122 328.126 431.497 329.573 432.14 330.905C432.782 332.237 433.682 333.43 434.786 334.415L434.79 334.42Z" fill="#eb7b05bf"/>
<path opacity="0.1" d="M399.575 75.4629L392.608 72.5665L401.929 50.1357L408.897 53.0321L399.575 75.4629ZM406.68 48.5082C405.876 48.179 405.187 47.6187 404.702 46.8983C404.216 46.1778 403.955 45.3295 403.952 44.4607C403.949 43.5919 404.203 42.7417 404.683 42.0175C405.163 41.2933 405.847 40.7278 406.648 40.3924C407.45 40.057 408.333 39.9669 409.186 40.1334C410.038 40.2999 410.822 40.7156 411.439 41.3279C412.055 41.9401 412.476 42.7215 412.648 43.573C412.821 44.4246 412.737 45.3081 412.407 46.1118C411.961 47.1861 411.11 48.041 410.037 48.4899C408.964 48.9388 407.757 48.9454 406.68 48.5082ZM425.648 86.2844L418.695 83.3974L423.233 72.4769C424.313 69.8729 425.648 66.5142 422.077 65.0329C418.506 63.5517 416.723 66.1226 415.511 69.0474L410.897 80.1519L403.939 77.2602L413.26 54.8294L419.94 57.6079L418.666 60.6694L418.765 60.7119C420.426 59.3344 423.483 58.4193 426.86 59.8297C433.908 62.7592 433.276 67.9388 430.771 73.9817L425.653 86.3033L425.648 86.2844Z" fill="#eb7b05bf"/>
<path opacity="0.1" d="M253.169 44.8663L250.4 51.9423V80.85H260.24V86.0721H265.778L271 80.85H279.02L289.78 70.0898V44.8663H253.169ZM286.077 68.2359L279.944 74.3684H270.08L264.858 79.6141V74.392H256.551V48.5741H286.072L286.077 68.2359ZM279.944 55.6265V66.3773H276.255V55.6501L279.944 55.6265ZM270.104 55.6265V66.3773H266.415V55.6501L270.104 55.6265Z" fill="#eb7b05bf"/>
<path d="M205.198 315.909L204.977 296.913V296.356L201.981 41.4368C201.981 41.1255 201.981 40.8189 201.953 40.4934C201.857 38.4567 201.517 36.4389 200.939 34.4835C200.892 34.3279 200.849 34.1769 200.802 34.0118C200.755 33.8467 200.708 33.724 200.656 33.5778C200.604 33.4316 200.533 33.2146 200.467 33.0353C200.401 32.8561 200.368 32.7759 200.321 32.6438C200.274 32.5117 200.175 32.2664 200.099 32.0777L199.943 31.7097C199.863 31.5163 199.778 31.3276 199.693 31.1389L199.528 30.7899C199.437 30.6012 199.344 30.4125 199.25 30.2238L199.075 29.8841C198.978 29.6986 198.877 29.513 198.773 29.3275L198.59 28.9973C198.481 28.8133 198.373 28.6293 198.264 28.4501L198.071 28.134C197.953 27.95 197.835 27.7661 197.712 27.5868L197.514 27.3462C197.382 27.1528 197.245 26.9641 197.108 26.7754L196.934 26.5348C196.736 26.2675 196.531 26.0049 196.321 25.7471C193.71 22.5051 190.361 19.9352 186.554 18.252C182.747 16.5688 178.592 15.8213 174.437 16.0718L45.1824 23.6762C42.1915 23.8485 39.2524 24.533 36.4931 25.6999C17.7277 31.4409 -0.424571 43.904 0.00942214 66.4339L4.87298 329.726C5.27395 351.482 23.5205 368.88 44.7154 372.564C49.0284 373.82 53.5925 373.942 57.9664 372.918L185.15 343.482C190.883 342.18 195.999 338.958 199.65 334.35C203.301 329.742 205.267 324.024 205.222 318.145L205.198 315.909Z" fill="url(#paint0_linear)"/>
<path d="M2.20299 69.769L6.96276 330.273C7.40619 354.544 30.0493 373.361 53.9991 373.361L43.2861 27.9736L42.3426 28.2142C22.5252 33.2193 1.76428 45.6777 2.20299 69.769Z" fill="#535461"/>
<path opacity="0.1" d="M2.20299 69.769L6.96276 330.273C7.40619 354.544 30.0493 373.361 53.9991 373.361L43.2861 27.9736L42.3426 28.2142C22.5252 33.2193 1.76428 45.6777 2.20299 69.769Z" fill="black"/>
<path d="M203.029 318.815C203.089 324.603 201.176 330.239 197.606 334.794C194.036 339.35 189.02 342.554 183.386 343.878L58.9193 373.008C55.223 373.873 51.3798 373.901 47.6715 373.088C43.9631 372.275 40.4837 370.643 37.4883 368.311C34.4929 365.978 32.0574 363.005 30.3604 359.609C28.6635 356.214 27.748 352.481 27.6812 348.685L27.3038 327.042V326.825L26.1245 260.221L22.544 57.3532L22.4686 53.301C22.3548 46.7387 24.7811 40.3863 29.2406 35.5708C33.7001 30.7552 39.8478 27.8491 46.3995 27.4595L172.904 19.9354C179.589 19.5323 186.163 21.7836 191.198 26.2C196.233 30.6165 199.321 36.8413 199.792 43.522C199.835 44.0173 199.854 44.5268 199.858 45.0362L202.788 297.266V298.568L203 316.612L203.029 318.815Z" fill="#eb7b05bf"/>
<path opacity="0.1" d="M203.029 318.815C203.089 324.603 201.176 330.239 197.606 334.794C194.036 339.35 189.02 342.554 183.386 343.878L58.9193 373.008C55.223 373.873 51.3798 373.901 47.6715 373.088C43.9631 372.275 40.4837 370.643 37.4883 368.311C34.4929 365.978 32.0574 363.005 30.3604 359.609C28.6635 356.214 27.748 352.481 27.6812 348.685L27.3038 327.042V326.825L26.1245 260.221L22.544 57.3532L22.4686 53.301C22.3548 46.7387 24.7811 40.3863 29.2406 35.5708C33.7001 30.7552 39.8478 27.8491 46.3995 27.4595L172.904 19.9354C179.589 19.5323 186.163 21.7836 191.198 26.2C196.233 30.6165 199.321 36.8413 199.792 43.522C199.835 44.0173 199.854 44.5268 199.858 45.0362L202.788 297.266V298.568L203 316.612L203.029 318.815Z" fill="black"/>
<path d="M203.005 316.612L89.6762 328.674L80.9963 39.4557L194.316 29.4833C197.851 33.9066 199.801 39.3879 199.854 45.0504L203.005 316.612Z" fill="#eb7b05bf"/>
<path d="M202.793 298.568L27.2991 326.825L26.1198 260.226L87.3836 252.032L202.793 298.568Z" fill="#eb7b05bf"/>
<path opacity="0.1" d="M202.793 298.568L27.2991 326.825L26.1198 260.226L87.3836 252.032L202.793 298.568Z" fill="white"/>
<path d="M203.029 318.815C203.089 324.603 201.176 330.239 197.606 334.794C194.036 339.35 189.02 342.554 183.386 343.878L58.9193 373.008C55.223 373.873 51.3798 373.901 47.6715 373.088C43.9631 372.275 40.4837 370.643 37.4883 368.311C34.4929 365.978 32.0574 363.005 30.3604 359.609C28.6635 356.214 27.748 352.481 27.6812 348.685L27.3038 327.042L202.788 297.262V298.564L203 316.607L203.029 318.815Z" fill="#535461"/>
<path d="M199.783 43.522L22.5393 57.3532L22.4639 53.301C22.3501 46.7387 24.7764 40.3863 29.2359 35.5708C33.6954 30.7552 39.8431 27.8491 46.3948 27.4595L172.904 19.9354C179.589 19.5323 186.163 21.7836 191.198 26.2C196.233 30.6165 199.321 36.8413 199.792 43.522H199.783Z" fill="#535461"/>
<path d="M123.82 347.916C130.675 347.916 136.231 342.359 136.231 335.505C136.231 328.65 130.675 323.094 123.82 323.094C116.966 323.094 111.409 328.65 111.409 335.505C111.409 342.359 116.966 347.916 123.82 347.916Z" fill="white"/>
<path d="M128.165 37.1205L107.064 38.215V36.9743L128.165 35.8799V37.1205Z" fill="white"/>
<path d="M15.8785 89.0204C15.8785 86.9362 14.1889 85.2466 12.1046 85.2466C10.0204 85.2466 8.3308 86.9362 8.3308 89.0204V105.946C8.3308 108.03 10.0204 109.72 12.1046 109.72C14.1889 109.72 15.8785 108.03 15.8785 105.946V89.0204Z" fill="white"/>
<path d="M101.479 39.4557C102.164 39.4557 102.72 38.9002 102.72 38.215C102.72 37.5298 102.164 36.9744 101.479 36.9744C100.794 36.9744 100.238 37.5298 100.238 38.215C100.238 38.9002 100.794 39.4557 101.479 39.4557Z" fill="white"/>
<path d="M35.5402 123.896C35.8335 124.58 36.2659 125.195 36.8101 125.703C37.3543 126.21 37.9982 126.599 38.7008 126.844C39.3282 127.047 39.9887 127.118 40.6255 127.273C43.6682 128.033 45.8145 130.665 48.5978 132.118C48.8198 132.255 49.0731 132.333 49.3337 132.344H49.428C49.4861 132.35 49.5445 132.35 49.6026 132.344C49.8881 132.314 50.1586 132.201 50.3809 132.019L50.5036 131.924C50.8059 133.16 50.8525 134.444 50.6404 135.698C49.5365 135.698 42.3898 136.137 43.3663 144.581C44.4277 153.723 55.0275 166.526 55.0275 166.526C55.0275 166.526 62.4478 174.102 60.0608 199.967L59.7967 212.506C59.7967 212.506 62.6271 212.076 66.283 211.647C66.3679 211.814 66.4544 211.971 66.5424 212.119C67.5803 213.931 68.9022 215.565 70.4578 216.959L76.4913 231.295C76.4913 231.295 77.0102 232.238 77.7744 233.701C77.8451 236.738 75.9582 239.394 75.9582 239.394C64.297 242.791 59.5278 255.07 59.5278 255.07C59.5278 255.07 52.9235 259.014 51.5083 263.405C48.7298 265.656 48.9185 271.793 48.9185 271.793C48.9185 271.793 58.7258 277.02 65.9009 279.892C66.7314 280.225 67.5971 280.463 68.4813 280.6L66.8868 283.902C65.2263 284.501 65.1037 292.709 65.1037 292.709C65.1037 292.709 82.5955 305.248 87.893 306.036C93.1905 306.824 97.7003 303.163 92.1386 300.55C87.6571 298.446 82.6568 290.407 80.8831 287.341C83.1002 284.298 90.1007 274.439 90.5489 270.486C91.0913 265.807 97.6956 261.886 97.6956 261.886C107.234 251.697 100.875 239.677 100.083 233.408C100.083 233.29 100.05 233.158 100.026 233.017C99.4421 230.3 98.6938 227.622 97.7852 224.997C98.8277 218.421 99.6721 208.152 100.144 201.373C102.248 202.052 104.309 202.849 104.309 202.849C108.177 194.995 95.035 162.658 91.2517 153.695C93.4594 152.964 97.2616 151.808 102.72 150.6C111.994 148.511 112.527 143.807 112.527 143.807L119.683 124.466C119.074 124.74 118.14 124.726 117.046 124.537C117.046 124.377 117.046 124.202 117.046 124.014C117.103 122.179 117.277 119.249 117.815 118.716C117.815 118.716 116.055 118.716 113.918 118.527V118.268L114.862 106.442C114.862 106.442 113.536 93.3793 109.031 95.2049C105.413 96.672 105.899 108.413 106.229 112.984C106.318 114.146 106.661 115.273 107.234 116.287L107.536 116.824L107.743 117.192C107.545 117.098 107.355 116.989 107.173 116.867V120.914C106.673 120.674 106.375 120.527 106.375 120.527C106.64 124.971 101.073 139.868 101.073 139.868C101.073 139.868 91.2659 138.821 88.0864 140.916C85.7561 142.449 82.7087 139.5 81.251 137.798L88.0864 122.891C87.2616 122.745 86.4469 122.547 85.6476 122.296C85.6759 122.117 85.7136 121.924 85.7466 121.726C86.0957 119.839 86.7184 117.216 87.5581 116.886C86.3419 116.223 85.0809 115.646 83.7842 115.159C83.8125 115.008 83.8455 114.848 83.8833 114.687C84.3786 112.074 85.157 106.427 83.5767 102.531C81.4586 97.3041 80.6614 87.1147 76.6847 89.4686C73.5288 91.3556 73.3825 102.578 73.4533 107.14C73.4716 108.375 73.7819 109.589 74.359 110.682L75.8922 113.584L76.1044 113.985L75.8922 114.022V117.593C75.2223 117.169 74.8308 116.9 74.8308 116.9C74.6987 121.924 71.373 128.618 68.1227 134.005L66.4717 132.816L66.066 132.524C66.062 132.472 66.062 132.42 66.066 132.368C66.066 132.368 65.3867 132.174 64.3111 131.957C62.9761 129.424 62.2308 126.367 61.8157 123.83C61.7732 123.565 61.7355 123.306 61.6978 123.056C62.3149 121.697 62.6364 120.223 62.6412 118.73C62.6264 116.177 61.7045 113.713 60.0401 111.777C58.3758 109.842 56.0774 108.561 53.5557 108.163C53.8812 107.8 54.0274 107.692 54.1217 107.692H54.1925C54.616 107.717 55.0363 107.604 55.3907 107.371C56.2304 106.96 57.1786 106.352 57.1738 105.432C57.1738 104.757 56.6361 104.201 56.07 103.819C54.702 102.904 54.6548 101.323 53.3906 101.46C53.146 101.439 52.8997 101.471 52.6688 101.554C51.5036 101.936 50.4894 102.668 49.3667 103.13C48.5729 103.453 47.7315 103.645 46.8759 103.696C46.3294 103.695 45.7836 103.738 45.2438 103.823C44.8121 103.932 44.3977 104.1 44.0125 104.323C41.6161 105.63 38.8565 107.626 38.0876 110.206C37.3658 112.631 38.3659 115.777 36.5073 117.523C36.1652 117.789 35.8493 118.088 35.5638 118.414C35.3255 118.773 35.1648 119.178 35.0921 119.603C34.7942 121.046 34.9508 122.545 35.5402 123.896ZM84.0154 249.532C84.1144 250.782 83.8786 251.669 83.1474 251.957C79.1707 253.523 74.6562 267.892 74.6562 267.892L71.6419 274.114C69.2506 272.311 66.9623 270.375 64.7876 268.316L65.1131 266.066C65.1131 266.066 73.6043 259.797 74.1232 257.966C74.543 256.49 81.3973 251.419 84.0154 249.532Z" fill="url(#paint1_linear)"/>
<path d="M89.912 152.058C89.912 152.058 107.932 193.768 103.559 202.778C103.559 202.778 96.3512 199.948 95.3181 200.462C94.285 200.976 83.9965 146.652 83.9965 146.652L89.912 152.058Z" fill="#C4C8E2"/>
<path opacity="0.05" d="M89.912 152.058C89.912 152.058 107.932 193.768 103.559 202.778C103.559 202.778 96.3512 199.948 95.3181 200.462C94.285 200.976 83.9965 146.652 83.9965 146.652L89.912 152.058Z" fill="black"/>
<path d="M80.1283 284.912C80.1283 284.912 86.308 296.497 91.714 299.064C97.1201 301.63 92.7424 305.243 87.5958 304.47C82.4492 303.696 65.4527 291.337 65.4527 291.337C65.4527 291.337 65.5707 283.246 67.184 282.657C68.7973 282.067 80.1283 284.912 80.1283 284.912Z" fill="#4C495A"/>
<path d="M63.9054 266.113C63.9054 266.113 72.6608 274.868 76.5195 275.637C80.3783 276.406 73.1702 281.558 66.2216 278.727C59.273 275.897 49.7441 270.76 49.7441 270.76C49.7441 270.76 49.4846 262.519 53.8623 261.75C58.2399 260.981 63.9054 266.113 63.9054 266.113Z" fill="#4C495A"/>
<path d="M99.9505 194.537C99.9505 194.537 98.1673 225.945 95.8087 230.328C93.45 234.71 84.7371 248.093 84.7371 248.093C84.7371 248.093 74.694 255.301 74.1798 257.103C73.6656 258.905 65.4528 265.099 65.4528 265.099L64.9386 268.703C64.9386 268.703 51.2914 267.929 52.065 263.297C52.8387 258.665 60.0467 254.249 60.0467 254.249C60.0467 254.249 64.6744 242.168 75.996 238.824C75.996 238.824 79.6 233.672 76.5101 229.554C76.5101 229.554 68.7879 210.246 64.4102 207.925C60.0326 205.604 66.2122 192.221 66.2122 192.221L99.9505 194.537Z" fill="#5F5D7E"/>
<path opacity="0.05" d="M99.9505 194.537C99.9505 194.537 98.1673 225.945 95.8087 230.328C93.45 234.71 84.7371 248.093 84.7371 248.093C84.7371 248.093 74.694 255.301 74.1798 257.103C73.6656 258.905 65.4528 265.099 65.4528 265.099L64.9386 268.703C64.9386 268.703 51.2914 267.929 52.065 263.297C52.8387 258.665 60.0467 254.249 60.0467 254.249C60.0467 254.249 64.6744 242.168 75.996 238.824C75.996 238.824 79.6 233.672 76.5101 229.554C76.5101 229.554 68.7879 210.246 64.4102 207.925C60.0326 205.604 66.2122 192.221 66.2122 192.221L99.9505 194.537Z" fill="black"/>
<path d="M74.7223 266.887L66.4811 284.138C67.7689 288.516 80.1283 286.968 80.1283 286.968C80.1283 286.968 89.6761 274.095 90.1479 269.462C90.6196 264.83 97.1012 260.971 97.1012 260.971C106.371 250.928 100.191 239.088 99.4174 232.908C99.4174 232.79 99.3844 232.663 99.3608 232.526C98.6768 228.384 94.5114 216.459 91.2706 207.524C89.0865 201.51 87.3175 196.854 87.3175 196.854C87.3175 196.854 70.0663 197.627 66.4622 203.807C64.8112 206.637 65.5518 209.581 66.8349 211.944C67.8412 213.727 69.1264 215.337 70.6418 216.713L76.5054 230.865C76.5054 230.865 86.8033 249.659 82.9398 251.206C79.0763 252.754 74.7223 266.887 74.7223 266.887Z" fill="#5F5D7E"/>
<path d="M105.465 114.225C105.547 115.376 105.88 116.495 106.441 117.504L106.734 118.032L108.187 120.65H112.819L112.918 119.433L113.862 107.776C113.862 107.776 112.574 94.9029 108.201 96.7049C104.677 98.1484 105.144 109.715 105.465 114.225Z" fill="#FDC2CC"/>
<path opacity="0.1" d="M106.739 118.032L108.192 120.65H112.824L112.923 119.433C110.767 119.24 108.196 118.862 106.739 118.032Z" fill="black"/>
<path d="M106.39 118.074V123.995L115.914 126.57C115.914 126.57 115.914 125.957 115.937 125.094C115.989 123.287 116.159 120.376 116.683 119.876C116.688 119.876 108.961 119.876 106.39 118.074Z" fill="#EAEAF3"/>
<path opacity="0.1" d="M106.39 121.546V123.995L115.914 126.57C115.914 126.57 115.914 125.957 115.937 125.094C112.791 124.523 108.192 122.419 106.39 121.546Z" fill="black"/>
<path d="M50.8243 131.316C52.7113 136.746 50.2583 139.184 50.2583 139.184C50.2583 139.184 73.4297 140.727 67.7642 136.609C64.4621 134.203 62.9903 128.896 62.3487 124.9C62.0747 123.238 61.9061 121.56 61.844 119.876C61.844 119.876 43.3285 119.603 47.1684 124.768C48.712 126.753 49.9448 128.961 50.8243 131.316Z" fill="#FDC2CC"/>
<path opacity="0.1" d="M47.1731 124.768C49.0601 127.306 49.678 127.679 50.3101 129.514C50.8899 129.612 51.477 129.661 52.065 129.66C56.4804 129.66 60.7779 128.75 62.3535 124.9C62.0778 123.238 61.9076 121.56 61.844 119.876C61.844 119.876 43.3285 119.603 47.1731 124.768Z" fill="black"/>
<path d="M52.5745 130.434C58.4051 130.434 63.1318 125.707 63.1318 119.876C63.1318 114.046 58.4051 109.319 52.5745 109.319C46.7438 109.319 42.0171 114.046 42.0171 119.876C42.0171 125.707 46.7438 130.434 52.5745 130.434Z" fill="#FDC2CC"/>
<path d="M105.616 121.693C105.616 121.693 115.659 126.844 118.489 125.556L111.536 144.609C111.536 144.609 111.022 149.242 102.012 151.303C93.0018 153.365 88.6242 155.167 88.6242 155.167L71.8871 135.354L80.3783 137.67C80.3783 137.67 84.756 143.85 87.8458 141.788C90.9357 139.727 100.46 140.76 100.46 140.76C100.46 140.76 105.875 126.056 105.616 121.693Z" fill="#C4C8E2"/>
<path opacity="0.05" d="M105.616 121.693C105.616 121.693 115.659 126.844 118.489 125.556L111.536 144.609C111.536 144.609 111.022 149.242 102.012 151.303C93.0018 153.365 88.6242 155.167 88.6242 155.167L71.8871 135.354L80.3783 137.67C80.3783 137.67 84.756 143.85 87.8458 141.788C90.9357 139.727 100.46 140.76 100.46 140.76C100.46 140.76 105.875 126.056 105.616 121.693Z" fill="black"/>
<path opacity="0.1" d="M66.4811 133.83C66.4811 133.83 52.8717 129.938 51.4376 137.17C51.4376 137.17 57.7258 134.104 66.7406 139.529C67.4152 139.934 68.0756 140.368 68.7219 140.821C76.6517 146.378 82.1898 154.973 84.4164 164.743L90.1479 189.938L90.681 196.698C90.681 196.698 98.9221 198.325 100.465 195.886C102.007 193.448 100.979 185.315 98.6627 182.607C96.3465 179.9 92.7424 168.252 92.7424 168.252L90.4876 161.493C88.5981 155.804 85.5963 150.547 81.6567 146.029L81.1143 145.373C77.7233 141.304 73.4234 138.088 68.5615 135.986C67.2548 135.406 66.3019 134.684 66.4811 133.83Z" fill="black"/>
<path d="M66.4811 133.316C66.4811 133.316 52.8717 129.424 51.4376 136.656C51.4376 136.656 57.7258 133.59 66.7406 139.015C67.4152 139.42 68.0756 139.854 68.7219 140.307C76.6517 145.864 82.1898 154.459 84.4164 164.229L90.1479 189.419L90.6621 196.193C90.6621 196.193 98.9032 197.821 100.446 195.382C101.988 192.943 100.96 184.81 98.6438 182.103C96.3276 179.395 92.7236 167.738 92.7236 167.738L90.4687 160.978C88.5854 155.289 85.5901 150.031 81.6567 145.51L81.1142 144.855C77.7233 140.785 73.4234 137.57 68.5615 135.467C67.2548 134.901 66.3019 134.17 66.4811 133.316Z" fill="#EAEAF3"/>
<path opacity="0.1" d="M100.71 185.216L100.597 189.65L96.9927 187.334C96.9927 187.334 90.5725 163.969 86.0485 157.615C85.5155 156.865 85.256 155.728 84.7607 155.554L66.3632 137.788V133.67C66.3632 133.67 75.7601 140.623 76.5337 141.911C76.8639 142.458 81.7982 145.157 84.7749 149.379C87.439 153.27 89.8045 157.357 91.8508 161.606L98.0211 175.47L100.71 185.216Z" fill="black"/>
<path d="M66.3537 133.391V137.382L85.0201 155.275C85.5155 155.464 85.7749 156.587 86.308 157.337C90.8319 163.71 97.2521 187.056 97.2521 187.056L100.856 189.372L100.969 184.938L98.2805 175.21L92.1008 161.318C90.0546 157.069 87.6891 152.982 85.0249 149.091C82.053 144.845 77.1139 142.17 76.7837 141.623C76.1186 140.515 68.8586 135.198 66.8774 133.75L66.3537 133.391Z" fill="#D39999"/>
<path d="M108.508 72.2504H82.2511C79.341 72.2504 76.9819 74.6095 76.9819 77.5196V103.776C76.9819 106.686 79.341 109.045 82.2511 109.045H108.508C111.418 109.045 113.777 106.686 113.777 103.776V77.5196C113.777 74.6095 111.418 72.2504 108.508 72.2504Z" fill="#eb7b05bf"/>
<path opacity="0.1" d="M108.508 72.2504H82.2511C79.341 72.2504 76.9819 74.6095 76.9819 77.5196V103.776C76.9819 106.686 79.341 109.045 82.2511 109.045H108.508C111.418 109.045 113.777 106.686 113.777 103.776V77.5196C113.777 74.6095 111.418 72.2504 108.508 72.2504Z" fill="white"/>
<path opacity="0.2" d="M95.3841 82.9351C93.8577 82.9351 92.3656 83.3877 91.0965 84.2357C89.8273 85.0837 88.8382 86.289 88.2541 87.6992C87.6699 89.1094 87.5171 90.6611 87.8149 92.1582C88.1127 93.6553 88.8477 95.0304 89.927 96.1097C91.0063 97.189 92.3815 97.924 93.8785 98.2218C95.3756 98.5196 96.9273 98.3668 98.3375 97.7826C99.7477 97.1985 100.953 96.2094 101.801 94.9402C102.649 93.6711 103.102 92.179 103.102 90.6526C103.104 89.6386 102.905 88.6342 102.518 87.697C102.131 86.7598 101.562 85.9083 100.845 85.1913C100.128 84.4743 99.2769 83.9059 98.3397 83.5187C97.4025 83.1315 96.3981 82.9332 95.3841 82.9351ZM95.3841 95.6718C94.3923 95.6718 93.4228 95.3777 92.5982 94.8267C91.7736 94.2757 91.1309 93.4926 90.7513 92.5763C90.3718 91.66 90.2725 90.6517 90.466 89.679C90.6595 88.7063 91.137 87.8128 91.8383 87.1115C92.5396 86.4102 93.4331 85.9326 94.4058 85.7392C95.3786 85.5457 96.3868 85.645 97.3031 86.0245C98.2194 86.404 99.0025 87.0468 99.5535 87.8714C100.105 88.696 100.399 89.6655 100.399 90.6573C100.396 91.9865 99.867 93.2605 98.9272 94.2003C97.9873 95.1402 96.7133 95.6693 95.3841 95.6718ZM105.215 82.6237C105.215 82.9801 105.109 83.3285 104.911 83.6249C104.713 83.9212 104.432 84.1522 104.103 84.2886C103.773 84.425 103.411 84.4606 103.061 84.3911C102.712 84.3216 102.391 84.15 102.139 83.8979C101.887 83.6459 101.715 83.3248 101.646 82.9753C101.576 82.6257 101.612 82.2634 101.748 81.9341C101.885 81.6048 102.116 81.3234 102.412 81.1254C102.708 80.9274 103.057 80.8217 103.413 80.8217C103.65 80.8205 103.885 80.866 104.104 80.9558C104.323 81.0456 104.522 81.1778 104.69 81.3448C104.858 81.5118 104.991 81.7103 105.082 81.929C105.173 82.1477 105.22 82.3822 105.22 82.619L105.215 82.6237ZM110.329 84.4257C110.215 82.0152 109.663 79.8782 107.899 78.1187C106.135 76.3591 104.003 75.8072 101.592 75.6893C99.1061 75.5478 91.6574 75.5478 89.1761 75.6893C86.7703 75.8025 84.6381 76.3544 82.8691 78.114C81.1001 79.8735 80.5576 82.0105 80.4397 84.421C80.2981 86.907 80.2981 94.3557 80.4397 96.837C80.5529 99.2475 81.1048 101.384 82.8691 103.144C84.6334 104.904 86.7656 105.456 89.1761 105.573C91.6622 105.715 99.1108 105.715 101.592 105.573C104.003 105.46 106.14 104.908 107.899 103.144C109.659 101.38 110.211 99.2475 110.329 96.837C110.47 94.351 110.47 86.9306 110.329 84.4257ZM107.13 99.5211C106.875 100.168 106.489 100.755 105.997 101.247C105.506 101.739 104.918 102.124 104.272 102.38C102.29 103.168 97.5871 102.984 95.3983 102.984C93.2094 102.984 88.5016 103.158 86.525 102.38C85.8782 102.124 85.2908 101.739 84.7991 101.247C84.3073 100.755 83.9218 100.168 83.6663 99.5211C82.8785 97.5399 83.0625 92.8367 83.0625 90.6479C83.0625 88.459 82.888 83.7512 83.6663 81.7746C83.9218 81.1278 84.3073 80.5404 84.7991 80.0487C85.2908 79.5569 85.8782 79.1714 86.525 78.9159C88.5063 78.1281 93.2094 78.3121 95.3983 78.3121C97.5871 78.3121 102.295 78.1376 104.272 78.9159C104.918 79.1714 105.506 79.5569 105.997 80.0487C106.489 80.5404 106.875 81.1278 107.13 81.7746C107.918 83.7559 107.734 88.459 107.734 90.6479C107.734 92.8367 107.904 97.5446 107.13 99.5211Z" fill="black"/>
<path opacity="0.1" d="M56.0936 108.668C56.9097 108.267 57.8296 107.663 57.8248 106.758C57.7827 106.429 57.6633 106.114 57.4764 105.84C57.2894 105.567 57.0403 105.341 56.7493 105.182C55.2775 104.182 55.3907 102.352 53.7019 102.932C52.5698 103.309 51.5838 104.026 50.48 104.484C49.7099 104.803 48.8921 104.993 48.06 105.045C47.5275 105.045 46.9959 105.087 46.4703 105.173C46.0508 105.273 45.6475 105.432 45.2721 105.644C42.9234 106.957 41.1787 109.133 40.4085 111.711C39.7104 114.102 39.7811 116.933 37.9791 118.65C37.6535 118.914 37.3535 119.207 37.0828 119.527C36.8457 119.882 36.685 120.282 36.6111 120.702C36.2869 122.129 36.4104 123.621 36.9649 124.976C37.2466 125.647 37.6653 126.252 38.194 126.752C38.7228 127.253 39.3501 127.637 40.0359 127.882C40.6444 128.08 41.2859 128.151 41.9228 128.306C44.8805 129.052 46.975 131.646 49.6686 133.08C49.8841 133.216 50.1311 133.294 50.3856 133.307C50.6634 133.276 50.926 133.165 51.1404 132.986C52.1829 132.24 53.0273 131.099 53.0273 129.806C52.9433 129.006 52.7097 128.228 52.3386 127.514C51.775 126.177 51.3436 124.788 51.0508 123.367C50.957 123.04 50.9473 122.694 51.0225 122.362C51.2159 121.74 51.9093 121.447 52.3905 121.004C53.3057 120.155 53.4142 118.721 53.0745 117.522C52.7349 116.324 52.032 115.268 51.5036 114.14C51.3216 113.801 51.2154 113.426 51.1923 113.041C51.1923 111.536 53.2255 110.72 54.084 109.739C55.2398 108.38 54.5039 109.456 56.0936 108.668Z" fill="black"/>
<path d="M55.8341 108.668C56.6502 108.267 57.5701 107.663 57.5654 106.758C57.5254 106.426 57.407 106.109 57.22 105.833C57.0329 105.556 56.7826 105.328 56.4898 105.168C55.018 104.168 55.1313 102.337 53.4425 102.918C52.3103 103.295 51.3244 104.012 50.2205 104.47C49.4504 104.789 48.6327 104.979 47.8006 105.031C47.2675 105.064 45.5504 104.253 45.0315 104.371C44.612 104.471 44.2087 104.63 43.8333 104.842C41.4846 106.155 39.74 108.331 38.9697 110.909C38.2716 113.3 38.7575 116.286 36.9555 117.985C36.6535 118.272 37.0639 119.15 36.8186 119.49C36.5815 119.844 36.4209 120.244 36.3469 120.664C36.0227 122.091 36.1462 123.584 36.7007 124.938C36.9825 125.609 37.4011 126.214 37.9299 126.715C38.4586 127.215 39.0859 127.6 39.7717 127.844C40.3802 128.042 41.0218 128.113 41.6586 128.268C44.6164 129.014 46.7109 131.608 49.4044 133.042C49.6199 133.178 49.8669 133.256 50.1215 133.269C50.3992 133.239 50.6618 133.127 50.8762 132.948C51.9188 132.203 52.7632 131.061 52.7632 129.769C52.6791 128.968 52.4455 128.19 52.0744 127.476C51.5108 126.139 51.0795 124.75 50.7866 123.329C50.6928 123.002 50.6831 122.657 50.7583 122.325C50.9517 121.702 51.6452 121.409 52.1263 120.966C53.0415 120.117 53.15 118.683 52.8103 117.485C52.4707 116.286 51.7678 115.23 51.2395 114.102C51.0575 113.763 50.9513 113.388 50.9281 113.003C50.9281 111.498 52.9613 110.682 53.8199 109.701C54.9803 108.38 54.2444 109.456 55.8341 108.668Z" fill="#865A61"/>
<path opacity="0.1" d="M66.8538 211.944C71.5711 211.388 77.5149 210.84 80.1283 211.274C84.3314 211.973 90.2281 208.227 91.2895 207.524C89.1054 201.51 87.3364 196.854 87.3364 196.854C87.3364 196.854 70.0852 197.627 66.4811 203.807C64.8301 206.637 65.5707 209.581 66.8538 211.944Z" fill="black"/>
<path d="M44.338 145.364C45.3664 154.374 55.6596 166.993 55.6596 166.993C55.6596 166.993 62.8676 174.46 60.5514 199.948L60.292 212.307C60.292 212.307 75.4818 209.991 80.1047 210.765C84.7277 211.539 91.4263 206.901 91.4263 206.901C91.4263 206.901 94.0019 162.361 82.9351 153.091C81.5695 150.99 80.0842 148.969 78.4867 147.039C75.5148 143.439 71.472 139.387 67.6935 138.387C67.2068 138.255 66.7068 138.177 66.2028 138.156C66.2028 138.156 54.6171 131.722 51.5272 136.613C51.5461 136.609 43.3097 136.354 44.338 145.364Z" fill="#C4C8E2"/>
<path opacity="0.1" d="M91.3272 193.396C91.3272 193.396 87.209 191.594 80.2557 192.108C73.3024 192.622 60.9147 186.447 60.9147 186.447" fill="black"/>
<path opacity="0.05" d="M83.8597 250.796C83.8597 250.796 83.6002 251.57 86.9495 252.598C90.2988 253.626 91.3272 254.66 91.3272 254.66" fill="black"/>
<path d="M73.6373 108.456C73.6555 109.672 73.9576 110.868 74.5194 111.947L75.996 114.805L77.0243 116.787L83.4587 117.301C83.4587 117.301 83.5908 116.772 83.7559 115.886C84.2277 113.31 84.9966 107.748 83.4587 103.904C81.3973 98.7523 80.6284 88.7139 76.7649 91.0301C73.7175 92.8793 73.5713 103.96 73.6373 108.456Z" fill="#FDC2CC"/>
<path opacity="0.1" d="M75.996 114.725V114.805L77.0243 116.787L83.4588 117.301C83.4588 117.301 83.5908 116.772 83.7559 115.886C81.468 114.999 78.449 114.183 75.996 114.725Z" fill="black"/>
<path d="M75.996 115.239V119.872L85.2655 124.764C85.2655 124.764 85.3693 123.924 85.5674 122.839C85.9023 120.976 86.5109 118.39 87.327 118.07C87.3175 118.074 80.6425 114.211 75.996 115.239Z" fill="#EAEAF3"/>
<path opacity="0.05" d="M50.9423 157.322C52.0712 158.317 53.3937 159.067 54.8266 159.526C56.2595 159.985 57.7717 160.142 59.2683 159.988C75.5667 158.332 76.0101 152.572 76.0101 152.572L78.515 147.034C75.5431 143.435 71.5003 139.383 67.7218 138.382C65.0188 142.737 62.6271 145.878 62.6271 145.878C62.6271 145.878 50.5272 136.609 46.9231 145.364C44.8145 150.468 47.9515 154.685 50.9423 157.322Z" fill="black"/>
<path opacity="0.1" d="M75.996 118.079V119.876L85.2655 124.768C85.2655 124.768 85.3693 123.929 85.5674 122.844C81.586 121.56 77.6329 119.136 75.996 118.079Z" fill="black"/>
<path d="M74.977 118.074C74.977 118.074 81.9303 122.966 87.8506 123.995L75.7506 150.77C75.7506 150.77 75.3072 156.53 59.0089 158.186C57.5123 158.339 56.0001 158.182 54.5673 157.723C53.1344 157.265 51.8119 156.515 50.6828 155.52C47.6968 152.879 44.5503 148.657 46.659 143.562C50.263 134.807 62.3629 144.076 62.3629 144.076C62.3629 144.076 74.7223 127.858 74.977 118.074Z" fill="#C4C8E2"/>
<path opacity="0.2" d="M174.21 76.8781C174.21 77.1988 174.21 77.5149 174.21 77.8215C174.21 87.5345 166.818 98.7287 153.303 98.7287C149.302 98.7385 145.384 97.5918 142.019 95.4266C142.608 95.491 143.201 95.5209 143.793 95.5162C147.1 95.5252 150.314 94.4202 152.916 92.3792C151.384 92.3513 149.898 91.8453 148.666 90.9319C147.435 90.0185 146.52 88.7433 146.048 87.2845C146.507 87.3569 146.97 87.3948 147.435 87.3977C148.088 87.3959 148.737 87.3119 149.369 87.1477C147.705 86.8109 146.209 85.9085 145.135 84.5937C144.061 83.2788 143.475 81.6327 143.477 79.9349V79.8453C144.489 80.4143 145.62 80.7375 146.779 80.7887C145.22 79.7484 144.117 78.1524 143.694 76.3264C143.272 74.5004 143.562 72.582 144.506 70.9626C146.351 73.2343 148.654 75.0928 151.264 76.4174C153.875 77.7421 156.734 78.5033 159.658 78.6518C159.539 78.0982 159.477 77.5339 159.474 76.9677C159.47 75.4893 159.912 74.0443 160.742 72.821C161.572 71.5977 162.752 70.6529 164.127 70.11C165.502 69.5671 167.009 69.4513 168.451 69.7775C169.893 70.1038 171.203 70.8571 172.21 71.939C173.856 71.6225 175.435 71.0224 176.876 70.1653C176.327 71.8629 175.178 73.3021 173.644 74.2128C175.108 74.0483 176.54 73.665 177.89 73.0759C176.886 74.5412 175.642 75.8266 174.21 76.8781Z" fill="black"/>
<path opacity="0.2" d="M146.586 153.369V181.065C146.586 181.52 146.405 181.957 146.083 182.279C145.761 182.601 145.324 182.782 144.869 182.782H136.93V170.729H140.972L141.567 166.035H136.911V163.035C136.911 161.672 137.288 160.747 139.241 160.747H141.727V156.544C140.522 156.416 139.311 156.353 138.099 156.355C134.514 156.355 132.052 158.544 132.052 162.568V166.035H127.995V170.753H132.052V182.81H117.169C116.714 182.809 116.278 182.628 115.956 182.306C115.634 181.984 115.453 181.548 115.452 181.093V153.369C115.453 152.914 115.634 152.478 115.956 152.157C116.278 151.835 116.714 151.653 117.169 151.652H144.869C145.324 151.653 145.76 151.835 146.082 152.157C146.403 152.478 146.585 152.914 146.586 153.369Z" fill="black"/>
<path opacity="0.1" d="M293.332 116.456C292.99 115.411 292.378 114.473 291.56 113.738C290.741 113.003 289.743 112.496 288.667 112.267C284.714 111.437 269.113 112.319 269.113 112.319C269.113 112.319 253.508 113.201 249.678 114.47C248.634 114.819 247.701 115.436 246.971 116.258C246.24 117.081 245.739 118.082 245.517 119.159C244.697 123.136 245.159 131.306 245.159 131.306C245.159 131.306 245.631 139.477 246.885 143.336C247.229 144.373 247.842 145.3 248.66 146.023C249.479 146.747 250.475 147.24 251.546 147.454C255.499 148.284 271.099 147.402 271.099 147.402C271.099 147.402 286.704 146.52 290.535 145.251C291.575 144.918 292.508 144.315 293.24 143.503C293.972 142.692 294.476 141.702 294.7 140.633C295.521 136.656 295.059 128.486 295.059 128.486C295.059 128.486 294.596 120.315 293.332 116.456ZM265.424 137.609L264.585 122.768L278.048 129.448L265.424 137.604V137.609Z" fill="#eb7b05bf"/>
</g>
<defs>
<linearGradient id="paint0_linear" x1="102.611" y1="373.597" x2="102.611" y2="16.0247" gradientUnits="userSpaceOnUse">
<stop stop-color="#808080" stop-opacity="0.25"/>
<stop offset="0.54" stop-color="#808080" stop-opacity="0.12"/>
<stop offset="1" stop-color="#808080" stop-opacity="0.1"/>
</linearGradient>
<linearGradient id="paint1_linear" x1="-75077.7" y1="146584" x2="-75077.7" y2="46734" gradientUnits="userSpaceOnUse">
<stop stop-color="#808080" stop-opacity="0.25"/>
<stop offset="0.54" stop-color="#808080" stop-opacity="0.12"/>
<stop offset="1" stop-color="#808080" stop-opacity="0.1"/>
</linearGradient>
<clipPath id="clip0">
<rect width="510.503" height="400" fill="white"/>
</clipPath>
</defs>
</svg>
