<svg width="722" height="450" viewBox="0 0 722 450" fill="none" xmlns="http://www.w3.org/2000/svg">
<g clip-path="url(#clip0)">
<path d="M176.406 282.938H117.262C113.878 282.938 111.134 285.682 111.134 289.066V305.231C111.134 308.616 113.878 311.359 117.262 311.359H176.406C179.791 311.359 182.534 308.616 182.534 305.231V289.066C182.534 285.682 179.791 282.938 176.406 282.938Z" fill="#FF9800"/>
<path d="M247.807 282.938H188.663C185.278 282.938 182.535 285.682 182.535 289.066V305.231C182.535 308.616 185.278 311.359 188.663 311.359H247.807C251.191 311.359 253.935 308.616 253.935 305.231V289.066C253.935 285.682 251.191 282.938 247.807 282.938Z" fill="#FF9800"/>
<path opacity="0.1" d="M247.807 282.938H188.663C185.278 282.938 182.535 285.682 182.535 289.066V305.231C182.535 308.616 185.278 311.359 188.663 311.359H247.807C251.191 311.359 253.935 308.616 253.935 305.231V289.066C253.935 285.682 251.191 282.938 247.807 282.938Z" fill="black"/>
<path d="M319.207 282.938H260.062C256.678 282.938 253.935 285.682 253.935 289.066V305.231C253.935 308.616 256.678 311.359 260.062 311.359H319.207C322.591 311.359 325.335 308.616 325.335 305.231V289.066C325.335 285.682 322.591 282.938 319.207 282.938Z" fill="#FF9800"/>
<path d="M390.607 282.938H331.462C328.078 282.938 325.334 285.682 325.334 289.066V305.231C325.334 308.616 328.078 311.359 331.462 311.359H390.607C393.991 311.359 396.734 308.616 396.734 305.231V289.066C396.734 285.682 393.991 282.938 390.607 282.938Z" fill="#FF9800"/>
<path opacity="0.1" d="M390.607 282.938H331.462C328.078 282.938 325.334 285.682 325.334 289.066V305.231C325.334 308.616 328.078 311.359 331.462 311.359H390.607C393.991 311.359 396.734 308.616 396.734 305.231V289.066C396.734 285.682 393.991 282.938 390.607 282.938Z" fill="black"/>
<path d="M462.006 282.938H402.862C399.478 282.938 396.734 285.682 396.734 289.066V305.231C396.734 308.616 399.478 311.359 402.862 311.359H462.006C465.391 311.359 468.134 308.616 468.134 305.231V289.066C468.134 285.682 465.391 282.938 462.006 282.938Z" fill="#FF9800"/>
<path d="M533.406 282.938H474.262C470.878 282.938 468.134 285.682 468.134 289.066V305.231C468.134 308.616 470.878 311.359 474.262 311.359H533.406C536.791 311.359 539.534 308.616 539.534 305.231V289.066C539.534 285.682 536.791 282.938 533.406 282.938Z" fill="#FF9800"/>
<path opacity="0.1" d="M533.406 282.938H474.262C470.878 282.938 468.134 285.682 468.134 289.066V305.231C468.134 308.616 470.878 311.359 474.262 311.359H533.406C536.791 311.359 539.534 308.616 539.534 305.231V289.066C539.534 285.682 536.791 282.938 533.406 282.938Z" fill="black"/>
<path d="M474.262 282.938H533.406C536.791 282.938 539.534 280.194 539.534 276.81V260.645C539.534 257.26 536.791 254.517 533.406 254.517H474.262C470.878 254.517 468.134 257.26 468.134 260.645V276.81C468.134 280.194 470.878 282.938 474.262 282.938Z" fill="#FF9800"/>
<path d="M402.862 282.938H462.006C465.391 282.938 468.134 280.194 468.134 276.81V260.645C468.134 257.26 465.391 254.517 462.006 254.517H402.862C399.478 254.517 396.734 257.26 396.734 260.645V276.81C396.734 280.194 399.478 282.938 402.862 282.938Z" fill="#FF9800"/>
<path opacity="0.1" d="M402.862 282.938H462.006C465.391 282.938 468.134 280.194 468.134 276.81V260.645C468.134 257.26 465.391 254.517 462.006 254.517H402.862C399.478 254.517 396.734 257.26 396.734 260.645V276.81C396.734 280.194 399.478 282.938 402.862 282.938Z" fill="black"/>
<path d="M331.462 282.938H390.606C393.991 282.938 396.734 280.194 396.734 276.81V260.645C396.734 257.26 393.991 254.517 390.606 254.517H331.462C328.078 254.517 325.334 257.26 325.334 260.645V276.81C325.334 280.194 328.078 282.938 331.462 282.938Z" fill="#FF9800"/>
<path d="M260.062 282.938H319.207C322.591 282.938 325.334 280.194 325.334 276.81V260.645C325.334 257.26 322.591 254.517 319.207 254.517H260.062C256.678 254.517 253.935 257.26 253.935 260.645V276.81C253.935 280.194 256.678 282.938 260.062 282.938Z" fill="#FF9800"/>
<path opacity="0.1" d="M260.062 282.938H319.207C322.591 282.938 325.334 280.194 325.334 276.81V260.645C325.334 257.26 322.591 254.517 319.207 254.517H260.062C256.678 254.517 253.935 257.26 253.935 260.645V276.81C253.935 280.194 256.678 282.938 260.062 282.938Z" fill="black"/>
<path d="M188.663 282.938H247.807C251.191 282.938 253.935 280.194 253.935 276.81V260.645C253.935 257.26 251.191 254.517 247.807 254.517H188.663C185.278 254.517 182.535 257.26 182.535 260.645V276.81C182.535 280.194 185.278 282.938 188.663 282.938Z" fill="#FF9800"/>
<path d="M117.263 282.938H176.407C179.791 282.938 182.535 280.194 182.535 276.81V260.645C182.535 257.26 179.791 254.517 176.407 254.517H117.263C113.878 254.517 111.135 257.26 111.135 260.645V276.81C111.135 280.194 113.878 282.938 117.263 282.938Z" fill="#FF9800"/>
<path opacity="0.1" d="M117.263 282.938H176.407C179.791 282.938 182.535 280.194 182.535 276.81V260.645C182.535 257.26 179.791 254.517 176.407 254.517H117.263C113.878 254.517 111.135 257.26 111.135 260.645V276.81C111.135 280.194 113.878 282.938 117.263 282.938Z" fill="black"/>
<path d="M176.406 226.095H117.262C113.878 226.095 111.134 228.839 111.134 232.223V248.389C111.134 251.773 113.878 254.517 117.262 254.517H176.406C179.791 254.517 182.534 251.773 182.534 248.389V232.223C182.534 228.839 179.791 226.095 176.406 226.095Z" fill="#FF9800"/>
<path d="M247.807 226.095H188.663C185.278 226.095 182.535 228.839 182.535 232.223V248.389C182.535 251.773 185.278 254.517 188.663 254.517H247.807C251.191 254.517 253.935 251.773 253.935 248.389V232.223C253.935 228.839 251.191 226.095 247.807 226.095Z" fill="#FF9800"/>
<path opacity="0.1" d="M247.807 226.095H188.663C185.278 226.095 182.535 228.839 182.535 232.223V248.389C182.535 251.773 185.278 254.517 188.663 254.517H247.807C251.191 254.517 253.935 251.773 253.935 248.389V232.223C253.935 228.839 251.191 226.095 247.807 226.095Z" fill="black"/>
<path d="M319.207 226.095H260.062C256.678 226.095 253.935 228.839 253.935 232.223V248.389C253.935 251.773 256.678 254.517 260.062 254.517H319.207C322.591 254.517 325.335 251.773 325.335 248.389V232.223C325.335 228.839 322.591 226.095 319.207 226.095Z" fill="#FF9800"/>
<path d="M390.607 226.095H331.462C328.078 226.095 325.334 228.839 325.334 232.223V248.389C325.334 251.773 328.078 254.517 331.462 254.517H390.607C393.991 254.517 396.734 251.773 396.734 248.389V232.223C396.734 228.839 393.991 226.095 390.607 226.095Z" fill="#FF9800"/>
<path opacity="0.1" d="M390.607 226.095H331.462C328.078 226.095 325.334 228.839 325.334 232.223V248.389C325.334 251.773 328.078 254.517 331.462 254.517H390.607C393.991 254.517 396.734 251.773 396.734 248.389V232.223C396.734 228.839 393.991 226.095 390.607 226.095Z" fill="black"/>
<path d="M462.006 226.095H402.862C399.478 226.095 396.734 228.839 396.734 232.223V248.389C396.734 251.773 399.478 254.517 402.862 254.517H462.006C465.391 254.517 468.134 251.773 468.134 248.389V232.223C468.134 228.839 465.391 226.095 462.006 226.095Z" fill="#FF9800"/>
<path d="M533.406 226.095H474.262C470.878 226.095 468.134 228.839 468.134 232.223V248.389C468.134 251.773 470.878 254.517 474.262 254.517H533.406C536.791 254.517 539.534 251.773 539.534 248.389V232.223C539.534 228.839 536.791 226.095 533.406 226.095Z" fill="#FF9800"/>
<path opacity="0.1" d="M533.406 226.095H474.262C470.878 226.095 468.134 228.839 468.134 232.223V248.389C468.134 251.773 470.878 254.517 474.262 254.517H533.406C536.791 254.517 539.534 251.773 539.534 248.389V232.223C539.534 228.839 536.791 226.095 533.406 226.095Z" fill="black"/>
<path d="M474.262 226.095H533.406C536.791 226.095 539.534 223.352 539.534 219.967V203.802C539.534 200.417 536.791 197.674 533.406 197.674H474.262C470.878 197.674 468.134 200.417 468.134 203.802V219.967C468.134 223.352 470.878 226.095 474.262 226.095Z" fill="#FF9800"/>
<path d="M402.862 226.095H462.006C465.391 226.095 468.134 223.352 468.134 219.967V203.802C468.134 200.417 465.391 197.674 462.006 197.674H402.862C399.478 197.674 396.734 200.417 396.734 203.802V219.967C396.734 223.352 399.478 226.095 402.862 226.095Z" fill="#FF9800"/>
<path opacity="0.1" d="M402.862 226.095H462.006C465.391 226.095 468.134 223.352 468.134 219.967V203.802C468.134 200.417 465.391 197.674 462.006 197.674H402.862C399.478 197.674 396.734 200.417 396.734 203.802V219.967C396.734 223.352 399.478 226.095 402.862 226.095Z" fill="black"/>
<path d="M331.462 226.095H390.606C393.991 226.095 396.734 223.352 396.734 219.967V203.802C396.734 200.417 393.991 197.674 390.606 197.674H331.462C328.078 197.674 325.334 200.417 325.334 203.802V219.967C325.334 223.352 328.078 226.095 331.462 226.095Z" fill="#FF9800"/>
<path d="M260.062 226.095H319.207C322.591 226.095 325.334 223.352 325.334 219.967V203.802C325.334 200.417 322.591 197.674 319.207 197.674H260.062C256.678 197.674 253.935 200.417 253.935 203.802V219.967C253.935 223.352 256.678 226.095 260.062 226.095Z" fill="#FF9800"/>
<path opacity="0.1" d="M260.062 226.095H319.207C322.591 226.095 325.334 223.352 325.334 219.967V203.802C325.334 200.417 322.591 197.674 319.207 197.674H260.062C256.678 197.674 253.935 200.417 253.935 203.802V219.967C253.935 223.352 256.678 226.095 260.062 226.095Z" fill="black"/>
<path d="M188.663 226.095H247.807C251.191 226.095 253.935 223.352 253.935 219.967V203.802C253.935 200.417 251.191 197.674 247.807 197.674H188.663C185.278 197.674 182.535 200.417 182.535 203.802V219.967C182.535 223.352 185.278 226.095 188.663 226.095Z" fill="#FF9800"/>
<path d="M117.263 226.095H176.407C179.791 226.095 182.535 223.352 182.535 219.967V203.802C182.535 200.417 179.791 197.674 176.407 197.674H117.263C113.878 197.674 111.135 200.417 111.135 203.802V219.967C111.135 223.352 113.878 226.095 117.263 226.095Z" fill="#FF9800"/>
<path opacity="0.1" d="M117.263 226.095H176.407C179.791 226.095 182.535 223.352 182.535 219.967V203.802C182.535 200.417 179.791 197.674 176.407 197.674H117.263C113.878 197.674 111.135 200.417 111.135 203.802V219.967C111.135 223.352 113.878 226.095 117.263 226.095Z" fill="black"/>
<path d="M176.406 170.639H117.262C113.878 170.639 111.134 173.383 111.134 176.767V192.932C111.134 196.317 113.878 199.06 117.262 199.06H176.406C179.791 199.06 182.534 196.317 182.534 192.932V176.767C182.534 173.383 179.791 170.639 176.406 170.639Z" fill="#FF9800"/>
<path d="M247.807 170.639H188.663C185.278 170.639 182.535 173.383 182.535 176.767V192.932C182.535 196.317 185.278 199.06 188.663 199.06H247.807C251.191 199.06 253.935 196.317 253.935 192.932V176.767C253.935 173.383 251.191 170.639 247.807 170.639Z" fill="#FF9800"/>
<path opacity="0.1" d="M247.807 170.639H188.663C185.278 170.639 182.535 173.383 182.535 176.767V192.932C182.535 196.317 185.278 199.06 188.663 199.06H247.807C251.191 199.06 253.935 196.317 253.935 192.932V176.767C253.935 173.383 251.191 170.639 247.807 170.639Z" fill="black"/>
<path d="M319.207 170.639H260.062C256.678 170.639 253.935 173.383 253.935 176.767V192.932C253.935 196.317 256.678 199.06 260.062 199.06H319.207C322.591 199.06 325.335 196.317 325.335 192.932V176.767C325.335 173.383 322.591 170.639 319.207 170.639Z" fill="#FF9800"/>
<path d="M390.607 170.639H331.462C328.078 170.639 325.334 173.383 325.334 176.767V192.932C325.334 196.317 328.078 199.06 331.462 199.06H390.607C393.991 199.06 396.734 196.317 396.734 192.932V176.767C396.734 173.383 393.991 170.639 390.607 170.639Z" fill="#FF9800"/>
<path opacity="0.1" d="M390.607 170.639H331.462C328.078 170.639 325.334 173.383 325.334 176.767V192.932C325.334 196.317 328.078 199.06 331.462 199.06H390.607C393.991 199.06 396.734 196.317 396.734 192.932V176.767C396.734 173.383 393.991 170.639 390.607 170.639Z" fill="black"/>
<path d="M462.006 170.639H402.862C399.478 170.639 396.734 173.383 396.734 176.767V192.932C396.734 196.317 399.478 199.06 402.862 199.06H462.006C465.391 199.06 468.134 196.317 468.134 192.932V176.767C468.134 173.383 465.391 170.639 462.006 170.639Z" fill="#FF9800"/>
<path d="M533.406 170.639H474.262C470.878 170.639 468.134 173.383 468.134 176.767V192.932C468.134 196.317 470.878 199.06 474.262 199.06H533.406C536.791 199.06 539.534 196.317 539.534 192.932V176.767C539.534 173.383 536.791 170.639 533.406 170.639Z" fill="#FF9800"/>
<path opacity="0.1" d="M533.406 170.639H474.262C470.878 170.639 468.134 173.383 468.134 176.767V192.932C468.134 196.317 470.878 199.06 474.262 199.06H533.406C536.791 199.06 539.534 196.317 539.534 192.932V176.767C539.534 173.383 536.791 170.639 533.406 170.639Z" fill="black"/>
<path d="M474.262 170.639H533.406C536.791 170.639 539.534 167.895 539.534 164.511V148.346C539.534 144.961 536.791 142.218 533.406 142.218H474.262C470.878 142.218 468.134 144.961 468.134 148.346V164.511C468.134 167.895 470.878 170.639 474.262 170.639Z" fill="#FF9800"/>
<path d="M402.862 170.639H462.006C465.391 170.639 468.134 167.895 468.134 164.511V148.346C468.134 144.961 465.391 142.218 462.006 142.218H402.862C399.478 142.218 396.734 144.961 396.734 148.346V164.511C396.734 167.895 399.478 170.639 402.862 170.639Z" fill="#FF9800"/>
<path opacity="0.1" d="M402.862 170.639H462.006C465.391 170.639 468.134 167.895 468.134 164.511V148.346C468.134 144.961 465.391 142.218 462.006 142.218H402.862C399.478 142.218 396.734 144.961 396.734 148.346V164.511C396.734 167.895 399.478 170.639 402.862 170.639Z" fill="black"/>
<path d="M331.462 170.639H390.606C393.991 170.639 396.734 167.895 396.734 164.511V148.346C396.734 144.961 393.991 142.218 390.606 142.218H331.462C328.078 142.218 325.334 144.961 325.334 148.346V164.511C325.334 167.895 328.078 170.639 331.462 170.639Z" fill="#FF9800"/>
<path d="M260.062 170.639H319.207C322.591 170.639 325.334 167.895 325.334 164.511V148.346C325.334 144.961 322.591 142.218 319.207 142.218H260.062C256.678 142.218 253.935 144.961 253.935 148.346V164.511C253.935 167.895 256.678 170.639 260.062 170.639Z" fill="#FF9800"/>
<path opacity="0.1" d="M260.062 170.639H319.207C322.591 170.639 325.334 167.895 325.334 164.511V148.346C325.334 144.961 322.591 142.218 319.207 142.218H260.062C256.678 142.218 253.935 144.961 253.935 148.346V164.511C253.935 167.895 256.678 170.639 260.062 170.639Z" fill="black"/>
<path d="M188.663 170.639H247.807C251.191 170.639 253.935 167.895 253.935 164.511V148.346C253.935 144.961 251.191 142.218 247.807 142.218H188.663C185.278 142.218 182.535 144.961 182.535 148.346V164.511C182.535 167.895 185.278 170.639 188.663 170.639Z" fill="#FF9800"/>
<path d="M117.263 170.639H176.407C179.791 170.639 182.535 167.895 182.535 164.511V148.346C182.535 144.961 179.791 142.218 176.407 142.218H117.263C113.878 142.218 111.135 144.961 111.135 148.346V164.511C111.135 167.895 113.878 170.639 117.263 170.639Z" fill="#FF9800"/>
<path opacity="0.1" d="M117.263 170.639H176.407C179.791 170.639 182.535 167.895 182.535 164.511V148.346C182.535 144.961 179.791 142.218 176.407 142.218H117.263C113.878 142.218 111.135 144.961 111.135 148.346V164.511C111.135 167.895 113.878 170.639 117.263 170.639Z" fill="black"/>
<path d="M176.406 113.796H117.262C113.878 113.796 111.134 116.54 111.134 119.924V136.09C111.134 139.474 113.878 142.218 117.262 142.218H176.406C179.791 142.218 182.534 139.474 182.534 136.09V119.924C182.534 116.54 179.791 113.796 176.406 113.796Z" fill="#FF9800"/>
<path d="M247.807 113.796H188.663C185.278 113.796 182.535 116.54 182.535 119.924V136.09C182.535 139.474 185.278 142.218 188.663 142.218H247.807C251.191 142.218 253.935 139.474 253.935 136.09V119.924C253.935 116.54 251.191 113.796 247.807 113.796Z" fill="#FF9800"/>
<path opacity="0.1" d="M247.807 113.796H188.663C185.278 113.796 182.535 116.54 182.535 119.924V136.09C182.535 139.474 185.278 142.218 188.663 142.218H247.807C251.191 142.218 253.935 139.474 253.935 136.09V119.924C253.935 116.54 251.191 113.796 247.807 113.796Z" fill="black"/>
<path d="M319.207 113.796H260.062C256.678 113.796 253.935 116.54 253.935 119.924V136.09C253.935 139.474 256.678 142.218 260.062 142.218H319.207C322.591 142.218 325.335 139.474 325.335 136.09V119.924C325.335 116.54 322.591 113.796 319.207 113.796Z" fill="#FF9800"/>
<path d="M390.607 113.796H331.462C328.078 113.796 325.334 116.54 325.334 119.924V136.09C325.334 139.474 328.078 142.218 331.462 142.218H390.607C393.991 142.218 396.734 139.474 396.734 136.09V119.924C396.734 116.54 393.991 113.796 390.607 113.796Z" fill="#FF9800"/>
<path opacity="0.1" d="M390.607 113.796H331.462C328.078 113.796 325.334 116.54 325.334 119.924V136.09C325.334 139.474 328.078 142.218 331.462 142.218H390.607C393.991 142.218 396.734 139.474 396.734 136.09V119.924C396.734 116.54 393.991 113.796 390.607 113.796Z" fill="black"/>
<path d="M462.006 113.796H402.862C399.478 113.796 396.734 116.54 396.734 119.924V136.09C396.734 139.474 399.478 142.218 402.862 142.218H462.006C465.391 142.218 468.134 139.474 468.134 136.09V119.924C468.134 116.54 465.391 113.796 462.006 113.796Z" fill="#FF9800"/>
<path d="M533.406 113.796H474.262C470.878 113.796 468.134 116.54 468.134 119.924V136.09C468.134 139.474 470.878 142.218 474.262 142.218H533.406C536.791 142.218 539.534 139.474 539.534 136.09V119.924C539.534 116.54 536.791 113.796 533.406 113.796Z" fill="#FF9800"/>
<path opacity="0.1" d="M533.406 113.796H474.262C470.878 113.796 468.134 116.54 468.134 119.924V136.09C468.134 139.474 470.878 142.218 474.262 142.218H533.406C536.791 142.218 539.534 139.474 539.534 136.09V119.924C539.534 116.54 536.791 113.796 533.406 113.796Z" fill="black"/>
<path d="M533.406 19.1116H468.717C465.332 19.1116 462.589 21.8552 462.589 25.2395V43.6094C462.589 46.9938 465.332 49.7374 468.717 49.7374H533.406C536.791 49.7374 539.534 46.9938 539.534 43.6094V25.2395C539.534 21.8552 536.791 19.1116 533.406 19.1116Z" fill="url(#paint0_linear)"/>
<path d="M471.49 48.6352L530.634 48.6352C534.018 48.6352 536.762 45.8916 536.762 42.5072V26.3417C536.762 22.9574 534.018 20.2138 530.634 20.2138L471.49 20.2138C468.105 20.2138 465.362 22.9574 465.362 26.3417V42.5072C465.362 45.8916 468.105 48.6352 471.49 48.6352Z" fill="#FF9800"/>
<path d="M402.862 113.796L462.006 113.796C465.391 113.796 468.134 111.053 468.134 107.668V91.5029C468.134 88.1185 465.391 85.375 462.006 85.375H402.862C399.478 85.375 396.734 88.1185 396.734 91.5029V107.668C396.734 111.053 399.478 113.796 402.862 113.796Z" fill="#FF9800"/>
<path opacity="0.1" d="M402.862 113.796L462.006 113.796C465.391 113.796 468.134 111.053 468.134 107.668V91.5029C468.134 88.1185 465.391 85.375 462.006 85.375H402.862C399.478 85.375 396.734 88.1185 396.734 91.5029V107.668C396.734 111.053 399.478 113.796 402.862 113.796Z" fill="black"/>
<path d="M331.462 113.796L390.606 113.796C393.991 113.796 396.734 111.053 396.734 107.668V91.5029C396.734 88.1185 393.991 85.375 390.606 85.375H331.462C328.078 85.375 325.334 88.1185 325.334 91.5029V107.668C325.334 111.053 328.078 113.796 331.462 113.796Z" fill="#FF9800"/>
<path d="M260.062 113.796L319.207 113.796C322.591 113.796 325.334 111.053 325.334 107.668V91.5029C325.334 88.1185 322.591 85.375 319.207 85.375H260.062C256.678 85.375 253.935 88.1185 253.935 91.5029V107.668C253.935 111.053 256.678 113.796 260.062 113.796Z" fill="#FF9800"/>
<path opacity="0.1" d="M260.062 113.796L319.207 113.796C322.591 113.796 325.334 111.053 325.334 107.668V91.5029C325.334 88.1185 322.591 85.375 319.207 85.375H260.062C256.678 85.375 253.935 88.1185 253.935 91.5029V107.668C253.935 111.053 256.678 113.796 260.062 113.796Z" fill="black"/>
<path d="M188.663 113.796L247.807 113.796C251.191 113.796 253.935 111.053 253.935 107.668V91.5029C253.935 88.1185 251.191 85.375 247.807 85.375H188.663C185.278 85.375 182.535 88.1185 182.535 91.5029V107.668C182.535 111.053 185.278 113.796 188.663 113.796Z" fill="#FF9800"/>
<path d="M117.263 113.796L176.407 113.796C179.791 113.796 182.535 111.053 182.535 107.668V91.5029C182.535 88.1185 179.791 85.375 176.407 85.375H117.263C113.878 85.375 111.135 88.1185 111.135 91.5029V107.668C111.135 111.053 113.878 113.796 117.263 113.796Z" fill="#FF9800"/>
<path opacity="0.1" d="M117.263 113.796L176.407 113.796C179.791 113.796 182.535 111.053 182.535 107.668V91.5029C182.535 88.1185 179.791 85.375 176.407 85.375H117.263C113.878 85.375 111.135 88.1185 111.135 91.5029V107.668C111.135 111.053 113.878 113.796 117.263 113.796Z" fill="black"/>
<path d="M345.909 450C536.949 450 691.817 414.774 691.817 371.321C691.817 327.868 536.949 292.643 345.909 292.643C154.869 292.643 0 327.868 0 371.321C0 414.774 154.869 450 345.909 450Z" fill="#008081"/>
<path d="M78.9906 336.01C78.9906 336.01 85.2294 314.929 77.826 299.408C74.688 292.92 73.7417 285.588 75.1294 278.515C75.8143 275.162 76.8051 271.879 78.0894 268.706" stroke="#535461" stroke-width="2" stroke-miterlimit="10"/>
<path d="M73.5005 258.905C73.5005 261.49 78.1796 268.984 78.1796 268.984C78.1796 268.984 82.8587 261.49 82.8587 258.905C82.8587 257.664 82.3658 256.473 81.4883 255.596C80.6108 254.718 79.4206 254.225 78.1796 254.225C76.9386 254.225 75.7485 254.718 74.871 255.596C73.9935 256.473 73.5005 257.664 73.5005 258.905V258.905Z" fill="#FF9800"/>
<path d="M65.764 273.219C67.1505 275.389 75.1708 279.132 75.1708 279.132C75.1708 279.132 75.0252 270.301 73.618 268.131C72.94 267.097 71.8803 266.373 70.6703 266.118C69.4604 265.863 68.1987 266.097 67.1609 266.77C66.1231 267.442 65.3937 268.498 65.1319 269.706C64.8702 270.915 65.0974 272.178 65.764 273.219Z" fill="#FF9800"/>
<path d="M66.104 297.675C68.4123 298.84 77.1952 298.036 77.1952 298.036C77.1952 298.036 72.6131 290.487 70.3048 289.322C69.2007 288.794 67.9337 288.72 66.7753 289.115C65.6169 289.51 64.6594 290.343 64.1081 291.436C63.5568 292.528 63.4555 293.793 63.826 294.96C64.1965 296.126 65.0093 297.101 66.0901 297.675H66.104Z" fill="#FF9800"/>
<path d="M70.5267 316.122C72.6063 317.661 81.41 318.354 81.41 318.354C81.41 318.354 78.1658 310.139 76.0931 308.6C75.0925 307.943 73.8778 307.694 72.6991 307.904C71.5204 308.115 70.4674 308.77 69.7568 309.734C69.0462 310.697 68.7321 311.897 68.8792 313.085C69.0263 314.273 69.6233 315.36 70.5475 316.122H70.5267Z" fill="#FF9800"/>
<path d="M84.9935 279.631C83.1427 281.434 74.5054 283.298 74.5054 283.298C74.5054 283.298 76.6196 274.723 78.4705 272.9C78.9111 272.472 79.4317 272.135 80.0027 271.908C80.5737 271.681 81.1838 271.568 81.7982 271.577C82.4126 271.586 83.0193 271.715 83.5836 271.958C84.1479 272.201 84.6588 272.553 85.0871 272.994C85.5154 273.435 85.8528 273.955 86.0799 274.526C86.307 275.097 86.4194 275.707 86.4107 276.322C86.402 276.936 86.2724 277.543 86.0292 278.107C85.7861 278.671 85.4341 279.182 84.9935 279.611V279.631Z" fill="#FF9800"/>
<path d="M89.8945 301.252C87.5861 302.417 78.8032 301.613 78.8032 301.613C78.8032 301.613 83.3853 294.064 85.6937 292.899C86.7937 292.403 88.043 292.351 89.1805 292.754C90.3181 293.157 91.2559 293.984 91.7981 295.062C92.3403 296.14 92.445 297.386 92.0903 298.54C91.7355 299.693 90.9488 300.665 89.8945 301.252V301.252Z" fill="#FF9800"/>
<path d="M91.7661 322.964C89.6865 324.502 80.8828 325.196 80.8828 325.196C80.8828 325.196 84.127 316.981 86.1997 315.442C87.2003 314.784 88.4149 314.535 89.5936 314.746C90.7723 314.957 91.8254 315.612 92.536 316.575C93.2466 317.539 93.5607 318.739 93.4136 319.927C93.2665 321.115 92.6694 322.202 91.7453 322.964H91.7661Z" fill="#FF9800"/>
<path d="M413.829 216.543C413.829 216.543 436.628 239.342 423.755 273.171C410.883 306.999 445.82 363.287 445.82 363.287C445.82 363.287 445.446 363.232 444.752 363.107C397.927 354.809 374.663 301.252 400.699 261.476C410.377 246.683 418.328 229.339 413.829 216.543Z" fill="#FF9800"/>
<path opacity="0.2" d="M413.829 216.543C413.829 216.543 436.628 239.342 423.755 273.171C410.883 306.999 445.82 363.287 445.82 363.287C445.82 363.287 445.446 363.232 444.752 363.107C397.927 354.809 374.663 301.252 400.699 261.476C410.377 246.683 418.328 229.339 413.829 216.543Z" fill="black"/>
<path d="M413.828 216.543C413.828 216.543 426.701 244.486 413.828 267.285C400.956 290.085 411.624 354.061 445.841 363.253" stroke="#535461" stroke-miterlimit="10"/>
<path d="M373.228 308.746C373.228 308.746 399.243 304.587 401.614 327.92C403.985 351.253 451.636 354.463 451.636 354.463L450.742 355.059C411.395 380.888 373.796 371.509 379.452 337.216C381.56 324.468 381.373 311.65 373.228 308.746Z" fill="#FF9800"/>
<path opacity="0.2" d="M373.228 308.746C373.228 308.746 399.243 304.587 401.614 327.92C403.985 351.253 451.636 354.463 451.636 354.463L450.742 355.059C411.395 380.888 373.796 371.509 379.452 337.216C381.56 324.468 381.373 311.65 373.228 308.746Z" fill="#008081"/>
<path d="M373.228 308.746C373.228 308.746 393.421 313.175 391.764 331.538C390.107 349.901 421.752 371.911 451.636 354.463" stroke="#535461" stroke-miterlimit="10"/>
<path d="M571.151 362.414C571.151 362.414 532.54 354.691 522.239 344.39C511.938 334.089 465.604 316.073 460.454 328.946C455.303 341.819 390.953 385.588 434.75 393.31C478.546 401.032 537.718 403.604 550.591 398.46C563.464 393.317 571.151 362.414 571.151 362.414Z" fill="#A8A8A8"/>
<path opacity="0.2" d="M434.75 388.527C478.512 396.249 537.718 398.821 550.591 393.677C560.393 389.754 567.228 370.919 569.897 362.15L571.186 362.421C571.186 362.421 563.464 393.31 550.591 398.467C537.718 403.625 478.498 401.039 434.75 393.317C422.12 391.085 418.508 385.851 419.867 379.224C420.886 383.543 425.315 386.863 434.75 388.527Z" fill="black"/>
<path d="M649.275 19.5275C648.587 17.8127 647.49 16.2921 646.08 15.098C635.716 5.65653 618.962 8.51947 606.096 2.74508C603.129 1.41413 600.093 -0.429792 596.876 0.0762465C592.384 0.76945 588.204 5.89915 584.288 3.62545L584.565 4.47809L584.288 4.33252L587.171 13.1085C588.28 16.4774 589.445 19.9435 591.594 22.7509C588.412 25.5255 585.977 29.0536 584.511 33.0125C583.045 36.9714 582.595 41.2348 583.203 45.4124C583.81 49.5901 585.456 53.5487 587.989 56.9261C590.521 60.3035 593.861 62.9919 597.701 64.7452C597.84 65.0364 597.971 65.3344 598.103 65.6325L598.47 65.785C599.324 67.748 599.961 69.7981 600.37 71.8991C597.036 72.3635 591.22 76.0583 585.508 81.493L574.084 81.1117C566.695 80.8651 559.544 78.4335 553.537 74.1243L519.32 49.5502C516.883 49.7902 514.587 50.8059 512.77 52.4478C508.527 48.0251 504.923 43.4361 505.228 40.6633C505.228 40.6633 489.326 10.9041 483.544 25.7802C477.763 40.6564 494.386 56.2812 494.386 56.2812L504.93 69.9442C504.513 72.3397 504.249 74.7593 504.139 77.1882C517.151 92.0713 562.68 105.533 562.68 105.533L569.779 105.88L569.82 106.227C569.384 108.089 569.169 109.997 569.183 111.911C569.183 112.188 569.183 112.472 569.183 112.763C569.183 113.055 569.183 113.145 569.183 113.332C569.543 137.067 572.794 209.687 572.794 209.687C573.425 209.403 574.084 209.146 574.749 208.904L574.243 215.358C574.243 215.358 543.888 219.607 521.483 228.112C499.079 236.618 498.358 246.538 498.358 246.538V334.062C491.96 337.347 481.86 341.687 476.675 339.351C471.046 336.841 467.961 338.949 467.4 341.146C467.293 341.581 467.293 342.035 467.4 342.47C467.447 342.666 467.519 342.854 467.614 343.032V343.073C467.718 343.257 467.846 343.425 467.996 343.572C470.165 345.701 517.144 364.119 527.986 361.284C528.321 361.196 528.65 361.085 528.97 360.951C529.074 360.909 529.164 360.854 529.268 360.805C529.372 360.757 529.67 360.618 529.857 360.507C530.044 360.396 530.072 360.362 530.176 360.292C530.28 360.223 530.502 360.078 530.654 359.96C530.807 359.842 530.855 359.78 530.952 359.689C531.05 359.599 531.237 359.447 531.361 359.308C531.486 359.17 531.542 359.1 531.632 358.996C531.722 358.892 531.881 358.719 531.992 358.566C532.103 358.414 532.145 358.338 532.228 358.227C532.311 358.116 532.45 357.908 532.547 357.742C532.644 357.575 532.679 357.506 532.741 357.381C532.803 357.256 532.935 357.028 533.025 356.84C533.115 356.653 533.136 356.598 533.185 356.473C533.233 356.348 533.358 356.078 533.434 355.877C533.51 355.676 533.517 355.634 533.566 355.509C533.614 355.385 533.718 355.073 533.781 354.816C533.781 354.698 533.843 354.581 533.878 354.463C533.94 354.22 534.009 353.984 534.065 353.769C534.065 353.659 534.113 353.548 534.134 353.437C534.19 353.173 534.245 352.91 534.287 352.646C534.287 352.549 534.287 352.445 534.335 352.348C534.384 352.064 534.425 351.773 534.46 351.489V351.239C534.495 350.927 534.529 350.615 534.557 350.303V350.109C534.585 349.772 534.606 349.435 534.619 349.097V348.959C534.619 348.598 534.619 348.238 534.619 347.877V347.808C534.606 343.581 534.142 339.368 533.233 335.24V335.24L535.957 260.7C550.153 260.921 564.351 260.398 578.492 259.133L580.045 294.709C580.045 294.709 580.045 318.09 587.996 328.717C594.803 337.812 602.664 378.039 604.786 389.456C601.867 395.001 596.28 401.933 586.547 401.698C586.547 401.698 568.24 400.117 569.273 405.164C569.302 405.296 569.341 405.426 569.391 405.552V405.552C569.448 405.697 569.515 405.838 569.592 405.975V405.975C569.668 406.106 569.751 406.238 569.848 406.377L569.904 406.46C570.008 406.605 570.125 406.758 570.257 406.917V406.952C570.382 407.098 570.514 407.243 570.659 407.389L570.784 407.514C570.95 407.68 571.117 407.846 571.311 408.02C580.704 416.525 635.633 417.939 635.633 417.939V417.745C635.633 417.69 635.633 417.62 635.633 417.544C635.633 415.083 635.273 402.176 631.987 392.457H632.749C632.749 392.457 624.798 320.891 618.296 312.392C618.296 312.392 616.57 274.654 620.466 251.009L621.159 250.746C639.376 243.938 640.673 227.177 638.794 214.865C642.26 215.974 644.284 216.73 644.284 216.73C644.284 216.73 644.222 216.196 644.104 215.247L644.284 215.316C644.284 215.316 643.938 213.063 643.362 209.555C642.059 199.899 639.536 183.027 636.846 175.062C636.409 173.308 635.994 171.81 635.612 170.681C634.06 165.894 632.994 160.964 632.431 155.964C631.694 149.483 631.321 142.966 631.314 136.443C631.374 127.728 632.041 119.028 633.311 110.407C634.413 102.878 635.391 94.3103 635.321 88.328C635.398 86.2388 635.251 84.1474 634.884 82.0892C633.921 77.6734 629.658 74.8036 625.228 72.9735C624.944 72.8557 624.653 72.7586 624.362 72.6477C624.473 70.9771 624.611 69.0777 624.791 67.1021C625.322 67.4699 625.922 67.726 626.555 67.8547C627.188 67.9834 627.84 67.982 628.472 67.8508C630.379 67.4348 631.744 65.8474 632.957 64.3847C639.363 56.5169 645.941 48.3163 648.402 38.5421C649.396 34.1772 649.861 29.7086 649.788 25.2326C649.788 24.9877 649.788 24.7427 649.788 24.4978C649.907 22.8238 649.733 21.142 649.275 19.5275V19.5275Z" fill="url(#paint1_linear)"/>
<path d="M590.956 57.8825C590.956 57.8825 600.661 72.4398 598.581 79.3718C596.502 86.3038 621.457 82.1446 621.457 82.1446C621.457 82.1446 622.15 55.1097 627.003 48.8709C631.855 42.632 590.956 57.8825 590.956 57.8825Z" fill="#A0616A"/>
<path d="M526.835 67.2408C526.835 67.2408 506.732 50.6039 507.425 44.365C507.425 44.365 492.175 15.2505 486.629 29.8078C481.083 44.365 497.027 59.6155 497.027 59.6155L516.437 85.264L526.835 67.2408Z" fill="#A0616A"/>
<path d="M506.385 328.232C506.385 328.232 487.669 340.016 480.044 336.55C472.418 333.084 469.645 338.63 471.725 340.71C473.805 342.789 518.863 360.812 529.261 358.04C539.659 355.267 534.37 332.557 534.37 332.557L506.385 328.232Z" fill="#535461"/>
<path d="M605.513 378.836C605.513 378.836 601.008 397.899 585.411 397.552C585.411 397.552 561.842 395.473 570.853 403.791C579.865 412.11 632.548 413.496 632.548 413.496C632.548 413.496 632.548 385.075 622.844 378.836C613.139 372.597 605.513 378.836 605.513 378.836Z" fill="#535461"/>
<path d="M577.092 244.354L579.171 292.878C579.171 292.878 579.171 315.754 586.797 326.152C594.422 336.55 603.434 388.541 603.434 388.541H629.775C629.775 388.541 622.15 318.527 615.911 310.209C615.911 310.209 613.138 248.513 622.843 234.649L577.092 244.354Z" fill="#575988"/>
<path opacity="0.1" d="M577.092 244.354L579.171 292.878C579.171 292.878 579.171 315.754 586.797 326.152C594.422 336.55 603.434 388.541 603.434 388.541H629.775C629.775 388.541 622.15 318.527 615.911 310.209C615.911 310.209 613.138 248.513 622.843 234.649L577.092 244.354Z" fill="black"/>
<path d="M631.855 200.682C631.855 200.682 647.798 238.809 618.684 249.9C589.569 260.991 536.886 259.605 536.886 259.605L534.113 340.016C534.113 340.016 501.533 344.176 500.839 333.777V245.741C500.839 245.741 501.533 236.036 523.022 227.717C544.511 219.399 573.626 215.24 573.626 215.24L575.012 197.216L631.855 200.682Z" fill="#575988"/>
<path opacity="0.1" d="M606.311 75.0809C611.848 74.4678 617.45 75.2593 622.601 77.3823C626.85 79.1708 630.919 81.9783 631.862 86.2969C632.957 91.4128 631.744 102.885 630.351 112.597C628.119 127.816 627.835 143.258 629.505 158.55C630.199 164.92 631.204 170.473 632.555 172.947C636.715 180.573 640.874 216.619 640.874 216.619C640.874 216.619 595.122 199.289 572.247 209.687C572.247 209.687 569.127 138.634 568.781 115.411C568.51 97.4298 591.31 76.9387 598.935 76.2455C603.399 75.8434 601.867 75.5453 606.311 75.0809Z" fill="black"/>
<path d="M606.311 73.6945C611.848 73.0814 617.45 73.8729 622.601 75.9959C626.85 77.7844 630.919 80.5919 631.862 84.9105C632.957 90.0264 631.744 101.499 630.351 111.211C628.119 126.43 627.835 141.872 629.505 157.163C630.045 162.051 631.066 166.874 632.555 171.561C635.675 180.919 640.874 215.233 640.874 215.233C640.874 215.233 595.122 197.903 572.247 208.301C572.247 208.301 569.127 137.247 568.781 114.025C568.51 96.0434 591.31 75.5523 598.935 74.8591C603.399 74.457 601.867 74.1589 606.311 73.6945Z" fill="#E14B5A"/>
<path opacity="0.1" d="M618.684 111.952L569.467 109.18C569.467 109.18 566.334 85.0492 573.439 85.2987L622.15 86.9971C622.15 86.9971 632.548 99.4747 618.684 111.952Z" fill="black"/>
<path d="M618.684 110.566L562.535 107.793C562.535 107.793 518.863 94.6223 506.385 80.065C506.385 80.065 507.078 54.4165 520.943 53.0301L553.738 77.0773C559.47 81.2815 566.335 83.6631 573.439 83.9123L622.15 85.6106C622.15 85.6106 632.548 98.0883 618.684 110.566Z" fill="#E14B5A"/>
<path opacity="0.1" d="M621.11 61.0019C621.935 54.4303 624.916 52.2468 627.003 49.5641C631.855 43.3252 590.956 58.5757 590.956 58.5757C593.07 61.8233 594.925 65.2329 596.502 68.7727C599.762 70.2751 603.31 71.0531 606.9 71.0534C612.903 71.0534 616.799 64.5581 621.11 61.0019Z" fill="black"/>
<path d="M606.9 70.3602C620.682 70.3602 631.855 59.1873 631.855 45.4048C631.855 31.6224 620.682 20.4495 606.9 20.4495C593.117 20.4495 581.944 31.6224 581.944 45.4048C581.944 59.1873 593.117 70.3602 606.9 70.3602Z" fill="#A0616A"/>
<path opacity="0.1" d="M591.143 27.9153C588.488 25.0108 587.206 21.1427 585.999 17.3925L583.227 8.80368C586.984 11.0219 590.99 6.03087 595.302 5.33766C598.387 4.84549 601.305 6.64783 604.147 7.94412C616.486 13.5868 632.569 10.7862 642.495 20.0267C643.852 21.2016 644.904 22.6884 645.559 24.3592C646.017 25.9336 646.205 27.5744 646.114 29.2116C646.195 33.5869 645.76 37.9565 644.818 42.23C642.461 51.7892 636.153 59.8165 630.004 67.5111C628.839 68.9738 627.529 70.5265 625.699 70.9355C622.129 71.7327 619.37 67.8785 617.991 64.4957C616.163 60.0131 614.815 55.3495 613.97 50.5831C613.61 48.5658 613.325 46.4862 612.32 44.7047C610.171 40.899 604.875 37.2944 601.659 34.3413C598.442 31.3883 594.096 31.1387 591.143 27.9153Z" fill="black"/>
<path d="M591.143 27.2221C588.488 24.3176 587.206 20.4495 585.999 16.6993L583.227 8.11048C586.984 10.3287 590.99 5.33766 595.302 4.64446C598.387 4.15228 601.305 5.95462 604.147 7.25091C616.486 12.8936 632.569 10.093 642.495 19.3334C643.852 20.5084 644.904 21.9951 645.559 23.666C646.017 25.2404 646.205 26.8812 646.114 28.5184C646.195 32.8937 645.76 37.2633 644.818 41.5368C642.461 51.096 636.153 59.1233 630.004 66.8179C628.839 68.2805 627.529 69.8333 625.699 70.2423C622.129 71.0395 619.37 67.1853 617.991 63.8025C616.163 59.3199 614.815 54.6563 613.97 49.8899C613.61 47.8726 613.325 45.793 612.32 44.0115C610.171 40.2058 604.875 36.6011 601.659 33.6481C598.442 30.6951 594.096 30.4455 591.143 27.2221Z" fill="#FF8400"/>
<path d="M613.485 52.6835C614.634 52.6835 615.565 50.6662 615.565 48.1777C615.565 45.6892 614.634 43.6718 613.485 43.6718C612.337 43.6718 611.406 45.6892 611.406 48.1777C611.406 50.6662 612.337 52.6835 613.485 52.6835Z" fill="#A0616A"/>
<path opacity="0.1" d="M625.963 168.448C625.963 168.448 624.576 172.608 617.644 171.914C610.712 171.221 590.609 169.835 590.609 171.914" fill="black"/>
<path opacity="0.5" d="M570.853 403.098C569.605 401.947 568.981 401.018 568.836 400.207C568.656 401.108 569.21 402.287 570.853 403.791C579.865 412.11 632.548 413.496 632.548 413.496C632.548 413.496 632.548 413.253 632.548 412.803C632.208 412.796 579.837 411.389 570.853 403.098Z" fill="#FF9800"/>
<path opacity="0.5" d="M529.261 356.653C518.863 359.426 473.804 341.403 471.725 339.323C471.448 339.042 471.249 338.693 471.149 338.311C471.029 338.726 471.019 339.166 471.12 339.586C471.221 340.007 471.429 340.394 471.725 340.71C473.804 342.789 518.863 360.812 529.261 358.04C534.612 356.612 535.805 349.908 535.708 343.732C535.604 349.486 534.21 355.322 529.261 356.653Z" fill="#FF9800"/>
<path d="M348.051 349.194C348.326 349.194 348.591 349.085 348.786 348.89C348.981 348.695 349.09 348.43 349.09 348.155C349.09 347.879 348.981 347.614 348.786 347.419C348.591 347.224 348.326 347.115 348.051 347.115C347.775 347.115 347.51 347.224 347.315 347.419C347.12 347.614 347.011 347.879 347.011 348.155C347.011 348.43 347.12 348.695 347.315 348.89C347.51 349.085 347.775 349.194 348.051 349.194V349.194Z" fill="#67647E"/>
<path d="M63.4209 330.804C63.4209 330.804 89.2913 330.006 97.0829 324.454C104.874 318.901 136.873 312.274 138.807 321.175C140.741 330.076 177.689 365.457 148.456 365.72C119.224 365.984 80.5985 361.173 72.8138 356.431C65.0291 351.69 63.4209 330.804 63.4209 330.804Z" fill="#A8A8A8"/>
<path opacity="0.2" d="M149.004 362.594C119.799 362.83 81.1461 358.047 73.3614 353.305C67.4345 349.693 65.043 336.744 64.2874 330.769H63.4209C63.4209 330.769 65.0569 351.634 72.8415 356.369C80.6262 361.104 119.279 365.928 148.456 365.72C156.886 365.651 159.797 362.656 159.638 358.213C158.494 360.868 155.277 362.545 149.004 362.594Z" fill="black"/>
<path d="M655.881 397.317H715.025C718.41 397.317 721.153 394.573 721.153 391.189V375.023C721.153 371.639 718.41 368.895 715.025 368.895H655.881C652.497 368.895 649.753 371.639 649.753 375.023V391.189C649.753 394.573 652.497 397.317 655.881 397.317Z" fill="#FF9800"/>
<path opacity="0.1" d="M655.881 397.317H715.025C718.41 397.317 721.153 394.573 721.153 391.189V375.023C721.153 371.639 718.41 368.895 715.025 368.895H655.881C652.497 368.895 649.753 371.639 649.753 375.023V391.189C649.753 394.573 652.497 397.317 655.881 397.317Z" fill="black"/>
<path d="M715.026 341.86H655.881C652.497 341.86 649.753 344.604 649.753 347.988V364.154C649.753 367.538 652.497 370.282 655.881 370.282H715.026C718.41 370.282 721.153 367.538 721.153 364.154V347.988C721.153 344.604 718.41 341.86 715.026 341.86Z" fill="#FF9800"/>
<path d="M655.881 341.86H715.025C718.41 341.86 721.153 339.117 721.153 335.732V319.567C721.153 316.182 718.41 313.439 715.025 313.439H655.881C652.497 313.439 649.753 316.182 649.753 319.567V335.732C649.753 339.117 652.497 341.86 655.881 341.86Z" fill="#FF9800"/>
<path opacity="0.1" d="M655.881 341.86H715.025C718.41 341.86 721.153 339.117 721.153 335.732V319.567C721.153 316.182 718.41 313.439 715.025 313.439H655.881C652.497 313.439 649.753 316.182 649.753 319.567V335.732C649.753 339.117 652.497 341.86 655.881 341.86Z" fill="black"/>
<path d="M715.026 285.018H655.881C652.497 285.018 649.753 287.761 649.753 291.146V307.311C649.753 310.695 652.497 313.439 655.881 313.439H715.026C718.41 313.439 721.153 310.695 721.153 307.311V291.146C721.153 287.761 718.41 285.018 715.026 285.018Z" fill="#FF9800"/>
</g>
<defs>
<linearGradient id="paint0_linear" x1="501.062" y1="49.7374" x2="501.062" y2="19.1116" gradientUnits="userSpaceOnUse">
<stop stop-color="#808080" stop-opacity="0.25"/>
<stop offset="0.54" stop-color="#808080" stop-opacity="0.12"/>
<stop offset="1" stop-color="#808080" stop-opacity="0.1"/>
</linearGradient>
<linearGradient id="paint1_linear" x1="162105" y1="304442" x2="162105" y2="52419.1" gradientUnits="userSpaceOnUse">
<stop stop-color="#808080" stop-opacity="0.25"/>
<stop offset="0.54" stop-color="#808080" stop-opacity="0.12"/>
<stop offset="1" stop-color="#808080" stop-opacity="0.1"/>
</linearGradient>
<clipPath id="clip0">
<rect width="721.154" height="450" fill="white"/>
</clipPath>
</defs>
</svg>
