<svg width="447" height="434" viewBox="0 0 447 434" fill="none" xmlns="http://www.w3.org/2000/svg">
<path d="M423.608 404.414C423.608 420.753 328.781 434 211.804 434C94.8268 434 0 420.753 0 404.414C0 392.847 47.5329 382.826 116.807 377.965C145.373 375.954 177.649 374.828 211.804 374.828C225.845 374.828 239.564 375.019 252.833 375.382C350.174 378.054 423.608 390.035 423.608 404.414Z" fill="#3F3D56"/>
<path opacity="0.1" d="M184.475 410.458C229.378 410.458 265.78 406.328 265.78 401.233C265.78 396.137 229.378 392.007 184.475 392.007C139.571 392.007 103.169 396.137 103.169 401.233C103.169 406.328 139.571 410.458 184.475 410.458Z" fill="black"/>
<path d="M184.133 407.913C226.584 407.913 260.997 373.73 260.997 331.562C260.997 289.395 226.584 255.212 184.133 255.212C141.682 255.212 107.269 289.395 107.269 331.562C107.269 373.73 141.682 407.913 184.133 407.913Z" fill="#3F3D56"/>
<path d="M208.388 376.737H160.561V417.457H208.388V376.737Z" fill="#FF8400"/>
<path d="M270.904 386.599L268.171 400.597L285.936 403.142L297.551 396.779L296.867 386.599H270.904Z" fill="#575A89"/>
<path d="M181.4 123.824C181.4 123.824 180.034 138.458 176.617 139.095C173.201 139.731 184.133 165.181 184.133 165.181H200.531L213.512 162L207.363 148.002C207.363 148.002 199.164 137.822 205.313 129.551C211.463 121.279 181.4 123.824 181.4 123.824Z" fill="#A0616A"/>
<path opacity="0.1" d="M181.4 123.824C181.4 123.824 180.034 138.458 176.617 139.095C173.201 139.731 184.133 165.181 184.133 165.181H200.531L213.512 162L207.363 148.002C207.363 148.002 199.164 137.822 205.313 129.551C211.463 121.279 181.4 123.824 181.4 123.824Z" fill="black"/>
<path d="M147.238 235.806C147.238 235.806 129.474 267.619 143.822 273.981C158.17 280.344 161.586 279.708 161.586 281.616C161.586 283.525 158.853 282.889 160.22 286.07C161.586 289.251 157.487 301.977 161.586 309.612C165.685 317.247 164.319 322.973 164.319 322.973C164.319 322.973 164.319 323.609 165.685 326.154C167.052 328.699 167.735 330.608 167.052 331.881C166.369 333.153 162.269 341.424 166.369 343.333C170.468 345.242 191.648 346.515 193.698 343.333C195.748 340.152 191.648 338.243 193.698 336.334C195.748 334.426 197.114 333.789 195.748 332.517C194.381 331.244 193.015 315.338 193.015 315.338C193.015 315.338 196.431 296.886 195.065 294.341C193.698 291.796 191.648 289.251 193.015 287.343C194.381 285.434 195.748 286.07 196.431 283.525C197.114 280.98 198.481 275.254 198.481 275.254L205.997 274.617L223.761 277.799C223.761 277.799 243.575 298.159 265.438 304.522C265.438 304.522 271.587 310.248 273.637 310.248C275.687 310.248 275.687 310.248 275.004 311.52C274.32 312.793 272.271 312.793 273.637 314.065C275.004 315.338 277.053 313.429 275.687 315.338C274.32 317.247 272.954 317.247 274.32 318.519C275.687 319.792 273.637 326.791 273.637 327.427C273.637 328.063 267.488 387.871 269.538 389.144C271.587 390.416 300.284 394.234 302.333 389.144C304.383 384.054 300.967 377.691 300.967 377.691C300.967 377.691 311.215 301.34 308.482 296.25C305.749 291.16 296.184 268.255 244.941 253.621C244.941 253.621 230.593 251.076 230.593 249.167C230.593 247.258 229.227 235.169 226.494 234.533C223.761 233.897 208.046 233.261 208.046 233.261L188.232 238.987L160.903 234.533L147.238 235.806Z" fill="#2F2E41"/>
<path d="M171.151 342.697L167.735 354.15C167.735 354.15 165.002 372.601 168.418 377.055C171.102 380.553 175.893 384.837 184.778 385.589C187.268 385.801 189.762 385.216 191.846 383.93C193.931 382.644 195.482 380.733 196.242 378.515C196.344 378.249 196.408 377.972 196.431 377.691C196.431 376.419 194.382 361.149 194.382 361.149L190.965 345.242L190.282 340.788L171.151 342.697Z" fill="#2F2E41"/>
<path d="M270.904 397.415C270.904 397.415 267.488 394.234 266.805 397.415C266.122 400.596 263.389 413.958 268.171 414.594C272.954 415.23 318.731 421.593 323.514 419.048C328.296 416.503 337.178 412.685 331.713 410.777C326.247 408.868 310.532 403.142 310.532 403.142C310.532 403.142 301.65 392.325 300.284 391.689C298.917 391.053 291.401 392.325 287.985 394.87C284.569 397.415 270.904 397.415 270.904 397.415Z" fill="#2F2E41"/>
<path d="M197.798 137.186C209.495 137.186 218.978 128.355 218.978 117.462C218.978 106.569 209.495 97.7378 197.798 97.7378C186.1 97.7378 176.617 106.569 176.617 117.462C176.617 128.355 186.1 137.186 197.798 137.186Z" fill="#A0616A"/>
<path d="M195.748 162L187.549 153.728L178.461 137.186C178.461 137.186 171.835 135.277 170.468 138.458C169.102 141.64 144.505 151.82 144.505 151.82C144.505 151.82 150.654 205.265 147.921 210.355C145.188 215.445 140.406 235.806 144.505 237.714C148.604 239.623 167.735 237.714 173.884 240.259C180.034 242.805 197.798 242.805 202.58 239.623C207.363 236.442 208.73 233.897 213.512 235.806C217.584 237.431 227.102 181.876 229.843 165.32C230.074 163.93 229.882 162.507 229.289 161.213C228.697 159.919 227.727 158.805 226.489 157.997C220.359 153.993 209.318 147.092 207.363 148.002C204.63 149.275 195.748 162 195.748 162Z" fill="#575A89"/>
<path d="M225.127 159.455C226.732 159.828 228.175 160.65 229.263 161.81C230.352 162.969 231.033 164.411 231.215 165.942L236.742 212.264C236.742 212.264 223.078 239.623 216.245 221.172C209.413 202.72 225.127 159.455 225.127 159.455Z" fill="#575A89"/>
<path d="M223.761 216.718L238.792 212.9C238.792 212.9 241.525 230.716 244.258 230.716C246.991 230.716 234.693 240.896 228.543 239.623C222.394 238.351 213.512 233.897 212.829 230.716C212.146 227.534 218.978 214.173 218.978 214.173L223.761 216.718Z" fill="#575A89"/>
<path d="M181.809 125.97C183.249 123.013 182.999 119.564 184.19 116.512C184.827 114.877 185.862 113.402 187.213 112.202C188.564 111.002 190.194 110.109 191.977 109.593C193.76 109.076 195.647 108.951 197.491 109.226C199.334 109.501 201.085 110.17 202.605 111.179C204.137 112.196 205.672 113.625 207.542 113.431C209.555 113.222 211.351 111.13 213.202 111.897C215.254 112.746 214.699 116.17 216.778 116.961C217.872 117.378 219.165 116.737 219.796 115.806C220.348 114.828 220.649 113.744 220.674 112.64C220.961 109.926 221.22 107.054 219.957 104.594C219.425 103.761 218.962 102.891 218.571 101.992C218.35 101.153 218.261 100.288 218.307 99.4252C218.296 96.2356 218.046 92.9086 216.322 90.1523C214.409 87.0938 210.874 85.138 207.185 84.2846C203.496 83.4312 199.632 83.562 195.845 83.8606C189.584 84.3542 183.055 85.4122 178.122 89.0366C177.452 89.4926 176.875 90.0572 176.419 90.7033C175.986 91.4708 175.68 92.2948 175.511 93.1474C174.445 97.1916 172.846 101.097 170.751 104.776C169.743 106.336 168.919 107.993 168.294 109.717C167.771 111.47 167.806 113.467 168.901 114.973C169.793 116.2 171.218 116.853 172.338 117.856C173.447 118.849 173.966 120.76 175.195 121.512C176.268 122.169 177.553 121.705 178.648 122.401C180.053 123.295 180.154 125.254 181.809 125.97Z" fill="#2F2E41"/>
<path d="M199.164 171.544L201.214 167.726C201.214 167.726 231.276 175.997 237.426 183.633C237.426 183.633 252.457 174.725 260.656 175.997L268.855 177.27L243.575 198.266L211.462 195.721L199.164 171.544Z" fill="#F2F2F2"/>
<path d="M197.798 167.726L169.785 203.993L210.096 222.444C210.096 222.444 213.865 224.353 216.763 222.444L243.575 210.992L268.855 177.27L243.575 189.359C243.575 189.359 240.842 184.269 235.376 186.814L197.798 167.726Z" fill="#FF8400"/>
<path d="M240.842 231.988L246.308 218.627C246.308 218.627 258.606 203.993 251.774 196.994C244.941 189.995 237.426 217.354 237.426 217.354L240.842 231.988Z" fill="#A0616A"/>
<path d="M177.777 229.856L189.704 220.852C189.704 220.852 208.227 213.939 206.087 204.692C203.948 195.446 182.706 215.601 182.706 215.601L177.777 229.856Z" fill="#A0616A"/>
<path opacity="0.1" d="M148.263 165.499H147.58C147.58 165.499 136.989 153.728 134.94 169.635C132.89 185.541 126.058 238.351 143.822 240.259C161.586 242.168 174.226 232.306 174.226 232.306C174.226 232.306 187.207 213.855 182.425 213.855C180.111 213.855 173.817 212.887 168.077 213.219C161.953 213.572 156.451 215.179 156.803 213.537C157.487 210.355 167.394 169.953 148.263 165.499Z" fill="black"/>
<path d="M147.238 153.092L144.505 151.82C144.505 151.82 133.573 153.728 131.524 169.635C129.474 185.541 122.641 238.351 140.406 240.26C158.17 242.168 182.083 237.715 182.083 237.715C182.083 237.715 186.866 213.537 182.083 213.537C177.301 213.537 152.704 216.718 153.387 213.537C154.07 210.355 166.369 157.546 147.238 153.092Z" fill="#575A89"/>
<path d="M230.935 224.672L238.469 213.918L243.233 231.67L230.935 236.76V224.672Z" fill="#575A89"/>
<path d="M76.1628 71.3331C86.3511 71.3331 94.6103 63.6419 94.6103 54.1542C94.6103 44.6665 86.3511 36.9752 76.1628 36.9752C65.9745 36.9752 57.7153 44.6665 57.7153 54.1542C57.7153 63.6419 65.9745 71.3331 76.1628 71.3331Z" fill="#F2F2F2"/>
<path d="M98.0264 182.042H54.2991V222.762H98.0264V182.042Z" fill="#F2F2F2"/>
<path d="M254.165 0L265.233 17.8515L276.3 35.703H254.165H232.03L243.097 17.8515L254.165 0Z" fill="#F2F2F2"/>
<path d="M447 107.037C446.735 114.653 444.744 120.758 441.025 125.351C437.306 129.944 432.887 132.241 427.769 132.242C423.601 132.242 419.947 129.994 416.808 125.498C413.669 121.003 412.099 114.087 412.099 104.752C412.099 102.689 412.152 100.724 412.258 98.8566C412.363 96.99 412.495 95.2212 412.654 93.5504L415.423 69.3039H397.142C393.977 99.9621 391.378 118.202 389.347 124.024C387.315 129.846 383.873 132.757 379.019 132.758C376.828 132.707 374.738 131.892 373.163 130.473C372.25 129.719 371.527 128.786 371.048 127.741C370.569 126.696 370.346 125.565 370.393 124.43C370.393 122.17 372.305 119.014 376.131 114.96C379.955 110.906 382.079 107.209 382.501 103.868L387.25 69.3039H379.573C377.409 69.3159 375.279 69.8085 373.361 70.7409C371.595 71.4962 370.058 72.6485 368.889 74.0941L365.486 78.8108H362.716C365.301 71.3432 368.48 65.7299 372.253 61.9709C376.024 58.2123 380.364 56.333 385.271 56.333H445.734V69.3039H425.316C424.683 75.1997 424.195 81.0955 423.852 86.9912C423.508 92.887 423.337 98.8074 423.337 104.752C423.337 108.782 424.34 112.049 426.345 114.554C428.349 117.06 430.855 118.313 433.863 118.313C435.709 118.313 437.648 117.613 439.68 116.212C440.644 115.582 441.451 114.765 442.046 113.818C442.64 112.87 443.007 111.814 443.122 110.722C443.281 109.642 443.399 108.794 443.478 108.179C443.557 107.566 443.597 107.185 443.597 107.037L447 107.037Z" fill="#FF8400"/>
<path opacity="0.1" d="M447 107.037C446.735 114.653 444.744 120.758 441.025 125.351C437.306 129.944 432.887 132.241 427.769 132.242C423.601 132.242 419.947 129.994 416.808 125.498C413.669 121.003 412.099 114.087 412.099 104.752C412.099 102.689 412.152 100.724 412.258 98.8566C412.363 96.99 412.495 95.2212 412.654 93.5504L415.423 69.3039H397.142C393.977 99.9621 391.378 118.202 389.347 124.024C387.315 129.846 383.873 132.757 379.019 132.758C376.828 132.707 374.738 131.892 373.163 130.473C372.25 129.719 371.527 128.786 371.048 127.741C370.569 126.696 370.346 125.565 370.393 124.43C370.393 122.17 372.305 119.014 376.131 114.96C379.955 110.906 382.079 107.209 382.501 103.868L387.25 69.3039H379.573C377.409 69.3159 375.279 69.8085 373.361 70.7409C371.595 71.4962 370.058 72.6485 368.889 74.0941L365.486 78.8108H362.716C365.301 71.3432 368.48 65.7299 372.253 61.9709C376.024 58.2123 380.364 56.333 385.271 56.333H445.734V69.3039H425.316C424.683 75.1997 424.195 81.0955 423.852 86.9912C423.508 92.887 423.337 98.8074 423.337 104.752C423.337 108.782 424.34 112.049 426.345 114.554C428.349 117.06 430.855 118.313 433.863 118.313C435.709 118.313 437.648 117.613 439.68 116.212C440.644 115.582 441.451 114.765 442.046 113.818C442.64 112.87 443.007 111.814 443.122 110.722C443.281 109.642 443.399 108.794 443.478 108.179C443.557 107.566 443.597 107.185 443.597 107.037L447 107.037Z" fill="black"/>
<path d="M447 104.734C446.735 112.351 444.744 118.455 441.025 123.048C437.306 127.642 432.887 129.939 427.769 129.939C423.601 129.939 419.947 127.691 416.808 123.196C413.669 118.7 412.099 111.785 412.099 102.45C412.099 100.386 412.152 98.421 412.258 96.5539C412.363 94.6873 412.495 92.9186 412.654 91.2478L415.423 67.0012H397.142C393.977 97.6594 391.378 115.9 389.347 121.722C387.315 127.544 383.873 130.455 379.019 130.455C376.828 130.405 374.738 129.589 373.163 128.17C372.25 127.417 371.527 126.484 371.048 125.439C370.569 124.394 370.346 123.262 370.393 122.127C370.393 119.868 372.305 116.711 376.131 112.657C379.955 108.603 382.079 104.906 382.501 101.565L387.25 67.0012H379.573C377.409 67.0133 375.279 67.5059 373.361 68.4382C371.595 69.1935 370.058 70.3458 368.889 71.7915L365.486 76.5081H362.716C365.301 69.0405 368.48 63.4272 372.253 59.6683C376.024 55.9097 380.364 54.0304 385.271 54.0304H445.734V67.0012H425.316C424.683 72.897 424.195 78.7928 423.852 84.6886C423.508 90.5844 423.337 96.5048 423.337 102.45C423.337 106.479 424.34 109.746 426.345 112.252C428.349 114.757 430.855 116.01 433.863 116.01C435.709 116.01 437.648 115.31 439.68 113.91C440.644 113.279 441.451 112.463 442.046 111.515C442.64 110.567 443.007 109.511 443.122 108.419C443.281 107.339 443.399 106.492 443.478 105.877C443.557 105.263 443.597 104.882 443.597 104.734H447Z" fill="#FF8400"/>
</svg>
