<svg width="574" height="417" viewBox="0 0 574 417" fill="none" xmlns="http://www.w3.org/2000/svg">
<path d="M573.875 391.202H2.28882e-05V392.7H573.875V391.202Z" fill="#3F3D56"/>
<path d="M546.555 374.181H529.053V391.683H546.555V374.181Z" fill="#008081"/>
<path d="M86.5444 368.043L72.9383 379.052L83.9472 392.658L97.5532 381.649L86.5444 368.043Z" fill="#008081"/>
<path d="M50.9446 101.744C74.9428 101.744 94.3973 82.2894 94.3973 58.2911C94.3973 34.2929 74.9428 14.8384 50.9446 14.8384C26.9463 14.8384 7.49187 34.2929 7.49187 58.2911C7.49187 82.2894 26.9463 101.744 50.9446 101.744Z" fill="#008081"/>
<path d="M522.931 101.744C546.929 101.744 566.384 82.2894 566.384 58.2911C566.384 34.2929 546.929 14.8384 522.931 14.8384C498.933 14.8384 479.478 34.2929 479.478 58.2911C479.478 82.2894 498.933 101.744 522.931 101.744Z" fill="#008081"/>
<path d="M50.9446 102.493C40.8687 102.493 31.0191 99.5051 22.6413 93.9073C14.2635 88.3094 7.73382 80.353 3.87795 71.0441C0.0220777 61.7352 -0.9868 51.4919 0.978907 41.6097C2.94461 31.7274 7.79661 22.6499 14.9213 15.5252C22.0461 8.40049 31.1235 3.54849 41.0058 1.58279C50.8881 -0.382918 61.1313 0.62596 70.4402 4.48183C79.7491 8.3377 87.7056 14.8674 93.3034 23.2452C98.9013 31.623 101.889 41.4726 101.889 51.5485C101.874 65.0551 96.5015 78.0041 86.9509 87.5548C77.4003 97.1054 64.4512 102.478 50.9446 102.493ZM50.9446 2.10229C41.165 2.10229 31.6051 5.00224 23.4738 10.4355C15.3424 15.8687 9.00473 23.5911 5.26227 32.6262C1.5198 41.6613 0.540599 51.6033 2.44849 61.1949C4.35638 70.7865 9.06567 79.597 15.9808 86.5122C22.896 93.4273 31.7065 98.1366 41.2981 100.045C50.8897 101.952 60.8317 100.973 69.8668 97.2307C78.9019 93.4883 86.6244 87.1507 92.0576 79.0193C97.4908 70.8879 100.391 61.328 100.391 51.5485C100.376 38.4391 95.1617 25.8708 85.892 16.6011C76.6222 7.33134 64.054 2.1171 50.9446 2.10229Z" fill="#3F3D56"/>
<path d="M522.931 102.493C512.855 102.493 503.005 99.5051 494.628 93.9073C486.25 88.3094 479.72 80.353 475.864 71.0441C472.008 61.7352 470.999 51.4919 472.965 41.6097C474.931 31.7274 479.783 22.6499 486.908 15.5252C494.032 8.40049 503.11 3.54849 512.992 1.58279C522.874 -0.382918 533.118 0.62596 542.426 4.48183C551.735 8.3377 559.692 14.8674 565.29 23.2452C570.888 31.623 573.875 41.4726 573.875 51.5485C573.86 65.0551 568.488 78.0041 558.937 87.5548C549.386 97.1054 536.437 102.478 522.931 102.493ZM522.931 2.10229C513.151 2.10229 503.591 5.00224 495.46 10.4355C487.329 15.8687 480.991 23.5911 477.248 32.6262C473.506 41.6613 472.527 51.6033 474.435 61.1949C476.343 70.7865 481.052 79.597 487.967 86.5122C494.882 93.4273 503.693 98.1366 513.284 100.045C522.876 101.952 532.818 100.973 541.853 97.2307C550.888 93.4883 558.611 87.1507 564.044 79.0193C569.477 70.8879 572.377 61.328 572.377 51.5485C572.362 38.4391 567.148 25.8708 557.878 16.6011C548.608 7.33134 536.04 2.1171 522.931 2.10229Z" fill="#3F3D56"/>
<path d="M262.964 140.701C266.688 140.701 269.706 137.683 269.706 133.959C269.706 130.235 266.688 127.216 262.964 127.216C259.24 127.216 256.221 130.235 256.221 133.959C256.221 137.683 259.24 140.701 262.964 140.701Z" fill="#3F3D56"/>
<path d="M310.912 140.701C314.635 140.701 317.654 137.683 317.654 133.959C317.654 130.235 314.635 127.216 310.912 127.216C307.188 127.216 304.169 130.235 304.169 133.959C304.169 137.683 307.188 140.701 310.912 140.701Z" fill="#3F3D56"/>
<path d="M286.938 333.991C297.282 333.991 305.667 330.972 305.667 327.248C305.667 323.524 297.282 320.506 286.938 320.506C276.594 320.506 268.208 323.524 268.208 327.248C268.208 330.972 276.594 333.991 286.938 333.991Z" fill="#F2F2F2"/>
<path d="M443.848 255.57C436.172 242.6 420.987 241.996 420.987 241.996C420.987 241.996 406.189 240.104 396.697 259.856C387.849 278.267 375.638 296.043 394.731 300.353L398.18 289.619L400.315 301.152C403.034 301.348 405.761 301.394 408.485 301.292C428.931 300.632 448.404 301.485 447.777 294.148C446.943 284.394 451.233 268.049 443.848 255.57Z" fill="#2F2E41"/>
<path d="M393.641 369.148C393.415 370.575 393.088 371.983 392.662 373.363C392.181 374.714 391.44 375.963 391.001 377.327C389.601 381.677 391.541 386.526 394.641 389.884C397.329 392.783 400.798 394.844 404.631 395.816C407.452 396.419 410.33 396.722 413.216 396.718C421.195 396.988 429.379 397.23 436.94 394.666C439.329 393.836 441.636 392.788 443.833 391.535C444.526 391.204 445.137 390.723 445.621 390.127C446.127 389.253 446.353 388.244 446.266 387.238C446.249 383.855 445.564 380.49 445.727 377.111C445.817 375.24 446.167 373.37 445.995 371.504C445.756 369.385 444.868 367.392 443.453 365.797C442.038 364.202 440.165 363.083 438.089 362.594C435.918 362.258 433.708 362.259 431.536 362.594C425.868 363.139 420.176 363.393 414.482 363.357C408.664 363.319 402.882 362.431 397.093 362.339C395.381 362.311 395.415 362.839 394.87 364.496C394.368 366.021 393.958 367.574 393.641 369.148Z" fill="#2F2E41"/>
<path d="M410.152 285.624C409.978 287.11 409.479 288.539 408.69 289.809C407.678 291.193 406.028 291.984 404.939 293.308C403.3 295.302 403.206 298.108 403.199 300.689C403.193 303.067 403.241 305.603 404.567 307.576C405.511 308.803 406.682 309.835 408.016 310.618C412.989 313.969 418.362 317.38 424.358 317.491C426.842 317.536 429.505 316.895 431.14 315.024C431.845 314.145 432.4 313.155 432.782 312.094C434.315 308.315 435.244 304.319 435.535 300.251C435.756 298.339 435.578 296.402 435.011 294.562C434.283 292.532 432.81 290.861 431.837 288.936C430.686 286.646 430.266 284.059 430.631 281.523C430.68 281.345 430.665 281.155 430.589 280.986C430.509 280.896 430.409 280.825 430.297 280.78C430.185 280.735 430.064 280.716 429.944 280.725L418.056 279.869C416.949 279.814 415.847 279.688 414.756 279.491C414.115 279.361 412.422 278.451 411.811 278.693C410.68 279.141 410.383 284.41 410.152 285.624Z" fill="#A0616A"/>
<path opacity="0.1" d="M410.152 285.624C409.978 287.11 409.479 288.539 408.69 289.809C407.678 291.193 406.028 291.984 404.939 293.308C403.3 295.302 403.206 298.108 403.199 300.689C403.193 303.067 403.241 305.603 404.567 307.576C405.511 308.803 406.682 309.835 408.016 310.618C412.989 313.969 418.362 317.38 424.358 317.491C426.842 317.536 429.505 316.895 431.14 315.024C431.845 314.145 432.4 313.155 432.782 312.094C434.315 308.315 435.244 304.319 435.535 300.251C435.756 298.339 435.578 296.402 435.011 294.562C434.283 292.532 432.81 290.861 431.837 288.936C430.686 286.646 430.266 284.059 430.631 281.523C430.68 281.345 430.665 281.155 430.589 280.986C430.509 280.896 430.409 280.825 430.297 280.78C430.185 280.735 430.064 280.716 429.944 280.725L418.056 279.869C416.949 279.814 415.847 279.688 414.756 279.491C414.115 279.361 412.422 278.451 411.811 278.693C410.68 279.141 410.383 284.41 410.152 285.624Z" fill="black"/>
<path d="M421.52 287.218C431.152 287.218 438.961 279.41 438.961 269.778C438.961 260.146 431.152 252.337 421.52 252.337C411.888 252.337 404.079 260.146 404.079 269.778C404.079 279.41 411.888 287.218 421.52 287.218Z" fill="#A0616A"/>
<path d="M412.598 308.84C413.459 309.838 414.498 310.668 415.661 311.288C416.874 311.789 418.176 312.037 419.488 312.017C422.632 312.105 426.04 311.529 428.227 309.269C431.046 306.356 430.953 301.656 433.163 298.257C433.341 297.949 433.584 297.683 433.875 297.479C434.246 297.277 434.665 297.181 435.086 297.2C437.877 297.174 440.308 298.984 442.502 300.709C443.535 301.42 444.421 302.323 445.112 303.368C445.546 304.215 445.843 305.124 445.993 306.064C446.959 311.404 447.558 316.805 447.784 322.227C447.977 325.218 448.171 328.211 448.156 331.208C448.109 341.08 445.814 350.788 443.532 360.393C443.238 361.631 442.836 363.014 441.711 363.607C441.209 363.833 440.67 363.964 440.121 363.995C433.598 364.873 427.034 365.42 420.455 365.632C417.887 365.672 415.321 365.61 412.755 365.446C412.313 365.44 411.876 365.364 411.458 365.22C410.891 364.948 410.404 364.534 410.044 364.019C406.485 359.534 406.275 353.333 406.297 347.607C406.353 333.608 406.853 319.621 407.798 305.644C407.876 304.491 407.893 303.09 407.062 302.182C408.68 304.581 410.535 306.811 412.598 308.84Z" fill="#D0CDE1"/>
<path d="M408.903 288.703C408.314 289.769 403.972 292.417 403.133 293.3C398.449 298.238 389.899 298.053 385.615 303.341C384.195 305.281 383.217 307.507 382.749 309.864C381.934 313.152 381.499 316.737 382.864 319.836C384.177 322.819 386.941 324.881 388.817 327.545C390.878 330.47 391.805 334.022 392.692 337.489C393.348 340.048 394.009 342.671 393.754 345.3C393.463 348.29 392.017 351.028 391.162 353.908C390.308 356.787 390.161 360.217 392.136 362.481C393.587 364.143 395.863 364.802 398.038 365.173C400.825 365.592 403.634 365.837 406.451 365.906C408.938 366.016 411.679 366.037 413.591 364.443C414.307 363.767 414.876 362.951 415.263 362.046C415.649 361.14 415.846 360.165 415.84 359.181C415.817 357.216 415.623 355.257 415.261 353.326C414.996 351.307 414.894 349.271 414.809 347.237C414.426 338.109 414.374 328.975 414.652 319.835C414.792 317.936 414.699 316.026 414.375 314.149C413.841 311.704 412.52 309.519 411.417 307.273C409.214 303.042 408.216 298.287 408.532 293.527C408.866 288.635 410.999 284.908 408.903 288.703Z" fill="#008081"/>
<path d="M433.394 289.074C434.292 289.996 437.34 290.3 438.482 290.894C439.555 291.39 440.676 291.778 441.826 292.052C445.989 293.253 449.949 295.07 453.574 297.444C454.327 297.884 454.993 298.459 455.539 299.141C456.113 300.075 456.484 301.121 456.625 302.21C457.296 304.956 457.631 307.774 457.62 310.601C457.487 313.596 456.585 316.496 455.69 319.357L452.346 330.048C449.85 338.027 447.338 346.085 446.636 354.417C446.248 359.034 446.42 363.682 447.151 368.258C447.219 368.48 447.24 368.715 447.211 368.946C447.182 369.177 447.104 369.4 446.982 369.598C446.762 369.816 446.472 369.949 446.163 369.975C444.549 370.227 442.987 369.404 441.525 368.676C437.056 366.452 432.286 364.892 427.367 364.044C429.289 361.265 430.772 358.208 431.764 354.978C432.327 352.928 432.771 350.846 433.093 348.744L434.648 339.747C435.281 336.458 435.727 333.137 435.983 329.798C436.1 328.545 436.027 327.281 435.766 326.05C435.408 324.878 434.932 323.746 434.346 322.67C431.782 317.338 430.579 311.252 431.588 305.422C432.029 302.871 432.887 300.316 432.529 297.751C432.185 295.286 432.543 293.369 431.91 290.929C429.313 280.91 431.706 287.339 433.394 289.074Z" fill="#008081"/>
<path d="M385.571 311.773C384.402 314.198 382.448 316.264 381.783 318.873C381.524 320.092 381.413 321.338 381.453 322.584C381.337 324.461 381.523 326.345 382.003 328.164C382.374 329.314 382.978 330.375 383.413 331.503C384.02 333.078 384.29 334.763 384.206 336.45C384.089 338.786 383.295 341.054 383.233 343.392C383.136 347.069 384.837 350.526 386.496 353.808C386.914 352.774 387.552 351.843 388.367 351.082C389.182 350.32 390.154 349.745 391.214 349.398C392.274 349.051 393.397 348.94 394.505 349.072C395.613 349.205 396.678 349.577 397.627 350.164C398.007 349.698 398.187 349.1 398.128 348.5C398.251 344.234 398.369 339.968 398.483 335.702C398.663 329.104 398.834 322.418 397.316 315.994C396.746 313.055 395.475 310.298 393.61 307.955C392.581 306.771 389.087 303.651 387.397 304.978C386.637 305.575 386.815 307.199 386.694 308.021C386.513 309.322 386.134 310.587 385.571 311.773Z" fill="#008081"/>
<path d="M457.962 304.784C458.432 306.532 458.633 308.343 458.559 310.152C458.581 313.84 458.533 317.527 458.412 321.214C458.431 323.105 458.189 324.99 457.694 326.815C457.316 328.001 456.734 329.114 456.344 330.297C455.176 333.842 455.814 337.687 455.914 341.418C455.985 342.626 455.882 343.837 455.608 345.015C454.992 347.328 453.335 349.197 452.179 351.293C451.081 353.284 450.418 355.515 449.106 357.372C447.795 359.229 445.524 360.7 443.324 360.13C441.656 359.698 440.471 358.222 439.652 356.707C437.863 353.376 437.252 349.539 437.916 345.817C438.739 341.288 441.399 337.271 442.358 332.769C443.675 326.588 441.673 320.209 441.733 313.889C441.705 312.898 441.84 311.91 442.13 310.962C442.749 309.56 443.625 308.287 444.713 307.208C445.96 305.761 447.119 304.24 448.183 302.653C448.898 301.587 449.869 298.846 451.136 298.618C453.965 298.109 457.26 302.598 457.962 304.784Z" fill="#008081"/>
<path d="M370.891 366.399C369.326 366.006 367.714 365.834 366.102 365.89C364.408 365.984 362.753 366.437 361.248 367.219C359.743 368.002 358.422 369.096 357.372 370.429C356.322 371.762 355.569 373.302 355.161 374.949C354.753 376.596 354.7 378.311 355.006 379.979C355.397 381.787 356.035 383.532 356.903 385.164C358.173 387.741 359.697 390.313 362.048 391.964C363.464 392.872 364.989 393.599 366.587 394.125L378.97 398.79C380.791 399.476 382.613 400.162 384.453 400.799C393.695 403.993 403.33 405.909 413.091 406.492C416.062 406.771 419.056 406.619 421.983 406.042C422.691 405.949 423.339 405.599 423.804 405.058C424.04 404.647 424.18 404.187 424.211 403.714L424.973 398.38C425.144 397.637 425.121 396.863 424.908 396.131C424.46 395.271 423.735 394.588 422.85 394.192C414.71 389.516 405.205 386.937 398.353 380.52C396.74 379.009 395.39 376.614 393.43 375.588C391.207 374.425 388.59 373.76 386.293 372.688C381.271 370.344 376.333 367.65 370.891 366.399Z" fill="#2F2E41"/>
<path opacity="0.1" d="M383.252 373.59C387.629 374.961 406.107 384.463 409.274 387.78C408.85 387.933 394.446 379.861 394.014 379.731C390.052 378.643 386.172 377.276 382.403 375.639C381.653 375.292 377.527 373.661 377.714 372.714C377.925 371.645 382.476 373.347 383.252 373.59Z" fill="black"/>
<path d="M437.854 409.259C438.102 409.277 438.349 409.204 438.548 409.054C438.635 408.942 438.699 408.814 438.736 408.677C438.773 408.54 438.783 408.397 438.764 408.256L438.744 400.989C436.601 400.103 434.334 399.556 432.023 399.368L421.317 397.937C421.563 397.97 419.644 402.548 419.938 403.159C420.457 404.236 424.422 405.191 425.541 405.699C429.431 407.467 433.473 409.411 437.854 409.259Z" fill="#A0616A"/>
<path d="M404.267 400.964C402.246 401.286 399.99 401.57 398.681 403.144C397.021 405.139 397.727 408.114 398.519 410.585C398.568 410.904 398.679 411.21 398.848 411.486C399.017 411.761 399.239 411.999 399.501 412.187C399.764 412.374 400.061 412.508 400.376 412.578C400.691 412.649 401.016 412.656 401.334 412.599C403.177 412.715 405.139 412.807 406.749 411.903C407.479 411.421 408.181 410.898 408.853 410.339C410.041 409.549 411.346 408.952 412.721 408.571C415.248 407.776 417.85 407.24 420.485 406.971C421.524 406.923 422.552 406.742 423.544 406.431C424.039 406.272 424.491 406 424.865 405.637C425.238 405.275 425.523 404.831 425.698 404.34C426.071 403.019 425.303 401.673 424.567 400.515C423.719 398.998 422.618 397.637 421.311 396.491C419.317 394.942 418.33 396.131 416.321 397.123C412.518 398.999 408.454 400.294 404.267 400.964Z" fill="#A0616A"/>
<path d="M398.985 402.785L386.151 398.991C384.611 398.455 383.003 398.144 381.375 398.066C380.56 398.032 379.747 398.173 378.99 398.479C378.234 398.785 377.552 399.249 376.989 399.84C375.994 401.008 375.709 402.604 375.461 404.118L374.93 407.357C374.576 408.99 374.476 410.668 374.633 412.332C374.718 413.164 374.992 413.965 375.434 414.675C375.876 415.386 376.474 415.986 377.182 416.43C378.958 417.399 381.135 416.926 383.117 416.52C387.121 415.702 391.193 415.265 395.279 415.216C396.815 415.198 398.427 415.217 399.784 414.498C400.572 414.03 401.234 413.378 401.712 412.597C402.19 411.816 402.471 410.93 402.529 410.016C402.781 407.249 401.859 403.634 398.985 402.785Z" fill="#2F2E41"/>
<path d="M442.899 399.479C444.562 399.187 446.031 398.242 447.625 397.684C449.869 396.898 452.3 396.898 454.678 396.907C455.552 396.827 456.431 397.003 457.207 397.413C458.254 398.11 458.522 399.506 458.7 400.751L459.775 408.265C460.062 409.667 460.092 411.11 459.862 412.522C459.738 413.227 459.427 413.886 458.962 414.431C458.496 414.975 457.894 415.384 457.216 415.616C455.538 416.053 453.893 414.981 452.308 414.276C448.348 412.516 443.744 412.966 439.615 411.651C439.22 411.571 438.846 411.409 438.519 411.175C438.191 410.941 437.917 410.64 437.715 410.292C437.574 409.875 437.523 409.432 437.567 408.993C437.638 406.578 437.128 403.28 437.855 400.972C438.509 398.896 441.041 399.479 442.899 399.479Z" fill="#2F2E41"/>
<path d="M470.058 363.375C472.622 362.732 475.281 362.55 477.909 362.838C480.008 363.069 482.17 363.653 483.702 365.106C485.568 366.874 486.167 369.609 486.217 372.178C486.299 377.296 484.601 382.284 481.414 386.289C480.636 387.302 479.711 388.193 478.669 388.932C477.545 389.636 476.347 390.213 475.097 390.654L447.367 401.591C440.072 404.469 432.751 407.354 425.142 409.251C424.934 409.352 424.708 409.41 424.477 409.421C424.246 409.433 424.016 409.399 423.798 409.32C423.581 409.241 423.382 409.12 423.212 408.963C423.043 408.806 422.906 408.617 422.811 408.406C420.381 404.936 418.343 401.207 416.733 397.289C416.657 397.196 416.605 397.086 416.58 396.968C416.555 396.85 416.559 396.728 416.592 396.612C416.624 396.496 416.684 396.39 416.767 396.302C416.849 396.214 416.951 396.148 417.065 396.108L436.678 384.838C438.116 384.088 439.457 383.164 440.67 382.088C441.518 381.266 442.212 380.3 442.72 379.234C443.126 378.385 443.164 376.381 443.683 375.754C444.192 375.139 445.931 375.09 446.734 374.848C447.867 374.501 448.977 374.082 450.056 373.593C454.443 371.63 458.35 368.778 462.556 366.48C464.915 365.131 467.436 364.088 470.058 363.375Z" fill="#2F2E41"/>
<path opacity="0.1" d="M458.939 371.79C455.569 374.321 451.206 376.648 447.866 379.245C446.727 380.132 427.726 390.814 427.457 392.233C430.573 392.758 450.42 378.873 453.26 377.487C456.052 376.003 458.683 374.234 461.112 372.209C461.747 371.714 464.441 370.229 462.616 369.677C461.588 369.366 459.698 371.284 458.939 371.79Z" fill="black"/>
<path d="M440.454 254.319L425.451 246.461L404.734 249.676L400.447 268.608L411.117 268.197L414.098 261.242V268.083L419.022 267.893L421.879 256.82L423.665 268.608L441.169 268.25L440.454 254.319Z" fill="#2F2E41"/>
<path d="M437.105 293.156H404.822V332.119H437.105V293.156Z" fill="#3F3D56"/>
<path d="M389.496 361.922C390.174 363.076 391.139 364.036 392.296 364.708C393.055 365.055 393.884 365.224 394.718 365.201C395.552 365.179 396.37 364.966 397.11 364.579C398.587 363.787 399.796 362.575 400.584 361.096C402.214 358.217 402.552 354.772 402.349 351.469C402.145 348.167 401.44 344.915 401.128 341.621C400.901 339.226 400.883 336.817 400.864 334.412C400.808 333.906 400.914 333.396 401.167 332.954C401.603 332.521 402.167 332.239 402.776 332.151C406.066 331.173 408.251 328.089 409.816 325.034C410.862 322.994 411.771 320.765 411.57 318.481C411.368 316.198 409.727 313.898 407.446 313.665C405.566 313.473 403.831 314.667 402.474 315.983C399.054 319.324 396.855 323.718 396.232 328.459C395.934 330.78 396.02 333.165 395.388 335.419C394.04 340.231 389.821 343.182 387.719 347.512C385.402 352.284 386.681 357.701 389.496 361.922Z" fill="#A0616A"/>
<path d="M451.574 343.537C451.094 344.653 450.396 345.662 449.52 346.504C448.644 347.345 447.608 348.003 446.474 348.438C445.064 349.004 443.509 349.099 442.04 348.709C441.312 348.507 440.64 348.14 440.077 347.636C439.513 347.132 439.074 346.505 438.792 345.804C438.568 345.098 438.444 344.363 438.426 343.622C438.215 340.377 438.297 337.033 439.476 334.002C439.93 332.833 440.543 331.724 440.902 330.522C441.255 329.134 441.435 327.707 441.439 326.275L441.827 317.421C441.891 316.778 441.847 316.129 441.695 315.501C441.309 314.219 440.111 313.387 439.013 312.623C436.359 310.777 433.737 308.624 432.451 305.659C432.01 304.766 431.851 303.76 431.998 302.774C432.361 301.016 434.135 299.878 435.889 299.494C437.036 299.243 438.223 299.227 439.377 299.447C440.531 299.667 441.628 300.118 442.603 300.774C443.578 301.429 444.41 302.275 445.049 303.26C445.689 304.246 446.122 305.35 446.323 306.508C446.496 307.507 446.494 308.528 446.595 309.537C446.811 311.677 447.49 313.741 447.916 315.85C448.963 321.045 448.42 326.415 449.456 331.609C450.321 335.952 453.586 338.785 451.574 343.537Z" fill="#A0616A"/>
<path d="M421.791 312.265C424.687 312.265 427.035 309.917 427.035 307.02C427.035 304.124 424.687 301.776 421.791 301.776C418.895 301.776 416.547 304.124 416.547 307.02C416.547 309.917 418.895 312.265 421.791 312.265Z" fill="#008081"/>
</svg>
