<svg width="717" height="650" viewBox="0 0 717 450" fill="none" xmlns="http://www.w3.org/2000/svg">
<g clip-path="url(#clip0)">
<path d="M82.1939 139.789L544.509 18.3426L628.098 336.547L165.783 457.993L82.1939 139.789Z" fill="#FFFAFA"/>
<path d="M556.577 287.545L556.286 296.351L553.963 315.187L546.121 316.41L544.088 308.827V299.042C544.088 299.042 548.445 292.193 547.283 287.545C546.121 282.897 556.577 287.545 556.577 287.545Z" fill="#FBBEBE"/>
<path d="M555.138 288.301C560.443 288.301 564.744 284 564.744 278.695C564.744 273.39 560.443 269.089 555.138 269.089C549.832 269.089 545.532 273.39 545.532 278.695C545.532 284 549.832 288.301 555.138 288.301Z" fill="#2F2E41"/>
<path d="M531.31 422.417L531.89 434.325L538.28 432.583L537.699 422.998L531.31 422.417Z" fill="#FBBEBE"/>
<path d="M574.584 421.256L577.633 433.599L582.861 432.437L580.102 420.384L574.584 421.256Z" fill="#FBBEBE"/>
<path d="M523.178 351.552L522.016 355.328C522.016 355.328 518.531 365.493 522.016 366.074C525.501 366.655 526.372 356.78 526.372 356.78L528.405 353.295L523.178 351.552Z" fill="#FBBEBE"/>
<path d="M526.954 340.807L522.016 352.133L529.493 355.427L533.633 340.807H526.954Z" fill="#575A89"/>
<path d="M562.096 330.932L571.39 379.143L582.426 421.546L567.614 424.16L548.736 362.008L539.152 424.741L526.373 423.289L529.567 357.361L536.538 329.189L562.096 330.932Z" fill="#2F2E41"/>
<path d="M539.151 433.454C539.732 433.454 542.637 436.648 541.765 440.134C541.192 442.618 540.804 445.142 540.604 447.685C540.604 447.685 530.003 451.315 524.485 447.83C518.967 444.345 530.148 440.424 530.148 440.424L530.729 432.873L539.151 431.13V433.454Z" fill="#2F2E41"/>
<path d="M583.732 433.454C584.313 433.454 587.217 436.648 586.346 440.134C585.773 442.618 585.384 445.142 585.184 447.685C585.184 447.685 574.584 451.315 569.066 447.83C563.547 444.345 574.729 440.424 574.729 440.424L575.31 432.873L583.732 431.13V433.454Z" fill="#2F2E41"/>
<path d="M552.221 288.819C556.551 288.819 560.062 285.309 560.062 280.978C560.062 276.647 556.551 273.136 552.221 273.136C547.89 273.136 544.379 276.647 544.379 280.978C544.379 285.309 547.89 288.819 552.221 288.819Z" fill="#FBBEBE"/>
<path d="M549.607 310.311L555.415 290.272L557.448 291.433L568.775 319.896L563.547 333.836C563.547 333.836 537.99 332.094 537.99 331.803C537.99 331.513 540.603 298.113 540.603 298.113L545.675 292.247L545.831 296.371L549.607 310.311Z" fill="#575A89"/>
<path d="M571.099 292.305C571.099 292.305 570.808 289.691 568.775 290.272C566.742 290.852 556.353 290.187 556.353 290.187C556.353 290.187 553.382 293.757 557.158 301.018C560.933 308.278 565.145 358.378 565.145 358.378L578.65 355.038L571.679 309.73L571.099 292.305Z" fill="#2F2E41"/>
<path d="M547.428 290.707L533.633 301.889L534.504 321.348L528.696 360.846L536.247 362.589L546.993 292.595L547.428 290.707Z" fill="#2F2E41"/>
<path d="M569.937 320.186L563.548 322.219C563.548 322.219 558.901 331.803 562.095 332.965C565.29 334.127 566.592 325.717 566.592 325.717L572.551 323.671L569.937 320.186Z" fill="#FBBEBE"/>
<path d="M535.376 301.598L535.077 300.63L533.633 301.598C532.172 304.107 531.187 306.864 530.729 309.73C530.148 314.087 525.792 342.549 525.792 342.549L534.504 341.678L535.376 301.598Z" fill="#2F2E41"/>
<path d="M578.65 316.41L568.775 319.895L571.97 326.285L583.587 321.348L578.65 316.41Z" fill="#575A89"/>
<path d="M567.904 291.724C568.194 291.724 596.656 308.278 593.462 314.958C591.493 318.977 588.065 322.093 583.877 323.671L576.907 316.41L580.392 313.796L569.646 306.826L567.904 291.724Z" fill="#2F2E41"/>
<path d="M563.335 275.777C563.188 273.98 562.327 272.137 560.736 271.288C561.535 269.683 562.249 267.851 561.722 266.137C561.509 265.471 561.121 264.875 560.601 264.41C560.08 263.944 559.445 263.625 558.76 263.486C557.996 263.381 557.22 263.391 556.459 263.516L552.87 263.923C551.696 263.969 550.546 264.278 549.507 264.829C548.991 265.155 548.56 265.597 548.247 266.121C547.933 266.644 547.747 267.233 547.704 267.842C547.66 268.45 547.76 269.06 547.995 269.623C548.23 270.186 548.594 270.686 549.057 271.082C546.546 273.09 544.868 274.615 543.726 277.62C545.642 276.059 548.035 275.202 550.507 275.193C552.187 275.102 553.836 275.67 555.104 276.775C556.372 277.881 557.159 279.438 557.297 281.115C557.283 281.956 557.357 282.797 557.518 283.622C557.762 284.428 558.497 285.182 559.331 285.065C559.215 285.081 558.504 282.945 559.005 281.959L559.012 281.943C559.123 281.739 559.304 281.583 559.522 281.505C559.717 281.431 559.925 281.398 560.133 281.41C560.341 281.422 560.544 281.479 560.729 281.575C560.914 281.672 561.076 281.807 561.204 281.971C561.333 282.135 561.425 282.324 561.475 282.527C561.753 283.597 562.199 284.962 562.588 284.599C563.098 284.125 562.884 279.94 563.021 279.292C563.296 278.142 563.402 276.958 563.335 275.777Z" fill="#2F2E41"/>
<path d="M560.697 271.26C560.697 271.26 552.804 271.774 549.029 271.088L560.697 271.26Z" fill="#D0CDE1"/>
<path d="M560.249 270.203C561.048 268.598 561.763 266.766 561.236 265.052C560.99 264.279 560.508 263.602 559.859 263.116C560.355 263.344 560.798 263.673 561.161 264.081C561.523 264.49 561.797 264.969 561.964 265.489C562.491 267.203 561.777 269.035 560.977 270.64C560.343 270.546 561.841 271.052 560.249 270.203Z" fill="#2F2E41"/>
<path d="M66.5071 384.578L78.2418 373.078C73.6115 371.923 69.1198 370.271 64.8452 368.149C50.2021 360.872 38.7387 348.474 32.6288 333.306C28.981 324.209 27.3894 314.417 27.9677 304.633C28.546 294.848 31.2799 285.312 35.9739 276.708C40.6679 268.103 47.2058 260.643 55.1199 254.86C63.0339 249.077 72.1283 245.115 81.7524 243.257C91.3764 241.4 101.292 241.693 110.79 244.115C120.287 246.537 129.132 251.028 136.691 257.268C144.251 263.507 150.337 271.341 154.515 280.207C158.694 289.074 160.86 298.754 160.86 308.556C160.86 309.977 160.814 311.389 160.721 312.793C160.55 315.515 160.214 318.225 159.712 320.906C159.317 325.032 158.513 329.11 157.315 333.078C152.056 350.712 139.649 367.02 126.519 379.693L94.0931 410.99H124.02C134.029 410.992 143.628 414.969 150.705 422.046C157.783 429.124 161.759 438.722 161.761 448.731H39.5554C39.5547 425.64 48.448 403.435 64.3885 386.728C65.0799 385.998 65.7861 385.282 66.5071 384.578Z" fill="#FF9800"/>
<path d="M146.652 267.472L118.064 283.976L61.2233 316.795L32.6287 333.307C30.5804 328.198 29.1783 322.854 28.455 317.398L61.8512 298.115L101.584 275.179L134.968 255.896C139.327 259.255 143.252 263.144 146.652 267.472Z" fill="#3F3D56"/>
<path d="M160.721 312.793C160.551 315.515 160.214 318.225 159.712 320.906C159.317 325.032 158.514 329.11 157.315 333.078L64.3887 386.728C65.0801 385.998 65.7863 385.282 66.5073 384.578L78.242 373.078C73.6116 371.923 69.1199 370.271 64.8454 368.149L160.721 312.793Z" fill="#3F3D56"/>
<path d="M94.3672 342.701C113.225 342.701 128.513 327.413 128.513 308.555C128.513 289.696 113.225 274.409 94.3672 274.409C75.5089 274.409 60.2212 289.696 60.2212 308.555C60.2212 327.413 75.5089 342.701 94.3672 342.701Z" fill="white"/>
<path d="M345.603 382.028C345.599 399.275 338.895 415.847 326.904 428.244C314.913 440.642 298.575 447.896 281.337 448.474C264.099 449.053 247.311 442.911 234.515 431.346C221.72 419.78 213.92 403.695 212.76 386.487C212.658 385.015 212.607 383.525 212.607 382.028C212.608 365.916 218.458 350.352 229.07 338.228C239.682 326.104 254.335 318.246 270.305 316.112C286.275 313.979 302.477 317.716 315.899 326.629C329.321 335.542 339.051 349.025 343.281 364.571V364.578C344.787 370.111 345.565 375.817 345.596 381.552V381.558C345.603 381.717 345.603 381.869 345.603 382.028Z" fill="#FF9800"/>
<path d="M316.145 326.799L279.609 347.889L249.27 365.409L212.76 386.487C212.658 385.015 212.607 383.525 212.607 382.028C212.604 377.077 213.153 372.141 214.244 367.312L298.797 318.495C304.953 320.405 310.797 323.202 316.145 326.799Z" fill="#3F3D56"/>
<path d="M345.596 381.552V381.558L303.63 405.782L303.618 405.789L287.398 415.157L245.445 439.382C240.502 436.478 235.956 432.945 231.922 428.871L261.931 411.542L313.253 381.913L343.281 364.578C344.787 370.111 345.565 375.817 345.596 381.552Z" fill="#3F3D56"/>
<path d="M279.104 416.173C297.963 416.173 313.25 400.885 313.25 382.027C313.25 363.168 297.963 347.881 279.104 347.881C260.246 347.881 244.958 363.168 244.958 382.027C244.958 400.885 260.246 416.173 279.104 416.173Z" fill="white"/>
<path d="M433.891 375.621L435.192 374.346C421.46 370.922 409.179 363.203 400.141 352.312C391.102 341.422 385.777 327.93 384.942 313.802C384.859 312.489 384.819 311.163 384.821 309.824C384.819 292.272 391.757 275.43 404.123 262.972C416.488 250.515 433.278 243.452 450.831 243.325C468.383 243.198 485.274 250.016 497.819 262.293C510.364 274.57 517.546 291.309 517.798 308.86C517.81 309.184 517.81 309.501 517.81 309.824C517.81 313.968 517.425 318.102 516.662 322.174C516.47 324.249 516.167 326.311 515.755 328.353V328.359C511.784 348.276 498.077 366.861 483.469 380.962L451.043 412.259H480.97C490.979 412.26 500.578 416.237 507.655 423.315C514.733 430.392 518.709 439.991 518.711 450H396.499C396.499 438.051 398.884 426.222 403.513 415.207C408.142 404.191 414.922 394.209 423.457 385.846L433.891 375.621Z" fill="#FF9800"/>
<path d="M500.697 265.29L388.05 330.325C386.313 324.973 385.268 319.42 384.942 313.802L487.953 254.329C492.647 257.429 496.929 261.112 500.697 265.29Z" fill="#3F3D56"/>
<path d="M517.811 309.824C517.81 313.968 517.426 318.102 516.663 322.174C516.47 324.248 516.168 326.311 515.756 328.352V328.359L433.892 375.621L435.192 374.346C428.871 372.771 422.818 370.27 417.229 366.925L517.798 308.86C517.811 309.184 517.811 309.501 517.811 309.824Z" fill="#3F3D56"/>
<path d="M451.315 343.969C470.174 343.969 485.461 328.682 485.461 309.823C485.461 290.965 470.174 275.677 451.315 275.677C432.457 275.677 417.169 290.965 417.169 309.823C417.169 328.682 432.457 343.969 451.315 343.969Z" fill="white"/>
<path d="M707.887 383.506C707.887 383.975 707.881 384.451 707.874 384.92C707.515 401.888 700.681 418.077 688.772 430.169C676.863 442.262 660.78 449.342 643.82 449.961C626.859 450.58 610.304 444.69 597.545 433.497C584.787 422.304 576.791 406.657 575.196 389.76C574.993 387.698 574.898 385.618 574.898 383.506C574.892 371.299 578.247 359.326 584.595 348.9C590.943 338.473 600.039 329.996 610.886 324.397C621.733 318.798 633.912 316.293 646.088 317.158C658.264 318.022 669.967 322.222 679.914 329.298C688.571 335.439 695.628 343.566 700.496 352.998C705.363 362.43 707.897 372.892 707.887 383.506Z" fill="#FF9800"/>
<path d="M679.914 329.298L575.197 389.76C574.994 387.698 574.898 385.618 574.898 383.505C574.893 379.282 575.295 375.068 576.097 370.921L663.156 320.658C669.126 322.723 674.769 325.633 679.914 329.298Z" fill="#3F3D56"/>
<path d="M707.887 383.506C707.887 383.975 707.881 384.451 707.875 384.92L609.367 441.792C604.285 438.997 599.591 435.549 595.406 431.535L705.991 367.686C707.256 372.864 707.893 378.175 707.887 383.506Z" fill="#3F3D56"/>
<path d="M641.393 417.653C660.251 417.653 675.539 402.365 675.539 383.507C675.539 364.648 660.251 349.361 641.393 349.361C622.534 349.361 607.247 364.648 607.247 383.507C607.247 402.365 622.534 417.653 641.393 417.653Z" fill="white"/>
<path d="M211.797 364.307V369.947C211.797 369.947 171.43 366.978 169.352 363.713C167.274 360.448 172.023 338.781 172.023 338.781L207.048 345.608L211.797 364.307Z" fill="#2F2E41"/>
<path opacity="0.3" d="M211.797 364.307V369.947C211.797 369.947 171.43 366.978 169.352 363.713C167.274 360.448 172.023 338.781 172.023 338.781L207.048 345.608L211.797 364.307Z" fill="black"/>
<path d="M176.773 380.038L198.737 410.907L201.705 412.985L193.098 425.748L166.087 394.285C166.087 394.285 158.073 386.568 161.932 382.116C165.791 377.664 176.773 380.038 176.773 380.038Z" fill="#2F2E41"/>
<path d="M200.221 412.985C200.221 412.985 204.673 411.204 207.345 414.766L203.486 423.67C203.486 423.67 193.988 438.214 190.129 437.917C186.271 437.62 187.161 431.981 188.348 431.387C189.536 430.794 192.481 425.029 192.481 425.029L200.221 412.985Z" fill="#2F2E41"/>
<path d="M193.971 434.977L193.988 443.854C193.161 445.647 191.716 447.084 189.918 447.901C188.12 448.718 186.088 448.862 184.193 448.306C177.069 446.525 183.006 440.885 183.006 440.885L184.787 436.136L193.971 434.977Z" fill="#2F2E41"/>
<path d="M196.214 280.457C201.132 280.457 205.119 276.47 205.119 271.552C205.119 266.634 201.132 262.648 196.214 262.648C191.296 262.648 187.31 266.634 187.31 271.552C187.31 276.47 191.296 280.457 196.214 280.457Z" fill="#A0616A"/>
<path d="M188.348 271.404L186.568 282.98L194.878 294.852L200.815 276.746L188.348 271.404Z" fill="#A0616A"/>
<path d="M190.723 286.542L198.722 283.128L199.924 341.452L174.992 339.671L183.599 283.87L186.956 280.457L190.723 286.542Z" fill="#575A89"/>
<path d="M191.02 291.884L191.241 289.656L193.691 290.103L199.193 281.692L203.783 284.167L216.249 292.181L210.906 326.315V349.763C210.906 349.763 217.436 361.933 212.093 369.947L204.673 354.512C204.673 354.512 190.723 330.47 191.02 323.05C191.316 315.629 191.02 291.884 191.02 291.884Z" fill="#2F2E41"/>
<path d="M185.677 288.619L187.052 279.829L184.193 281.792L170.836 288.025L164.306 368.166L180.038 373.805C180.038 373.805 190.426 295.743 185.677 288.619Z" fill="#2F2E41"/>
<path d="M173.804 337.594L202.892 338.781C202.892 338.781 205.564 354.809 203.486 367.572C201.408 380.335 193.691 437.027 193.691 437.027H183.599L187.458 391.911L186.271 364.604L177.663 381.226L161.932 382.116L173.804 337.594Z" fill="#2F2E41"/>
<path d="M199.788 256.025C200.48 255.913 201.245 255.591 201.832 255.975C202.134 256.233 202.375 256.555 202.539 256.917C203.218 258.026 204.408 258.694 205.481 259.428C206.555 260.162 207.625 261.123 207.82 262.408C207.987 263.515 207.463 264.612 207.447 265.732C207.427 267.148 208.195 268.683 207.47 269.9C207.139 270.456 206.549 270.814 206.186 271.351C205.546 272.298 205.549 273.825 204.468 274.199C204.516 272.846 204.439 271.492 204.241 270.153C204.208 269.765 204.091 269.39 203.897 269.053C203.413 268.33 202.422 268.221 201.572 268.037C200.483 267.794 199.456 267.325 198.558 266.661C197.66 265.997 196.912 265.152 196.361 264.181C196.905 264.825 196.288 265.914 195.459 266.07C195.038 266.103 194.615 266.039 194.223 265.883C193.83 265.727 193.479 265.482 193.196 265.169C193.509 265.896 193.659 266.683 193.635 267.474C193.611 268.265 193.414 269.042 193.057 269.749C192.701 270.456 192.194 271.076 191.573 271.566C190.951 272.056 190.229 272.404 189.459 272.586C189.499 272.083 189.409 271.579 189.197 271.121C188.986 270.663 188.66 270.267 188.252 269.971C187.394 269.365 186.168 269.185 185.657 268.268C185.362 267.518 185.359 266.686 185.648 265.934L186.375 263.046C186.442 262.298 186.696 261.58 187.114 260.957C187.533 260.335 188.102 259.828 188.769 259.485L190.95 258.09C191.63 257.597 192.385 257.218 193.185 256.964C193.899 256.786 194.622 257.007 195.321 256.815C195.899 256.657 196.369 256.242 196.97 256.11C197.898 255.905 198.854 256.176 199.788 256.025Z" fill="#2F2E41"/>
<path d="M169.649 345.608C169.649 345.608 174.695 358.668 169.352 359.261C164.01 359.855 164.306 347.685 164.306 347.685L169.649 345.608Z" fill="#A0616A"/>
<path d="M173.805 288.322L172.376 287.307L170.836 287.729L162.822 317.707L160.448 350.357L171.43 345.904L170.836 322.753L173.805 288.322Z" fill="#2F2E41"/>
<path d="M205.267 350.653L202.002 354.215L200.55 347.819L205.267 350.653Z" fill="#A0616A"/>
<path d="M213.578 292.478L215.084 291.431L216.249 291.884C216.249 291.884 226.341 320.972 224.263 328.096C222.185 335.219 206.454 354.215 206.454 354.215L199.331 346.498L212.687 326.611L208.532 321.862L213.578 292.478Z" fill="#2F2E41"/>
<path opacity="0.3" d="M186.714 400.615L185.337 416.708L186.714 394.009L187.458 395.056L186.714 400.615Z" fill="black"/>
<path opacity="0.3" d="M197.517 409.192L193.97 434.976L198.885 410.759L197.517 409.192Z" fill="black"/>
<path d="M716.768 448.154H0V449.423H716.768V448.154Z" fill="#3F3D56"/>
<path d="M379.95 396.775C389.409 396.775 397.076 389.108 397.076 379.649C397.076 370.19 389.409 362.523 379.95 362.523C370.491 362.523 362.824 370.19 362.824 379.649C362.824 389.108 370.491 396.775 379.95 396.775Z" fill="#3F3D56"/>
<path d="M556.077 56.6975C556.077 56.6975 535.735 25.1864 516.924 28.2403C498.113 31.2941 556.077 56.6975 556.077 56.6975Z" fill="#E6E6E6"/>
<path d="M149.038 158.329L158.235 153.513L232.522 114.551L239.077 111.134C239.527 110.903 240.019 110.765 240.523 110.73C241.028 110.695 241.534 110.762 242.011 110.929C242.489 111.096 242.927 111.358 243.3 111.699C243.673 112.041 243.972 112.455 244.18 112.916C244.371 113.348 244.477 113.812 244.492 114.284L245.22 135.791C245.253 136.774 245.673 137.704 246.389 138.378C247.105 139.052 248.059 139.415 249.042 139.389L433.37 133.154C434.353 133.121 435.309 133.478 436.029 134.147C436.75 134.816 437.177 135.742 437.218 136.725L438.245 167.092C438.278 168.079 437.918 169.039 437.243 169.761C436.569 170.483 435.635 170.907 434.648 170.94L250.32 177.174C249.342 177.215 248.419 177.638 247.751 178.353C247.082 179.068 246.722 180.017 246.749 180.996L247.492 202.981C247.509 203.453 247.435 203.924 247.273 204.367C247.096 204.842 246.824 205.275 246.474 205.641C246.124 206.007 245.703 206.298 245.237 206.495C244.77 206.693 244.269 206.793 243.762 206.791C243.256 206.788 242.756 206.682 242.291 206.479L235.529 203.466L158.766 169.228L149.247 164.998C148.617 164.709 148.079 164.25 147.695 163.673C147.312 163.095 147.097 162.422 147.075 161.728C147.053 161.035 147.225 160.35 147.572 159.749C147.919 159.148 148.426 158.656 149.038 158.329Z" fill="#FF9800"/>
</g>
<defs>
<clipPath id="clip0">
<rect width="716.768" height="450" fill="white"/>
</clipPath>
</defs>
</svg>
