<svg width="95" height="100" viewBox="0 0 95 100" fill="none" xmlns="http://www.w3.org/2000/svg">
<g clip-path="url(#clip0)">
<path d="M34.4925 0.187946C33.0451 0.375916 31.9925 0.714262 28.703 2.03005L26.0338 3.08268L22.7444 3.19547C18.1203 3.34584 18.0263 3.40223 14.1165 7.80073C12.9323 9.13531 11.1842 10.9962 10.2632 11.9361C5.35714 16.8985 3.40226 20.2819 3.1203 24.2481C3.04511 25.1316 2.95113 26.3158 2.89474 26.8797C2.76316 28.4962 3.1015 27.6128 3.45865 25.4699C3.98496 22.312 4.69925 20.5639 6.39098 18.327C7.91353 16.3158 18.3647 6.03381 19.3609 5.56389C20.1128 5.20674 20.4887 5.16915 22.7444 5.22554C25.7895 5.28193 26.2782 5.16915 30.3759 3.49622C33.8722 2.06765 35.7143 1.69171 37.2932 2.04885C38.3083 2.27441 39.0977 2.87592 39.0977 3.38343C39.0977 3.57141 38.9662 4.07892 38.8158 4.53005C38.2519 6.109 39.1541 7.31201 42.0113 8.77817C44.3985 9.99998 47.594 11.2782 48.2895 11.2782C48.9098 11.2782 49.3609 10.8458 49.5489 10.0564C49.8684 8.70299 51.109 8.15787 53.6278 8.32704C55.3195 8.42103 55.3383 8.42103 54.6992 8.13907C54.2669 7.93231 53.4586 7.83832 52.3496 7.81952C50.8834 7.80073 50.5639 7.85712 49.9624 8.23306C49.5865 8.47742 49.0601 9.02253 48.8158 9.45486C48.4962 10.0376 48.2895 10.2255 48.0263 10.1879C47.4624 10.0752 42.8947 7.80073 41.8421 7.10524C41.3346 6.76689 40.7519 6.25937 40.5451 5.97742L40.1504 5.4511L40.6015 4.53005C40.9023 3.85336 40.9962 3.42103 40.9023 2.9887C40.5075 0.958624 37.7632 -0.244385 34.4925 0.187946Z" fill="#008081"/>
<path d="M62.5939 9.56766C61.2969 9.68044 61.2405 9.69924 61.936 9.81202C62.3495 9.88721 63.3082 9.9624 64.0413 9.9624C65.3571 9.9624 65.4135 9.98119 65.5262 10.4511C65.6014 10.7331 65.5826 11.2594 65.4886 11.6353C65.3383 12.218 65.2255 12.3308 64.6616 12.406C63.9097 12.5188 63.9097 12.5376 64.5676 14.1917C67.7819 22.312 74.9435 33.5902 79.2105 37.2744C80.6578 38.515 81.2969 38.8534 82.8947 39.1917C84.6804 39.5865 85.3571 39.4925 88.8157 38.4398C90.3383 37.9699 91.6541 37.594 91.7481 37.594C92.3872 37.594 90.827 40.8271 89.0037 43.2519C88.3458 44.1353 86.4285 46.297 84.7556 48.0451C79.5864 53.4586 78.0826 55.3195 76.6729 58.1203C76.1465 59.1541 75.1879 61.7105 75.1879 62.0113C75.1879 62.0677 75.6766 61.1466 76.2781 59.9624C77.6503 57.1992 78.8721 55.6579 82.4999 52.1616C88.6654 46.2218 90.1127 44.6992 91.4097 42.7632C92.7255 40.7707 93.421 39.3609 94.0037 37.5C94.5488 35.7707 94.5488 35.7707 93.1014 35.6391C91.7669 35.5075 91.4473 35.5827 87.4436 36.7481C85.1879 37.406 83.1202 37.3684 81.6917 36.6541C79.4548 35.5263 73.4586 27.7256 69.0789 20.3007C67.3308 17.3496 65.4135 13.7218 65.4135 13.3834C65.4135 13.2895 65.6202 13.1015 65.8834 12.9699C66.3345 12.7256 66.3533 12.6504 66.2405 11.485C66.0526 9.3233 66.1089 9.39849 64.9811 9.43608C64.4548 9.45488 63.3646 9.51127 62.5939 9.56766Z" fill="#008081"/>
<path d="M64.8758 37.394C64.0111 37.582 62.8269 37.9391 62.2254 38.2023C58.8795 39.5557 54.8006 43.5783 53.0713 47.2437C52.5638 48.2775 52.1314 49.1798 52.0938 49.255C52.0562 49.3489 52.0562 49.4053 52.1126 49.4053C52.169 49.4053 52.4886 49.0106 52.8269 48.5031C55.3457 44.8377 58.8044 42.1121 62.3194 41.0219C63.748 40.5707 64.0863 40.5331 66.3607 40.6083C68.56 40.6835 69.0863 40.7587 70.6465 41.3038C74.1239 42.488 77.7141 44.8565 79.7066 47.2813L80.8532 48.7098L82.1502 47.3565C83.0713 46.3978 83.4096 45.9091 83.3344 45.6835C83.1653 45.176 80.1014 42.0369 78.56 40.7963C74.6314 37.6008 69.5186 36.3414 64.8758 37.394Z" fill="#37468E"/>
<path d="M21.1654 17.3121C18.4586 17.7068 15.8646 18.9662 14.7556 20.4136C13.6278 21.8985 13.5338 22.4625 13.5338 27.9136C13.5338 32.5376 13.5526 32.9512 13.9473 33.9662C14.6992 36.0151 16.6729 37.4061 19.8684 38.1955C22.3872 38.797 26.5037 38.7594 29.0037 38.1016C32.0676 37.2933 35.2443 35.6016 38.4962 33.0264L39.6804 32.1053L41.5037 33.8722C44.2857 36.579 46.7857 37.9136 50.1316 38.4775C53.5526 39.0414 58.1203 38.2519 60.3947 36.673C61.4661 35.9211 62.4812 34.5677 62.7819 33.4775C62.8759 33.1016 62.9699 30.5828 62.9887 27.8948C63.0263 23.7219 62.9699 22.8572 62.7067 22.0301C62.0113 19.9625 59.7368 18.2707 56.6353 17.5376C54.6052 17.0677 49.8684 17.0677 48.1203 17.5564C45.3383 18.3271 43.1391 19.6241 39.5864 22.6128L37.3684 24.4925L36.8797 23.8534C35.2067 21.6166 31.9925 19.0602 29.6804 18.1204C27.3684 17.1805 24.1729 16.8798 21.1654 17.3121ZM27.5376 17.7632C31.3534 18.5715 34.7744 21.2407 37.8007 25.7895C39.1917 27.876 39.0601 27.7256 39.2293 27.5752C39.2857 27.5001 38.9473 26.861 38.4774 26.1279C37.9887 25.4136 37.594 24.7933 37.594 24.7557C37.594 24.5865 41.9361 21.0339 43.1015 20.2444C44.5864 19.2294 46.4661 18.3271 47.9323 17.9136C49.4173 17.5188 53.2331 17.3873 55.3195 17.6692C57.2368 17.9324 57.7255 18.064 58.2143 18.5151C58.4022 18.6843 59.0225 19.0978 59.5864 19.4173C60.7331 20.094 61.7105 21.3346 62.0489 22.6128C62.3308 23.6655 62.1804 25.6767 61.7669 26.5414L61.4286 27.2557L60.3759 26.5038C59.7932 26.0903 58.6466 25.5264 57.8195 25.2444C56.4098 24.7745 56.0526 24.7369 52.9135 24.7369L49.5301 24.7181L48.1203 25.3948C46.7669 26.0527 44.8496 27.3497 43.421 28.5715L42.7443 29.1354L41.1654 28.5903C40.2819 28.3083 37.9699 27.4249 35.9962 26.6542C32.6316 25.3384 32.0113 25.1316 29.8872 24.6429C25.3947 23.6279 19.8684 24.079 16.9173 25.6767C15.7143 26.3346 14.3609 27.594 13.9849 28.4399C13.7406 28.985 13.7218 28.7782 13.7782 25.8459C13.8346 22.9512 13.8722 22.5564 14.2669 21.767C15.2443 19.7557 17.5 18.3083 20.3947 17.782C22.3872 17.4249 25.8834 17.4249 27.5376 17.7632ZM62.7255 23.7219C62.6692 23.8534 62.6316 23.7594 62.6316 23.4963C62.6316 23.2331 62.6692 23.1391 62.7255 23.2519C62.7631 23.3835 62.7631 23.6091 62.7255 23.7219ZM27.9135 24.7181C28.9473 24.8685 30.5639 25.2068 31.4849 25.4512C33.1579 25.9211 36.5413 27.2369 36.4098 27.3873C36.3722 27.4249 35.9586 27.2933 35.4887 27.0865C33.8346 26.391 30.4511 25.376 28.7218 25.0752C26.4661 24.6805 21.3346 24.7933 19.6428 25.282C17.9511 25.7519 16.6729 26.4286 15.5639 27.3873L14.5676 28.2707L15.3195 27.4625C17.6504 24.9813 22.4812 23.9286 27.9135 24.7181ZM62.7255 25.2256C62.6692 25.3572 62.6316 25.2632 62.6316 25.0001C62.6316 24.7369 62.6692 24.6429 62.7255 24.7557C62.7631 24.8873 62.7631 25.1128 62.7255 25.2256ZM56.7481 25.282C59.0977 25.8459 61.297 27.1993 61.0338 27.9136C60.8458 28.3835 58.6654 29.6805 57.3684 30.0752C53.9286 31.1467 48.6278 30.9775 43.7406 29.6805C43.0263 29.4925 43.0075 29.4737 43.3646 29.0978C43.9849 28.4023 46.6353 26.5038 47.7819 25.9211C49.6616 24.9813 50.5827 24.7933 53.1955 24.9061C54.4925 24.9437 56.0902 25.1128 56.7481 25.282ZM27.2744 25.188C29.718 25.47 34.0225 26.6542 34.0225 27.0489C34.0225 27.3121 31.203 29.1542 29.8308 29.7933C28.1391 30.6016 26.3158 31.0151 24.3045 31.0151C21.0902 31.0151 18.3646 30.376 16.5789 29.2106C15.2819 28.3647 15.1879 28.0828 15.9962 27.4061C18.2331 25.5264 22.6692 24.6617 27.2744 25.188ZM62.7443 30.6391C62.688 32.876 62.6316 33.2895 62.2368 34.0978C60.827 36.9549 57.0864 38.4775 51.8797 38.3083C49.8684 38.2331 49.2857 38.1391 47.8947 37.6504C45.921 36.9737 43.9661 35.7707 42.2368 34.1918C40.9774 33.064 39.0225 30.6767 38.1579 29.2482C37.7443 28.5715 37.7443 28.5151 38.0827 28.6467C40.3571 29.5865 42.7631 30.3948 44.8872 30.9587C47.2368 31.5602 47.7631 31.6354 50.7707 31.7106C53.703 31.8046 54.2857 31.767 56.015 31.391C59.1353 30.7331 61.6729 29.173 62.4248 27.4813L62.688 26.861L62.7443 27.4813C62.7819 27.8196 62.7819 29.2482 62.7443 30.6391ZM35.8083 27.7068C36.8421 28.1204 36.9925 28.2707 38.1767 30.0001L39.4549 31.861L38.9473 32.2745C36.391 34.3798 33.0451 36.4286 30.9398 37.1993C28.2895 38.1579 26.6165 38.4023 23.609 38.3083C20.7895 38.2143 17.8571 37.6128 17.8571 37.1241C17.8571 36.9925 17.6128 36.7858 17.3308 36.673C16.5789 36.3534 15.3571 35.0564 14.7744 33.9474C14.3985 33.2331 14.2857 32.7632 14.2857 31.7858C14.2857 30.4324 14.5113 29.4173 14.9248 28.8534C15.1692 28.5151 15.2067 28.5151 15.7895 29.0226C17.2368 30.2256 19.2105 30.8835 22.3872 31.2219C26.5789 31.6542 29.8872 30.6579 33.4586 27.9136C33.9286 27.5564 34.3985 27.2557 34.5113 27.2557C34.624 27.2557 35.2067 27.4625 35.8083 27.7068ZM61.8609 27.594C61.5413 28.1955 60.0188 29.4737 59.0225 29.9813C56.7293 31.1467 51.7105 31.673 48.2143 31.1279C45.9962 30.7895 42.2744 29.7933 40.0752 28.9474C37.8007 28.064 38.2895 28.064 40.7143 28.9474C43.4962 29.9437 45.8834 30.564 48.0451 30.8459C50.3947 31.1279 55.3195 30.9775 56.8609 30.5452C58.5526 30.0752 60.4511 29.0038 61.2406 28.0828C62.0113 27.1805 62.1428 27.0865 61.8609 27.594ZM37.218 27.6316C37.3684 27.7256 37.4248 27.8196 37.312 27.8196C37.218 27.8196 36.9925 27.7256 36.8421 27.6316C36.6917 27.5376 36.6541 27.4437 36.7481 27.4437C36.8609 27.4437 37.0676 27.5376 37.218 27.6316ZM38.1579 28.0076C38.3083 28.1016 38.3646 28.1955 38.2519 28.1955C38.1579 28.1955 37.9323 28.1016 37.7819 28.0076C37.6316 27.9136 37.594 27.8196 37.688 27.8196C37.8007 27.8196 38.0075 27.9136 38.1579 28.0076ZM13.8534 31.9925C13.8158 32.3309 13.7782 32.1053 13.7782 31.485C13.7782 30.8647 13.8158 30.5828 13.8534 30.8647C13.891 31.1467 13.891 31.6542 13.8534 31.9925Z" fill="#FF8400"/>
<path d="M65.5713 44.9692C64.124 45.4392 63.3533 45.8339 62.0939 46.7925C60.421 48.0331 59.0676 49.6121 58.1277 51.379L57.2443 53.0707L58.5413 51.7362C61.8307 48.3715 64.9886 47.3565 69.2555 48.2963C70.4773 48.5595 73.2217 50.2888 74.7819 51.7926C75.5901 52.5444 76.3232 53.1647 76.436 53.1647C76.53 53.1647 77.1503 52.582 77.7894 51.8489L78.9548 50.5331L78.5601 49.988C78.3345 49.6873 77.4886 48.8038 76.6616 48.0331C73.4097 45.0256 69.0488 43.8038 65.5713 44.9692Z" fill="#37468E"/>
<path d="M67.451 52.0745C65.9473 52.4128 63.8232 54.2173 63.2593 55.6271C62.9397 56.4354 62.921 56.4354 64.3119 55.4955C65.5713 54.6309 66.6052 54.4993 68.2217 55.0444C69.2744 55.3827 69.7631 55.7023 70.8345 56.6797L72.1315 57.8828L72.7706 57.1685C73.936 55.8715 74.406 55.27 74.406 55.082C74.406 54.8188 72.3947 53.0143 71.6804 52.6572C70.9661 52.2812 69.3683 51.8489 68.7668 51.8677C68.5037 51.8865 67.921 51.9805 67.451 52.0745Z" fill="#37468E"/>
<path d="M0.714276 32.03C0.0375844 32.5375 -0.0564006 33.5338 0.488712 34.8684C0.845855 35.7706 1.61653 36.6917 2.96992 37.8195C4.75563 39.3044 5.30074 40.0939 5.92104 41.9736C6.52255 43.8157 7.14285 44.7744 8.25187 45.4699C9.45488 46.2405 10.5451 46.6165 12.1241 46.7481C13.891 46.8796 15.7143 46.5789 19.0789 45.5451C21.2782 44.8872 22.2932 44.6804 23.6842 44.6052L25.4699 44.5112L26.8797 45.4323C28.8534 46.7481 29.9436 47.0676 31.8421 46.9172C32.688 46.8608 33.8158 46.6917 34.3609 46.5413C35.3571 46.2969 35.3571 46.2969 35.2631 46.6917C34.5113 49.7744 34.3045 53.7217 34.7744 55.733L35.0564 56.8608L35.1692 54.3232C35.2819 51.4661 35.7519 49.1917 36.6541 46.8232C37.1428 45.5451 37.218 45.2255 37.0113 45.0939C36.6541 44.8684 35.1504 44.8872 33.3459 45.1315C31.0338 45.4511 29.9248 45.2631 28.421 44.2293C27.7256 43.7405 26.7105 43.1578 26.1466 42.8947C25.2444 42.4811 24.9624 42.4435 23.515 42.5187C21.8233 42.6315 21.015 42.8195 17.5752 43.9285C15.6579 44.5676 15.3383 44.6052 13.0639 44.624C10.9586 44.6428 10.5075 44.5864 9.77443 44.2481C8.57142 43.7029 8.17668 43.1954 7.23683 41.0714C6.31578 39.0037 5.75187 38.3646 3.51503 36.8984C1.07142 35.2819 -0.0376036 33.233 0.93984 32.1804C1.37217 31.7293 1.22179 31.6353 0.714276 32.03Z" fill="#008081"/>
<path d="M38.4775 60.2444C38.5527 60.4512 38.891 61.0339 39.2482 61.5602C39.6241 62.0677 40.4512 63.3271 41.1091 64.361C42.6128 66.7294 42.6504 67.1993 41.485 69.079C39.9812 71.5226 39.7557 72.3121 39.7745 75.094C39.7745 77.2557 39.8497 77.7444 40.3572 79.4173C40.6767 80.4512 41.3722 82.7256 41.9173 84.4737C43.5151 89.6993 44.5677 91.7482 46.7294 93.8722C48.1203 95.2444 48.3083 95.5828 48.3083 96.7106C48.3083 98.7783 49.1166 99.4549 51.5414 99.4174C52.4061 99.3986 52.9324 99.361 52.7256 99.3046C49.4737 98.5715 49.4361 98.5527 49.4361 96.5226C49.4361 94.8121 49.2106 94.3046 47.7444 92.7632C46.0903 91.0151 45.5452 89.6053 42.3497 79.0414C41.8233 77.2933 41.3346 74.3046 41.4662 73.6655C41.7857 72.1429 42.0489 71.3722 42.6692 70.1128C44.1354 67.1241 44.0978 66.673 42.1053 64.1542C40.4888 62.0865 38.2895 59.7369 38.4775 60.2444Z" fill="#FF8400"/>
<path d="M76.6354 63.4774C76.4098 63.8346 76.4474 66.6353 76.6918 69.2857C77.1053 73.7406 76.6918 74.53 72.688 76.7293C69.9436 78.2331 68.6278 79.3609 68.0451 80.7519C67.5188 81.9737 67.5752 82.1428 68.2331 81.2406C68.9098 80.3007 70.094 79.6052 72.9136 78.4586C79.0226 76.015 79.9249 73.6654 77.5376 66.1654C77.2933 65.3947 77.0301 64.4173 76.9361 64.0037C76.8422 63.5714 76.7106 63.3458 76.6354 63.4774Z" fill="#FF8400"/>
<path d="M88.8158 69.9813C88.0075 70.5828 87.2933 71.3723 86.7106 72.2933C86.0903 73.252 85.7331 73.4399 83.9662 73.6843C83.2331 73.7971 82.5 73.985 82.3497 74.0978C80.8647 75.2068 80.5451 76.0151 80.2632 79.3234C80.0752 81.2971 80 81.6354 79.2106 83.3083C78.1015 85.6579 78.0639 86.579 78.9662 87.5188C79.6805 88.2707 80.0564 88.3647 79.6241 87.688C79.0414 86.7858 79.2294 85.8835 80.376 84.173C81.7482 82.1241 81.8797 81.7858 82.2369 79.2858C82.406 78.1204 82.688 76.861 82.8572 76.5038C83.1391 75.9211 83.3271 75.8083 84.7369 75.376C86.7669 74.7557 87.3121 74.3046 87.8948 72.6505C88.1579 71.9362 88.6654 70.9399 89.0226 70.4512C89.7181 69.455 89.6805 69.3422 88.8158 69.9813Z" fill="#37468E"/>
<path d="M90.1127 71.3346C89.8683 71.7481 89.436 73.1955 88.872 75.4699C88.2705 77.8759 86.5788 80.9586 84.2104 84.0225C83.5149 84.906 82.5187 86.2782 81.9735 87.1052L80.9773 88.5902L81.8044 88.0075C83.3269 86.9549 86.0713 84.4737 87.0487 83.2519C88.6465 81.2594 89.0224 80.6203 89.6615 78.8534C90.2254 77.3308 90.3006 76.8985 90.3758 74.6241C90.4134 73.2331 90.4134 71.8233 90.3758 71.5226C90.3194 70.9963 90.3006 70.9775 90.1127 71.3346Z" fill="#37468E"/>
<path d="M69.342 82.2744C67.7067 84.0789 65.2443 88.2519 64.2857 90.8834C62.7255 95.1692 62.4624 95.5075 58.5338 98.3083C57.312 99.1729 56.4097 99.906 56.5413 99.9624C56.6541 100 57.5376 99.718 58.4962 99.3421C63.327 97.4248 64.5112 96.2594 66.0338 91.9173C66.4849 90.6203 67.312 88.5526 67.8383 87.312C68.3834 86.0714 68.9849 84.5489 69.1917 83.9286C69.3984 83.3271 69.6992 82.5752 69.8496 82.2932C70.2067 81.6165 69.9435 81.6165 69.342 82.2744Z" fill="#FF8400"/>
<g clip-path="url(#clip1)">
<path d="M46.4746 61.5205C46.474 61.5211 46.3519 61.5223 46.2034 61.5235C45.9243 61.5255 45.7706 61.5288 45.7092 61.5344C45.6354 61.5409 45.5309 61.5624 45.4657 61.5849C45.4044 61.6058 45.338 61.6421 45.3082 61.6707C45.3011 61.6775 45.2792 61.6976 45.2598 61.715C45.0783 61.8779 44.9567 62.0602 44.8543 62.3249C44.8334 62.3786 44.7755 62.5504 44.7652 62.5896L44.7578 62.6171H44.8162H44.8747L44.9065 62.566C44.9806 62.4477 45.034 62.3763 45.1084 62.2957C45.1878 62.2101 45.2639 62.1588 45.3633 62.1246C45.4604 62.0912 45.5528 62.0776 45.7003 62.075L45.7918 62.0735L45.7989 62.08C45.8054 62.0862 45.8057 62.0883 45.8039 62.1092C45.7974 62.1889 45.7956 62.2087 45.793 62.2364C45.7912 62.2535 45.7891 62.2792 45.7886 62.2939C45.788 62.3084 45.7862 62.3279 45.7847 62.3367C45.7832 62.3456 45.7821 62.355 45.7818 62.3574C45.7815 62.3733 45.7785 62.4164 45.7762 62.4415C45.7747 62.4577 45.7732 62.4736 45.7732 62.4769C45.7735 62.4801 45.772 62.4993 45.7703 62.5197C45.7685 62.54 45.7673 62.5598 45.7673 62.5639C45.7673 62.5681 45.7652 62.5952 45.7626 62.6244C45.7576 62.684 45.752 62.7578 45.7505 62.7912C45.7499 62.8033 45.7478 62.8275 45.7464 62.8446C45.7446 62.862 45.744 62.8788 45.7446 62.882C45.7452 62.8856 45.7446 62.8965 45.7431 62.9068C45.7416 62.9172 45.7396 62.9414 45.7387 62.9608C45.7378 62.9803 45.7363 63.0027 45.736 63.011C45.7354 63.019 45.734 63.0402 45.7331 63.0582C45.7319 63.0759 45.7298 63.1051 45.7284 63.1231C45.7269 63.1408 45.7242 63.1736 45.7225 63.1954C45.7127 63.3161 45.703 63.3914 45.6764 63.551C45.6301 63.8266 45.5841 63.9851 45.5059 64.1353C45.4631 64.2173 45.43 64.2695 45.3365 64.4006C45.2795 64.4808 45.2149 64.5747 45.2149 64.5779C45.2149 64.5791 45.2111 64.5853 45.2066 64.5921C45.1786 64.6334 45.1526 64.6998 45.142 64.7564C45.1352 64.7942 45.1349 64.8674 45.1417 64.8981C45.1603 64.9831 45.2055 65.0486 45.2786 65.0976C45.3406 65.1389 45.4038 65.1566 45.4805 65.1539C45.5661 65.151 45.6171 65.1274 45.687 65.0571C45.7573 64.9869 45.8163 64.8907 45.8555 64.783C45.87 64.7426 45.8747 64.7278 45.8933 64.6611C45.9532 64.4475 46.022 64.083 46.0736 63.7059C46.1043 63.4825 46.1232 63.3176 46.1341 63.1851C46.1471 63.0263 46.1949 62.3713 46.2102 62.1417C46.2126 62.108 46.2153 62.0794 46.2164 62.0773C46.2179 62.075 46.338 62.0741 46.6732 62.0741H47.128L47.1262 62.0939C47.1253 62.1051 47.1218 62.1337 47.1182 62.1582C47.0852 62.3934 47.0471 62.7528 47.0149 63.132C47.0099 63.1904 47.004 63.2606 47.0014 63.2884C46.9928 63.3816 46.994 64.0279 47.0028 64.1477C47.0226 64.4059 47.0548 64.5835 47.1082 64.7299C47.1232 64.7709 47.1607 64.845 47.1834 64.8789C47.2649 64.9999 47.3732 65.0866 47.4959 65.1282C47.5458 65.1454 47.5709 65.1492 47.6393 65.151C47.755 65.1539 47.8182 65.1412 47.9076 65.0973C47.9787 65.0621 48.048 65.0123 48.1088 64.9518C48.2322 64.8299 48.3101 64.6871 48.3682 64.4767C48.3954 64.379 48.4331 64.194 48.439 64.1311L48.4411 64.1102H48.3927C48.3661 64.1102 48.3396 64.1111 48.3337 64.112L48.3231 64.1137L48.3133 64.1586C48.2909 64.2628 48.2691 64.315 48.223 64.3743C48.1711 64.4416 48.0908 64.4929 48.0094 64.5109C47.8973 64.536 47.7848 64.5233 47.6792 64.4743C47.5676 64.4224 47.485 64.3182 47.4419 64.1751C47.4242 64.1173 47.416 64.0739 47.4124 64.0231C47.408 63.9553 47.408 63.5318 47.4127 63.4374C47.4272 63.1456 47.4425 62.9564 47.4756 62.6598C47.4835 62.5881 47.5145 62.3385 47.5254 62.26C47.5302 62.2252 47.5375 62.1706 47.542 62.139C47.5464 62.1074 47.5511 62.0797 47.5526 62.0776C47.555 62.075 47.6467 62.0741 47.9932 62.0741C48.2337 62.0741 48.4346 62.0732 48.4396 62.0723L48.4488 62.0706L48.4505 61.8944C48.4514 61.7976 48.4526 61.6813 48.4535 61.6356C48.455 61.5654 48.4544 61.5512 48.4505 61.5421C48.4476 61.5347 48.4441 61.5311 48.4402 61.5311C48.4373 61.5311 48.4334 61.5288 48.4317 61.5258C48.429 61.5211 48.3788 61.5208 47.4523 61.5202C46.9152 61.5199 46.4752 61.5199 46.4746 61.5205Z" fill="#FF9800"/>
<path d="M46.9926 63.464C46.9926 63.4844 46.9929 63.4926 46.9935 63.4823C46.994 63.4723 46.994 63.4557 46.9935 63.4454C46.9929 63.4354 46.9926 63.4436 46.9926 63.464Z" fill="#FF9800"/>
<path d="M46.989 63.5598C46.989 63.5646 46.9896 63.5663 46.9905 63.5634C46.9911 63.5607 46.9911 63.5566 46.9905 63.5545C46.9896 63.5528 46.989 63.5548 46.989 63.5598Z" fill="#FF9800"/>
</g>
<path d="M52.1213 65.2256C52.086 65.1551 52.0574 65.0295 52.0353 64.8489C51.7512 65.1441 51.412 65.2917 51.0177 65.2917C50.6652 65.2917 50.3756 65.1925 50.1487 64.9943C49.924 64.7938 49.8116 64.5405 49.8116 64.2343C49.8116 63.8621 49.9526 63.5735 50.2346 63.3687C50.5187 63.1616 50.9174 63.0581 51.4307 63.0581H52.0254V62.7772C52.0254 62.5636 51.9616 62.3939 51.8338 62.2684C51.706 62.1406 51.5177 62.0768 51.2688 62.0768C51.0507 62.0768 50.8679 62.1318 50.7203 62.242C50.5727 62.3521 50.4989 62.4854 50.4989 62.6418H49.8843C49.8843 62.4633 49.9471 62.2915 50.0727 62.1263C50.2004 61.9589 50.3723 61.8267 50.5881 61.7298C50.8062 61.6329 51.0452 61.5844 51.3051 61.5844C51.717 61.5844 52.0397 61.688 52.2732 61.895C52.5067 62.0999 52.6279 62.3829 52.6367 62.7442V64.3896C52.6367 64.7178 52.6786 64.9789 52.7623 65.1727V65.2256H52.1213ZM51.1069 64.7597C51.2985 64.7597 51.4802 64.7101 51.6521 64.611C51.8239 64.5119 51.9483 64.383 52.0254 64.2244V63.4909H51.5463C50.7974 63.4909 50.4229 63.7101 50.4229 64.1484C50.4229 64.3401 50.4868 64.4899 50.6146 64.5978C50.7423 64.7057 50.9064 64.7597 51.1069 64.7597Z" fill="#FF9800"/>
<path d="M55.3461 62.6451H56.6876V63.2233H55.3461V64.7432H54.7315V63.2233H53.39V62.6451H54.7315V61.2408H55.3461V62.6451Z" fill="#FF9800"/>
<path d="M58.0456 62.0834C58.3165 61.7507 58.669 61.5844 59.1029 61.5844C59.8585 61.5844 60.2396 62.0107 60.2462 62.8631V65.2256H59.6349V62.8598C59.6327 62.6021 59.5732 62.4116 59.4565 62.2882C59.3419 62.1649 59.1624 62.1032 58.9179 62.1032C58.7197 62.1032 58.5456 62.1561 58.3958 62.2618C58.2461 62.3675 58.1293 62.5063 58.0456 62.6781V65.2256H57.4343V60.1505H58.0456V62.0834Z" fill="#FF9800"/>
<path d="M57.3617 72.6C57.3121 73.024 57.1551 73.3517 56.8908 73.583C56.6283 73.8124 56.2786 73.9272 55.8417 73.9272C55.3681 73.9272 54.9882 73.7574 54.7018 73.4178C54.4173 73.0782 54.275 72.6239 54.275 72.0548V71.6694C54.275 71.2967 54.3411 70.9691 54.4733 70.6864C54.6073 70.4037 54.7963 70.1871 55.0405 70.0366C55.2846 69.8842 55.5673 69.808 55.8886 69.808C56.3144 69.808 56.6559 69.9274 56.9128 70.166C57.1698 70.4028 57.3194 70.7314 57.3617 71.1517H56.8302C56.7843 70.8323 56.6843 70.601 56.5301 70.4579C56.3778 70.3147 56.1639 70.2431 55.8886 70.2431C55.5508 70.2431 55.2855 70.3679 55.0928 70.6176C54.9019 70.8672 54.8064 71.2224 54.8064 71.6831V72.0714C54.8064 72.5064 54.8973 72.8524 55.079 73.1094C55.2608 73.3664 55.515 73.4949 55.8417 73.4949C56.1354 73.4949 56.3603 73.4288 56.5163 73.2966C56.6742 73.1626 56.7788 72.9304 56.8302 72.6H57.3617Z" fill="#FF8400"/>
<path d="M59.8453 73.8721C59.8159 73.8134 59.792 73.7087 59.7737 73.5582C59.5369 73.8042 59.2542 73.9272 58.9256 73.9272C58.6319 73.9272 58.3905 73.8446 58.2015 73.6794C58.0142 73.5123 57.9206 73.3012 57.9206 73.0461C57.9206 72.7359 58.0381 72.4954 58.2731 72.3247C58.5099 72.1521 58.8421 72.0659 59.2698 72.0659H59.7654V71.8318C59.7654 71.6538 59.7122 71.5124 59.6057 71.4078C59.4993 71.3013 59.3423 71.2481 59.1349 71.2481C58.9532 71.2481 58.8008 71.294 58.6778 71.3858C58.5548 71.4775 58.4933 71.5886 58.4933 71.7189H57.9812C57.9812 71.5702 58.0335 71.4271 58.1381 71.2894C58.2446 71.1499 58.3878 71.0397 58.5677 70.959C58.7494 70.8782 58.9486 70.8378 59.1652 70.8378C59.5084 70.8378 59.7774 70.9241 59.9719 71.0966C60.1665 71.2674 60.2675 71.5032 60.2748 71.8043V73.1755C60.2748 73.449 60.3097 73.6665 60.3795 73.8281V73.8721H59.8453ZM59 73.4839C59.1597 73.4839 59.3111 73.4426 59.4543 73.36C59.5975 73.2774 59.7012 73.17 59.7654 73.0378V72.4266H59.3662C58.7421 72.4266 58.43 72.6092 58.43 72.9745C58.43 73.1342 58.4832 73.259 58.5897 73.349C58.6962 73.4389 58.8329 73.4839 59 73.4839Z" fill="#FF8400"/>
<path d="M61.5524 70.8929L61.5662 71.2233C61.7846 70.9663 62.0793 70.8378 62.4501 70.8378C62.8667 70.8378 63.1504 70.9975 63.3009 71.3169C63.4 71.1737 63.5285 71.0581 63.6864 70.97C63.8461 70.8819 64.0342 70.8378 64.2508 70.8378C64.9043 70.8378 65.2366 71.1838 65.2476 71.8759V73.8721H64.7382V71.9062C64.7382 71.6932 64.6895 71.5344 64.5923 71.4298C64.495 71.3233 64.3316 71.2701 64.1021 71.2701C63.9131 71.2701 63.7561 71.327 63.6313 71.4408C63.5065 71.5528 63.434 71.7042 63.4138 71.8951V73.8721H62.9016V71.9199C62.9016 71.4867 62.6896 71.2701 62.2656 71.2701C61.9315 71.2701 61.703 71.4124 61.58 71.6969V73.8721H61.0706V70.8929H61.5524Z" fill="#FF8400"/>
<path d="M68.5352 72.4155C68.5352 72.8689 68.4315 73.2342 68.2241 73.5114C68.0166 73.7886 67.7358 73.9272 67.3815 73.9272C67.0199 73.9272 66.7354 73.8124 66.5279 73.583V75.0175H66.0185V70.8929H66.4839L66.5087 71.2233C66.7161 70.9663 67.0043 70.8378 67.3733 70.8378C67.7312 70.8378 68.0139 70.9727 68.2213 71.2426C68.4306 71.5124 68.5352 71.8878 68.5352 72.3687V72.4155ZM68.0258 72.3577C68.0258 72.0218 67.9542 71.7566 67.8111 71.562C67.6679 71.3674 67.4715 71.2701 67.2218 71.2701C66.9134 71.2701 66.6821 71.4069 66.5279 71.6804V73.1039C66.6803 73.3756 66.9134 73.5114 67.2273 73.5114C67.4715 73.5114 67.6651 73.415 67.8083 73.2223C67.9533 73.0277 68.0258 72.7395 68.0258 72.3577Z" fill="#FF8400"/>
</g>
<defs>
<clipPath id="clip0">
<rect width="94.3609" height="100" fill="white"/>
</clipPath>
<clipPath id="clip1">
<rect width="3.77713" height="3.7594" fill="white" transform="translate(44.7368 61.4662)"/>
</clipPath>
</defs>
</svg>
